<?xml version="1.0" standalone="no"?>
<!DOCTYPE svg PUBLIC "-//W3C//DTD SVG 1.1//EN" "http://www.w3.org/Graphics/SVG/1.1/DTD/svg11.dtd" >
<svg xmlns="http://www.w3.org/2000/svg">
<metadata>
This is a custom SVG webfont generated by Font Squirrel.
Copyright   : c Designed by Diego Giaccone Angel Koziupa  digitized by Alejandro Paul Copyright 2004 Sudtipos All rights reserved
Foundry     : Sudtipos
</metadata>
<defs>
<font id="LaPorteniadelaRecoletaRegular" horiz-adv-x="406" >
<font-face units-per-em="1000" ascent="800" descent="-200" />
<missing-glyph horiz-adv-x="230" />
<glyph unicode=" "  horiz-adv-x="230" />
<glyph unicode="&#x09;" horiz-adv-x="230" />
<glyph unicode="&#xa0;" horiz-adv-x="230" />
<glyph unicode="!" horiz-adv-x="278" d="M397 518q0 -4 -19 -34t-51 -79t-73.5 -113t-85.5 -137q-5 -9 -13.5 -13.5t-16.5 -6.5q-9 -3 -18 -3q-8 0 -9.5 3.5t-1.5 8.5q6 8 16.5 25.5t24 41.5t29 52t30.5 56q36 66 78 145q14 24 28.5 37.5t27.5 20t23 7.5t14 1q11 0 14 -4t3 -8zM96 30q0 -17 -7 -30t-16.5 -22 t-20 -13.5t-17.5 -4.5q-13 0 -17 9t-4 14q0 12 6.5 24t16.5 21.5t20.5 15t19.5 5.5q7 0 13 -3.5t6 -15.5z" />
<glyph unicode="&#x22;" horiz-adv-x="371" d="M348 553q0 -8 -2 -16t-8 -18q-17 -26 -34.5 -45.5t-31.5 -33.5q-17 -16 -33 -26q-4 -2 -8 -2q-5 0 -5 5q0 1 0.5 1.5t0.5 1.5v2q23 34 41 66q16 27 31.5 56.5t21.5 48.5q1 1 2 3q2 3 5 3q-1 0 1.5 0t7 -4t8 -13.5t3.5 -28.5zM245 553q0 -8 -2 -16t-8 -18 q-17 -26 -34.5 -45.5t-31.5 -33.5q-17 -16 -33 -26q-4 -2 -8 -2q-5 0 -5 5q0 1 0.5 1.5t0.5 1.5v2q23 34 41 66q16 27 31.5 56.5t21.5 48.5q1 1 2 3q2 3 5 3q-1 0 1.5 0t7 -4t8 -13.5t3.5 -28.5z" />
<glyph unicode="#" horiz-adv-x="500" d="M488 361q0 -2 -3 -7q-8 -14 -14 -17.5t-10 -4.5q-10 -2 -29.5 -3t-45.5 0q-13 -22 -26 -43t-21 -34q33 0 59 0.5t35 2.5q2 0 6 -1t4 -5q0 -9 -11 -18.5t-22 -10.5q-8 -1 -32.5 -2t-56.5 -1q-7 -14 -17 -29.5t-18 -29.5l-20 -32q-8 -9 -19 -11t-23 -2q-6 0 -6 3t1 4t1 2 q3 4 9.5 14t14.5 23t17 28t17 30q-23 1 -45.5 1h-49.5q-8 -13 -17 -29t-18 -30q-11 -17 -21 -33q-8 -9 -18 -11t-17 -2h-7q-6 0 -6 3t1 4t1 2q3 4 9 14t14 23.5t17 28.5t18 29l-84 -2q-8 0 -8 6q0 1 0.5 1.5t0.5 1.5v1q3 8 8 14q5 5 12.5 9t18.5 4q12 1 24 1h46 q14 22 27 44.5t18 32.5q-18 0 -35 -0.5t-31 -1.5q-16 -1 -31 -1q-13 0 -13 6q0 2 2.5 7t8 10.5t13 9.5t16.5 4h89q11 18 20.5 34.5t17.5 29.5q9 15 16 27q6 8 17 12.5t22 4.5q10 0 10 -6q0 -1 -1 -5l-2.5 -7.5t-6.5 -11.5q-8 -11 -20.5 -32t-26.5 -45h94q11 18 20 34t17 29 q9 15 16 27q5 8 16 12.5t23 4.5q11 0 11 -6q0 -1 -1 -5q-2 -6 -10 -19q-7 -11 -19.5 -31.5t-26.5 -44.5q26 0 46 0.5t25 0.5q2 0 6 -1t4 -5zM341 329q-29 0 -55 0.5t-38 0.5l-48 -78h96q5 9 11.5 20t13.5 22.5t12.5 21t7.5 13.5z" />
<glyph unicode="$" horiz-adv-x="579" d="M606 546q0 -27 -18 -43.5t-43.5 -25.5t-53 -12.5t-46.5 -3.5h-10q-15 -26 -31.5 -55t-33.5 -59l15 -6q36 -14 64 -33q24 -17 43.5 -42t19.5 -60q0 -38 -27 -84t-76 -86t-117.5 -66.5t-151.5 -26.5q-14 -23 -25 -41t-19 -29q-10 -14 -17.5 -20t-25.5 -6q-7 0 -7 6q0 3 1 6 q8 13 21.5 35.5t30.5 52.5q-23 4 -44.5 11t-41.5 20q-14 8 -25 20q-10 11 -17.5 26.5t-7.5 36.5q0 30 15 57.5t39.5 49.5t55.5 37t62 18q4 0 11 -1t7 -6q0 -3 -3 -7t-17 -11q-6 -2 -23.5 -13.5t-36 -29t-33 -40t-14.5 -47.5t12.5 -40.5t28.5 -23.5q18 -10 41 -14 q4 -1 7 -1.5t7 -0.5l188 326l-31 15.5t-37.5 23.5t-31.5 32.5t-13 42.5q0 22 10 39.5t21 31.5q13 16 30 28q-24 24 -29.5 46.5t-5.5 35.5q4 26 12 37t22 11q7 0 9.5 -2t2.5 -11q0 -6 -1.5 -14t-1.5 -17q0 -10 4.5 -27t20.5 -35q48 29 98.5 39.5t88.5 11.5q16 26 25 42.5 t16 27.5q7 9 13.5 13t17.5 5q5 0 10.5 -1t5.5 -7q-5 -11 -10 -19.5t-11 -17.5q-5 -7 -13 -19t-15 -24q38 0 63.5 -16.5t25.5 -39.5zM555 543q0 10 -8.5 15t-19.5 8q-12 4 -28 5q-11 -17 -22 -36.5t-24 -41.5q9 1 26.5 3t34 7.5t29 15t12.5 24.5zM458 570q-21 -2 -43 -7 q-19 -5 -42.5 -13.5t-48.5 -25.5q16 -9 38 -16t53 -12q12 22 23 40.5t20 33.5zM397 466q-35 6 -61 15.5t-45 20.5q-16 -13 -26 -29t-10 -34q0 -14 12.5 -28t28.5 -25q18 -12 41 -24l60 104v0zM453 195q0 23 -11 39.5t-27.5 28.5t-35.5 20.5t-36 15.5q-48 -85 -95 -168 t-84 -147q71 0 125 21.5t90.5 53.5t55 69t18.5 67z" />
<glyph unicode="%" horiz-adv-x="649" d="M388 523q0 -35 -16.5 -77t-45 -78.5t-66 -61t-79.5 -24.5t-57.5 21t-15.5 53q0 40 16 72t40 54t50.5 33.5t47.5 11.5q6 0 11 -1t5 -5q0 -1 -2 -5q-1 -2 -5 -4q-2 -1 -4 -1q-12 -2 -29.5 -9.5t-35 -24t-31.5 -43t-18 -66.5q0 -4 0.5 -12.5t5 -17.5t13.5 -15.5t25 -6.5 q30 0 57 20t47.5 49.5t32.5 63t12 61.5q0 25 -10.5 41t-35.5 16q-22 0 -34 -7t-29 -21q-4 -4 -8 -4t-4 4q0 2 1 4q2 6 8.5 15t18.5 18t28.5 15.5t37.5 6.5q37 0 53 -21.5t16 -53.5zM740 659q0 -4 -4 -8l-29 -29q-17 -17 -49.5 -50.5t-75 -77.5t-92 -96t-101 -105 t-101 -104.5t-92.5 -95t-76 -76t-50 -48.5q-9 -6 -26.5 -12.5t-31.5 -6.5h-4l-1 3q0 2 2 6q15 15 45.5 46.5t72 74t90 93t98.5 102t98.5 102t89.5 92.5t72 74t46 46q18 17 30.5 30.5t23 23t21.5 15t25 7.5h3q4 0 10 -0.5t6 -5.5zM596 214q0 -35 -16.5 -77t-45 -78.5t-66 -61 t-79.5 -24.5t-57.5 21t-15.5 53q0 40 16 72t40 54t50.5 33.5t47.5 11.5q6 0 11 -1t5 -5q0 -1 -2 -5q-1 -2 -5 -4q-2 -1 -4 -1q-12 -2 -29.5 -9.5t-35 -24t-31.5 -43t-18 -66.5q0 -4 0.5 -12.5t5 -17.5t13.5 -15.5t25 -6.5q30 0 57 20t47.5 49.5t32.5 63t12 61.5 q0 25 -10.5 41t-35.5 16q-22 0 -34 -7t-29 -21q-4 -4 -8 -4t-4 4q0 2 1 4q2 6 8.5 15t18.5 18t28.5 15.5t37.5 6.5q37 0 53 -21.5t16 -53.5z" />
<glyph unicode="&#x26;" horiz-adv-x="422" d="M467 263q0 -43 -20 -84.5t-49 -77.5t-63 -64t-63 -42q21 -36 47.5 -62t72.5 -46l6 -2q5 -2 5 -7q-1 -5 -5 -6.5t-6 -1.5q-36 2 -61 14t-43.5 28t-31.5 33t-24 31q-18 -8 -39 -15q-18 -6 -43 -10.5t-54 -4.5q-55 0 -86 16.5t-46 39t-18.5 45t-3.5 33.5q0 57 31.5 103 t75.5 82.5t90.5 64.5t76.5 50q-1 13 -1 18.5v10.5q0 29 13 64.5t35.5 66.5t53 52t65.5 21q17 0 25.5 -5.5t12.5 -13.5q4 -9 5 -20q0 -38 -37 -86t-124 -114q2 -24 6.5 -45t10.5 -39q19 17 37.5 27t34.5 15t27.5 6t16.5 1q21 0 35 -7t21.5 -18t10.5 -24.5t3 -26.5zM371 547 q0 17 -18 17q-24 0 -40.5 -18.5t-27 -43.5t-15.5 -49.5t-5 -36.5q24 16 43.5 34.5t33.5 36.5t21.5 33.5t7.5 26.5zM418 248q0 18 -6.5 32.5t-25.5 18.5q-17 0 -41.5 -6.5t-49.5 -34.5q8 -14 15 -24.5t13 -18.5q7 -9 13 -15q8 -9 8 -15q0 -7 -7 -7q-14 0 -31 14.5t-32 35.5 q-8 -11 -15 -29q-6 -15 -10.5 -37t-4.5 -53q0 -20 3.5 -41.5t11.5 -44.5q25 14 53 36t51.5 50.5t39 63.5t15.5 75zM253 259q-11 17 -19.5 38t-13.5 46q-11 -9 -31 -22t-44 -30t-48.5 -38.5t-44.5 -48t-33 -58t-13 -67.5q0 -6 2.5 -22t13.5 -32.5t33.5 -29t62.5 -12.5 q24 0 42.5 2.5t31.5 6.5q15 4 26 10q-11 25 -15.5 48.5t-4.5 45.5q0 37 8.5 66.5t19.5 51.5q12 26 27 45z" />
<glyph unicode="'" horiz-adv-x="268" d="M245 553q0 -8 -2 -16t-8 -18q-17 -26 -34.5 -45.5t-31.5 -33.5q-17 -16 -33 -26q-4 -2 -8 -2q-5 0 -5 5q0 1 0.5 1.5t0.5 1.5v2q23 34 41 66q16 27 31.5 56.5t21.5 48.5q1 1 2 3q2 3 5 3q-1 0 1.5 0t7 -4t8 -13.5t3.5 -28.5z" />
<glyph unicode="(" horiz-adv-x="297" d="M474 635q0 -5 -15 -15q-50 -23 -105 -67q-47 -38 -103.5 -102.5t-113.5 -165.5q-29 -51 -53 -110q-20 -51 -37 -115.5t-17 -135.5q0 -10 0.5 -19.5t1.5 -19.5q-1 -3 -3 -7q-3 -7 -9 -7q-5 0 -10.5 12.5t-10 31t-7.5 41.5t-3 44q0 63 16.5 122t36.5 106q24 55 53 103 q60 100 123 160.5t117 94.5q62 40 121 57q5 0 9 -1q9 -2 9 -7z" />
<glyph unicode=")" horiz-adv-x="307" d="M327 514q0 -63 -16.5 -122t-36.5 -106q-24 -55 -53 -103q-59 -99 -123 -160t-117 -95q-62 -40 -121 -57q-5 0 -9 1q-9 2 -9 7t15 15q50 23 105 67q47 38 103.5 102.5t113.5 165.5q30 51 54 110q20 51 36.5 116t16.5 135q0 10 -0.5 19.5t-1.5 19.5q1 3 3 7q4 7 9 7 t10.5 -12.5t10 -31t7.5 -41.5t3 -44z" />
<glyph unicode="*" horiz-adv-x="342" d="M395 499q0 -6 -12 -15.5t-32 -9.5q-15 0 -27 -1q-11 -1 -19.5 -2.5t-10.5 -4.5v-1q0 -1 -0.5 -1.5t-0.5 -2.5q0 -3 1.5 -8t6.5 -13q7 -8 11 -17q4 -8 7 -16t3 -16q0 -5 -5 -16t-15 -11q-2 0 -7.5 3.5t-11.5 17.5q-5 12 -9 23l-8 20t-9 15q0 1 -1 2t-4 1t-9 -7 q-11 -17 -22 -35q-10 -16 -20.5 -34.5t-18.5 -35.5q0 -1 -2 -3q-4 -4 -9 -4q-3 0 -14 5.5t-11 21.5q0 5 3 11q9 14 19 29q8 13 19.5 27t22.5 26q0 1 1 2t1 3q0 3 -7 3q-30 -4 -46.5 -7t-25.5 -5.5t-14 -4t-12 -1.5q-4 0 -7.5 1t-3.5 6t6 18t26 19q12 3 26 6q12 2 28.5 4 t36.5 2q2 0 3 1q2 2 2 4q0 3 -6 13t-14 22.5t-16 24t-13 16.5q0 1 -1 2q-2 2 -2 4q0 6 6.5 15.5t19.5 9.5q6 0 13 -3.5t14 -14.5q7 -10 12 -21q5 -9 10 -20t8 -21q0 -1 1 -3q2 -3 4 -3q3 0 4 4q0 -2 6 8.5t15 24t19.5 25t20.5 11.5q4 0 8.5 -1t9.5 -5l2 -2q1 -1 1 -6 q0 -3 -1 -6.5t-6 -8.5q-7 -9 -13 -17q-5 -7 -11 -14.5t-11 -14.5q0 -1 -1 -2t-1 -3q0 -4 8 -4q7 1 14 1h29q13 0 24 -0.5t13 -2.5q2 -1 3 -2q2 -2 2 -5z" />
<glyph unicode="+" horiz-adv-x="380" d="M377 302q0 -4 -2 -7q-13 -23 -33 -26.5t-54 -3.5q-18 0 -33 0.5t-19 0.5q-24 -42 -39 -66.5t-23 -37.5q-10 -15 -15 -20q-8 -9 -19 -11t-23 -2q-6 0 -6 3t1 4t1 2q6 8 17 26l22 36q13 21 27 46l12 20q-21 0 -41.5 -0.5t-37 -1t-27.5 -1t-13 -0.5q-6 0 -7.5 2.5t-1.5 4.5 t2.5 7t8 10t13 9.5t17.5 5.5q5 1 13 1h37h26t30 -1q12 20 23 39t20 33q11 17 19 31q5 8 16.5 12.5t23.5 4.5q10 0 10 -5q0 -1 -1 -5q-2 -6 -10 -19q-8 -14 -23 -38t-32 -53h25q29 0 46.5 0.5t27.5 1.5q11 1 17 2q5 0 5 -4z" />
<glyph unicode="," horiz-adv-x="254" d="M148 71q0 -8 -16.5 -34.5t-41.5 -56.5t-55 -55t-59 -30q-2 0 -5 1q-5 2 -5 5q0 4 7 11q16 16 32 35q14 17 29 38.5t28 47.5q1 3 3 7q3 5 11 12q12 7 23 13q10 5 20 9t18 4q10 0 11 -7z" />
<glyph unicode="-" horiz-adv-x="358" d="M311 179q0 -2 -3 -7q-13 -22 -37.5 -27t-59.5 -5q-9 0 -17 0.5t-14 0.5h-14q-34 1 -51 0.5t-24.5 -1t-9 -1.5t-5.5 -1q-9 0 -9 7q0 1 0.5 1.5t0.5 1.5v1q0 1 3 5.5t9 10t15.5 10t22.5 4.5h132q20 0 31 0.5t19 2.5q1 1 2 1h4q5 0 5 -4z" />
<glyph unicode="." horiz-adv-x="296" d="M142 39q0 -13 -6 -24.5t-15 -20.5t-19 -14t-19 -5q-10 0 -15 6.5t-5 16.5q0 12 5.5 23.5t14 21t19 15t19.5 5.5q10 0 15.5 -6.5t5.5 -17.5z" />
<glyph unicode="/" horiz-adv-x="379" d="M636 601q0 -4 -48.5 -51.5t-135.5 -133t-208 -204.5t-265 -266q-10 -10 -28 -13t-26 -3q-6 1 -7.5 4.5t-1.5 7.5q4 4 34.5 34t77.5 76.5t105.5 104t118.5 117.5q142 140 318 315q3 2 15 9.5t41 7.5q10 0 10 -5z" />
<glyph unicode="0" horiz-adv-x="478" d="M525 467q0 -51 -16.5 -110.5t-46 -119t-70 -115t-88 -98.5t-100.5 -68.5t-107 -25.5q-39 0 -67 11.5t-46 32t-26 48.5t-8 60q0 59 25 126t67 123.5t97 94t115 37.5q46 0 46 -16q0 -5 -13 -5q-58 0 -107.5 -34.5t-86.5 -86t-58 -112t-21 -112.5q0 -27 6 -49.5t19 -39.5 t32.5 -26.5t47.5 -9.5q46 0 89.5 22.5t82 60t70.5 85.5t55 100t36 104t13 96q0 57 -23.5 93.5t-77.5 36.5q-23 0 -44.5 -7t-40.5 -17.5t-35.5 -23.5t-28.5 -25q-2 -2 -5 -4q-2 -2 -4.5 -3.5t-4.5 -1.5q-5 0 -5 9q0 4 1 6q3 10 17.5 29.5t39.5 38.5t58.5 33t75.5 14 q73 0 105 -42.5t32 -108.5z" />
<glyph unicode="1" horiz-adv-x="349" d="M461 592q0 -9 -10.5 -18t-35.5 -26q-2 -1 -4 -3t-3.5 -4t-3.5 -5q-10 -18 -24 -43q-12 -21 -30 -50.5t-42 -66.5q-60 -94 -108 -178q-21 -36 -40.5 -72.5t-35.5 -69.5t-26 -60t-12 -44q0 -3 -2 -6q-4 -6 -8 -6q-14 0 -22 6t-12 14q-4 9 -5 20q0 10 6 27.5t16.5 39 t23.5 46t26 48.5q32 56 71 122q47 73 78 123.5t50 82.5q22 38 35 61q2 6 2 7q0 3 -3 3h-3q-1 0 -2 -1q-58 -20 -100 -45t-70 -48q-33 -26 -54 -54q-7 -11 -13 -11q-2 0 -3.5 1.5l-3.5 3.5t-3 4v2q0 2 -0.5 3.5t-0.5 3.5q0 11 8.5 30t40.5 44q25 20 67 42t87.5 41t87.5 31.5 t68 12.5q4 0 8.5 -1.5t4.5 -6.5z" />
<glyph unicode="2" horiz-adv-x="456" d="M484 478q0 -46 -20.5 -94t-52 -93t-69.5 -85.5t-73 -72.5t-63 -54.5t-39 -30.5q13 -2 44 -12t90 -10q34 0 67 8.5t56 32.5q1 0 2 1t5 1q5 0 5 -7q0 -14 -9.5 -29.5t-26 -29t-39.5 -22t-50 -8.5q-30 0 -52.5 5.5t-42 13.5t-39 17t-45.5 16q-37 -23 -83.5 -40.5 t-95.5 -17.5q-25 1 -45 6q-17 5 -31 13.5t-14 25.5q0 14 11.5 25.5t31 20t44.5 13.5t52 5q18 0 47 -3t71 -13q68 48 125.5 107t99.5 118t66 112.5t24 89.5q0 24 -10 38t-22.5 21t-25 8.5t-18.5 1.5q-60 0 -100.5 -24t-65.5 -56.5t-36 -64t-11 -46.5q0 -26 15 -33.5t29 -7.5 q34 0 57 17t37.5 41t21 51t6.5 47q0 3 1.5 6.5t6.5 3.5q3 0 8 -2t10 -7t9 -13.5t4 -22.5q0 -13 -11.5 -39t-34 -51.5t-55.5 -44.5t-75 -19q-40 0 -59.5 23.5t-19.5 58.5q0 33 17 70.5t51 70t84 53.5t116 21q5 0 24.5 -2t40.5 -12.5t38 -33t17 -62.5zM85 37q-22 5 -40.5 6.5 t-33.5 1.5q-48 0 -69 -9.5t-21 -23.5q0 -10 13.5 -13t22.5 -3q17 0 36.5 5t36.5 11q19 7 39 15q4 2 8 4.5t8 5.5z" />
<glyph unicode="3" horiz-adv-x="457" d="M518 494q0 -20 -9.5 -45t-32 -48.5t-58.5 -43.5t-89 -31q-1 -1 -3 -2q-3 -1 -3 -4t4 -4q28 -9 50 -26q19 -14 34.5 -38.5t15.5 -62.5q0 -61 -28 -106t-70 -74t-91 -43t-91 -14q-47 0 -77.5 12.5t-48.5 31.5t-25.5 40t-7.5 38q0 47 22 77.5t50 48t54 24.5t35 7q10 0 13 -1 t3 -2q3 -3 3 -6q0 -4 -6 -8q-3 -2 -6 -3q-38 -14 -60.5 -37t-33.5 -46q-13 -26 -18 -55q2 -33 16 -51t33 -26t40 -9.5t36 -1.5q27 0 61.5 14.5t65 41.5t51.5 64.5t21 82.5q0 40 -17.5 63t-40.5 34t-46.5 14t-34.5 3q-17 0 -20.5 1t-3.5 5q0 14 5.5 20.5t12.5 10.5q8 4 18 5 q60 2 102.5 18.5t69.5 38.5t39 46.5t12 43.5q0 23 -12 35.5t-27 19.5q-18 8 -40 9q-3 -18 -15 -44t-33.5 -49t-52 -39.5t-68.5 -16.5q-5 0 -15 1.5t-20 6t-17.5 13t-7.5 22.5q0 15 11 37t34 42.5t59 37t86 20.5q-3 11 -8 19.5t-10 13.5q-6 6 -12 11l-1 1q-2 2 -2 5q0 7 10 8 q15 -1 28 -8q11 -6 21.5 -17.5t12.5 -31.5q58 0 95.5 -25.5t37.5 -67.5zM348 556q-28 0 -52.5 -10t-43.5 -25t-30 -32t-11 -31t10 -16.5t19 -2.5q15 0 34 12t35.5 29.5t27.5 38t11 37.5z" />
<glyph unicode="4" horiz-adv-x="478" d="M582 606q0 -4 -4.5 -8.5t-19.5 -9.5q-56 -25 -126 -71q-60 -39 -140 -102.5t-175 -160.5q-11 -11 -20 -22q-8 -9 -14.5 -18.5t-6.5 -15.5q0 -5 7 -6q11 -1 23 -2q11 -1 25.5 -1.5t32.5 -0.5q21 0 45 1t50 5q31 59 68 105q16 20 34.5 38.5t39.5 33t43.5 23.5t46.5 9 t29.5 -13.5t5.5 -26.5q0 -33 -21 -64.5t-53.5 -57.5t-71.5 -44t-74 -25q-26 -47 -46 -80t-34 -54q-16 -25 -27 -41q-9 -15 -21 -23t-22.5 -12t-18.5 -4.5t-10 -0.5q-6 0 -7.5 2.5t-1.5 4.5q0 1 0.5 2t0.5 2v1q6 7 17 23t23.5 36t26 42.5t25 41.5t19.5 32.5t9 16.5 q-28 -4 -54 -5t-49 -1q-21 0 -38.5 1t-30.5 2q-15 1 -27 2q-20 1 -26.5 9t-6.5 16t3 14l3 6q90 109 172.5 183.5t148.5 122.5q77 55 144 91q11 6 23 10q11 4 23.5 6.5t24.5 2.5q10 -1 17 -3q6 -2 11 -4.5t5 -7.5zM481 345q0 6 -2 11q-4 11 -15 11q-22 0 -46.5 -24.5 t-44.5 -54.5q-24 -35 -47 -80q22 7 49 20.5t50.5 31.5t39.5 39.5t16 45.5z" />
<glyph unicode="5" horiz-adv-x="478" d="M501 557q0 -10 -13 -30q0 -1 -2 -3q-3 -3 -7 -3q-3 0 -7 2t-12.5 4t-23.5 4t-41 2q-25 0 -54 -4t-59 -15q-3 0 -6 -3l-5 -5t-6 -8q-15 -25 -28 -47q-11 -19 -21.5 -37.5t-15.5 -28.5q0 -1 -1 -2t-1 -4q0 -2 3 -2q2 0 4 1q13 5 29 9q14 3 30.5 5.5t35.5 2.5 q64 0 92.5 -34.5t28.5 -85.5q0 -49 -23.5 -104.5t-65.5 -103t-100 -79t-126 -31.5q-5 0 -25 2t-42 12t-39.5 31.5t-17.5 61.5q0 23 12 55t38.5 60.5t68.5 48.5t102 20q16 0 32.5 -4.5t16.5 -14.5q0 -5 -4.5 -6.5t-9.5 -1.5q-48 0 -86.5 -16t-65.5 -39t-41 -48.5t-14 -45.5 q0 -30 9.5 -47t23 -25.5t27.5 -10.5t24 -2q53 0 99 28t80.5 69.5t54 90t19.5 90.5t-22 69t-71 27q-24 0 -47 -7t-41 -16q-21 -11 -40 -24q-8 -8 -14 -12q-3 -2 -5 -2q-10 2 -13 8t-3 13t1 10t1 4q6 9 14.5 22.5t18.5 30t21 34.5t21 36q24 41 50 89q2 4 5 7q2 2 6.5 4.5 t10.5 2.5q26 4 55 8q25 3 55.5 5t60.5 2t55 -3q3 -1 7 -3q7 -3 7 -13z" />
<glyph unicode="6" horiz-adv-x="378" d="M475 569q0 -2 -1 -4q-2 -4 -9 -4q-3 0 -11 2q-2 1 -5 1h-15q-48 0 -95.5 -23t-91.5 -60t-81.5 -84t-65.5 -95.5t-44 -94.5t-16 -82q0 -13 1 -31.5t6.5 -37t17 -33.5t33.5 -20q-6 27 -6 52q0 77 26 133.5t62.5 94t75.5 55.5t65 18q30 0 46.5 -11.5t24.5 -27t10 -32.5 t2 -29q0 -58 -27.5 -109.5t-66.5 -90t-81 -61.5t-71 -23q6 -14 14.5 -28t22.5 -26l2 -2q1 -1 1 -4q0 -4 -3.5 -5.5t-7.5 -1.5q-13 0 -25 6.5t-22 16t-17 20t-12 19.5q-45 2 -71 21.5t-38.5 44t-15.5 48.5t-3 36q0 46 17 99t46.5 105.5t70.5 101.5t88 86.5t98.5 60 t103.5 22.5q13 0 22.5 -1t17.5 -3q9 -2 15 -4q4 -1 7 -3q6 -4 6 -12zM354 251q0 26 -11 46t-42 20q-20 0 -48 -17t-53.5 -49t-43.5 -78.5t-18 -105.5q0 -33 9 -65q25 0 60.5 17.5t68 50t55.5 78.5t23 103z" />
<glyph unicode="7" horiz-adv-x="400" d="M655 627q0 -20 -15.5 -42.5t-42 -41t-60.5 -31t-71 -12.5q-22 0 -36 3q-8 2 -14 3q-18 -18 -38 -41q-12 -14 -28 -32q-14 -16 -31.5 -38t-37.5 -49q5 -1 16 -2t25 -1t28.5 2t24.5 10q3 3 9 3q5 0 5 -5q0 -10 -7.5 -18t-20 -14t-27.5 -9.5t-30 -3.5q-12 0 -18 0.5t-10 1.5 t-7.5 2t-10.5 1q-4 -5 -7 -10t-7 -10q-48 -71 -93.5 -156.5t-70.5 -175.5q0 -2 -1 -5q-2 -5 -8 -5q-9 0 -15 7.5t-9 17.5q-4 11 -6 26q5 36 20.5 76t37.5 81t48 81t53 76q-20 -2 -27.5 -5t-9.5 -3q-8 0 -8 6q0 2 2 6l1 2q5 7 14 12q8 5 20 8.5t32 5.5q25 31 42 51.5t29 35 t20 24t16.5 18.5t18 18.5t23.5 24.5q-26 11 -47.5 18.5t-46.5 7.5q-30 0 -55.5 -9.5t-44.5 -20.5q-22 -13 -39 -30q-3 -2 -7 -2q-5 0 -7 5q-1 3 -1 5q0 8 8 25t23.5 34t39.5 30.5t55 13.5q26 0 45.5 -6t36.5 -14t32.5 -17t33.5 -15q45 39 83.5 60.5t67.5 32t48 12.5t23 2 q25 0 29.5 -9.5t4.5 -15.5zM601 604q0 11 -16 11q-10 0 -28 -7.5t-38 -19.5t-40.5 -26.5t-34.5 -28.5q17 -3 33 -3q24 0 46.5 8.5t39.5 20t27.5 24t10.5 21.5z" />
<glyph unicode="8" horiz-adv-x="457" d="M516 412q0 -5 -3.5 -6.5t-5.5 -1.5q-7 2 -14 2h-14q-51 0 -98 -14t-92 -31q3 -4 6 -7l5 -5q3 -3 4 -5q23 -25 41 -53q16 -24 28.5 -54t12.5 -62q0 -21 -11.5 -58t-41 -72t-81 -61t-132.5 -26q-22 0 -48.5 5t-49 19t-37.5 38t-15 63q0 44 22 84.5t57.5 75.5t79 65t86.5 52 q-13 17 -23.5 37.5t-10.5 39.5q0 26 16.5 54.5t46 52.5t70 40t89.5 16q20 0 39 -3t34 -11.5t24.5 -23.5t9.5 -39q0 -14 -5.5 -32.5t-21.5 -38.5q-3 -3 -3 -4t5 -2q17 -5 24 -14t7 -20zM461 512q-1 16 -8 26.5t-16.5 16.5t-21 8t-23.5 2q-35 0 -63 -11.5t-47.5 -29t-29.5 -38 t-10 -37.5q0 -11 1.5 -18t5 -13.5t8.5 -13.5t12 -18q35 17 76 31.5t87 25.5q9 6 15 17q5 9 9.5 22t4.5 30zM329 153q0 36 -14.5 68.5t-32.5 58.5q-21 30 -48 55q-37 -18 -73 -45t-64.5 -59.5t-46 -69.5t-17.5 -77q0 -31 13 -49t31 -27.5t37.5 -12.5t33.5 -3q52 0 87 21.5 t56 49.5t29.5 54t8.5 36z" />
<glyph unicode="9" horiz-adv-x="413" d="M437 474q0 -49 -17.5 -108.5t-48 -120t-72.5 -117.5t-91.5 -101.5t-104 -71.5t-110.5 -27q-9 0 -14 2t-7 4q-3 3 -3 6q0 4 7 8q4 2 7 3q45 1 92.5 29t92 72.5t84 101t69 114.5t46.5 113t17 97q0 40 -17.5 63.5t-55.5 23.5q-48 0 -91 -24t-75.5 -59.5t-51 -75t-18.5 -70.5 q0 -25 13.5 -41t43.5 -16q36 0 65 22t49 53.5t31 68t11 64.5q0 8 2.5 10t5.5 2q8 0 13 -5t8 -12t4.5 -14.5t1.5 -13.5q0 -41 -21 -79.5t-52.5 -68t-67.5 -47.5t-67 -18q-50 0 -72.5 24.5t-22.5 61.5q0 40 23.5 87.5t64.5 89t97.5 69t122.5 27.5q58 0 83.5 -35t25.5 -91z" />
<glyph unicode=":" horiz-adv-x="321" d="M294 296q0 -13 -6 -24.5t-15 -20.5t-19 -14t-19 -5q-10 0 -15 6.5t-5 16.5q0 12 5.5 23.5t14 21t19 15t19.5 5.5q10 0 15.5 -6.5t5.5 -17.5zM142 39q0 -13 -6 -24.5t-15 -20.5t-19 -14t-19 -5q-10 0 -15 6.5t-5 16.5q0 12 5.5 23.5t14 21t19 15t19.5 5.5q10 0 15.5 -6.5 t5.5 -17.5z" />
<glyph unicode=";" horiz-adv-x="310" d="M257 296q0 -13 -6 -24.5t-15 -20.5t-19 -14t-19 -5q-10 0 -15 6.5t-5 16.5q0 12 5.5 23.5t14 21t19 15t19.5 5.5q10 0 15.5 -6.5t5.5 -17.5zM148 71q0 -8 -16.5 -34.5t-41.5 -56.5t-55 -55t-59 -30q-2 0 -5 1q-5 2 -5 5q0 4 7 11q16 16 32 35q14 17 29 38.5t28 47.5 q1 3 3 7q3 5 11 12q12 7 23 13q10 5 20 9t18 4q10 0 11 -7z" />
<glyph unicode="&#x3c;" horiz-adv-x="355" d="M316 408q0 -4 -7 -7q-36 -21 -70 -43q-29 -19 -61 -40.5t-55 -41.5q-1 -1 -2 -3q-2 -4 -2 -8q0 -3 1 -5l36 -64q16 -27 36 -56.5t41 -50.5q0 -1 1 -2t1 -5q0 -3 -8 -5q-4 -1 -9 -1q-14 0 -30 12t-31.5 30t-30 40t-26 41.5t-19 34.5l-9.5 19q-4 7 -5 12t-1 9q0 5 1 6t1 2 q1 5 10 13t22.5 18t30.5 21.5t35 22.5q41 26 93 57q2 1 6 2q8 2 18 2q2 0 7 -0.5t11 -1.5t10.5 -3t4.5 -5z" />
<glyph unicode="=" horiz-adv-x="392" d="M380 357q-4 -10 -10.5 -17t-17 -11.5t-26.5 -6t-39 -1.5h-84h-47.5t-42.5 -0.5t-30.5 -1t-10.5 -1.5q-8 0 -8 7q0 4 9 15.5t34 16.5h151q43 0 75.5 0.5t35.5 2.5q1 1 2 1h4q5 0 5 -4zM319 244q-4 -10 -10.5 -17t-17 -11.5t-26.5 -6t-39 -1.5h-84h-47.5t-42.5 -0.5 t-30.5 -1t-10.5 -1.5q-8 0 -8 7q0 4 9 15.5t34 16.5h151q43 0 75.5 0.5t35.5 2.5q1 1 2 1h4q5 0 5 -4z" />
<glyph unicode="&#x3e;" horiz-adv-x="322" d="M267 225q0 -5 -1 -6t-1 -2q-1 -4 -10 -12t-22.5 -18.5t-30.5 -22t-35 -22.5q-41 -26 -93 -57q-2 -1 -6 -2q-8 -2 -18 -2q-1 0 -6.5 0.5t-11.5 1.5t-10.5 3t-4.5 5q0 4 7 7q37 21 71 43q29 19 60.5 41t54.5 41q1 1 2 3q2 4 2 8q0 3 -1 5q-17 33 -35 65q-16 27 -36.5 56 t-41.5 50q0 1 -1 2t-1 5q0 2 3 3l6 2q4 1 8 1q14 0 30 -12t31.5 -30t30 -40t26 -41.5t19 -34.5l9.5 -19q4 -7 5 -12t1 -9z" />
<glyph unicode="?" horiz-adv-x="366" d="M468 464q0 -30 -22 -59.5t-55.5 -58.5t-73 -57.5t-75.5 -57.5t-63 -58.5t-35 -59.5q0 -1 -2 -2t-3.5 -2t-3.5 -1q-9 0 -17 8t-6 29q1 22 24 46t56 49.5t71.5 52.5t71.5 55.5t55 59t22 61.5q0 2 -2 11t-9.5 20t-22 19.5t-40.5 8.5q-28 0 -60 -10t-59 -27t-44.5 -39 t-17.5 -46q0 -12 5.5 -24t28.5 -12q2 0 17 1.5t32.5 10t32.5 26t16 49.5q0 2 -1 4t-1 7q0 8 7 8t17 -8.5t10 -28.5q0 -23 -14 -42.5t-35.5 -33.5t-47 -21.5t-49.5 -7.5q-29 0 -50 13.5t-21 42.5q0 40 24.5 71.5t61.5 53t81.5 33t83.5 11.5q41 0 63.5 -12.5t33.5 -29 t13.5 -32t2.5 -21.5zM114 44q0 -9 -5 -20.5t-14 -21t-20.5 -16.5t-23.5 -7q-7 0 -13 3t-6 14q0 24 9 38t20 21.5t20.5 9.5t11.5 2q21 0 21 -23z" />
<glyph unicode="@" horiz-adv-x="640" d="M615 265q0 -68 -23 -126t-57.5 -101t-74 -67t-71.5 -24q-30 0 -42.5 20t-12.5 42q0 9 1 17.5t3 15.5q2 8 4 14l1 3q0 1 -1 1q-2 0 -3 -1l-2 -2q-24 -25 -46 -39t-40 -21.5t-31.5 -9.5t-19.5 -2q-16 0 -25.5 6.5t-14.5 15.5t-6.5 19.5t-1.5 17.5q0 44 25 91.5t63 87t84 65 t88 25.5q4 0 13 -1t18 -5.5t16 -14t7 -26.5t-9.5 -36t-25 -35t-35.5 -26.5t-41 -10.5q-8 0 -14 2q-3 1 -5 2q-1 2 -1 4q0 4 4 6q2 1 3 1q18 6 33.5 16.5t26 22.5t16.5 25t6 25q0 17 -8.5 19.5t-14.5 2.5q-24 0 -57.5 -24.5t-63.5 -60.5t-51 -76.5t-21 -71.5q0 -10 4 -17.5 t16 -8.5q3 0 14.5 2.5t30 13.5t45 34t59.5 64q2 4 7 7q5 2 12.5 4t18.5 2h6q1 0 3 -1q3 -1 3 -5t-4 -11q-10 -19 -19 -38q-8 -17 -14 -36t-6 -36q0 -11 5.5 -22.5t25.5 -11.5q18 0 45 19t52 53t43 80.5t18 101.5q0 12 -2.5 39.5t-17.5 56t-46.5 50.5t-88.5 22 q-52 0 -102 -18.5t-94.5 -50t-82 -72.5t-64.5 -86.5t-42.5 -92.5t-15.5 -90q0 -17 4 -36t14.5 -35.5t29 -27t46.5 -10.5q17 0 45 6.5t60 28.5q2 1 5 3q5 3 8 3q2 0 4 -2t2 -7q0 -13 -13.5 -27t-34 -25t-45.5 -18.5t-48 -7.5q-41 0 -67.5 14.5t-41.5 36.5t-20.5 48t-5.5 48 q0 59 20.5 115.5t56 107t82.5 93t100 73t108.5 48t107.5 17.5q54 0 89 -16.5t55.5 -42.5t28.5 -59t8 -66z" />
<glyph unicode="A" horiz-adv-x="715" d="M854 669q0 -25 -17 -49t-42 -47.5t-53.5 -45.5t-52.5 -43q-2 -7 -3.5 -13t-3.5 -10t-2 -8q-7 -24 -16 -53q-8 -25 -16 -58.5t-16 -72.5q38 2 75.5 14t64.5 40q1 1 3 2t5 1q6 0 6 -7t-10 -21.5t-30.5 -29.5t-50.5 -26t-70 -11q-8 -41 -12 -83t-4 -84q0 -41 5 -77.5 t18 -67.5q5 -13 11 -25q5 -11 13 -21.5t16 -18.5q3 -3 3 -6t-1 -4q-1 -2 -3 -2.5t-4 -1.5t-4 -1q-23 3 -40 18.5t-28 32.5q-13 20 -22 45q-10 32 -14 66.5t-4 71.5q0 39 4 79t11 79q-29 2 -55 5t-48 8q-56 -73 -120 -130q-27 -24 -59 -47.5t-66.5 -42t-71 -30t-74.5 -11.5 q-66 0 -95.5 32.5t-29.5 80.5t25.5 103t71.5 102t108.5 78.5t135.5 31.5q10 0 24 -3t26.5 -9t21.5 -14.5t9 -19.5q0 -12 -8 -12q-2 0 -6 2q-2 1 -3 1q-7 5 -15.5 8t-16.5 5q-9 2 -18 3q-68 0 -126 -28t-100 -69.5t-66 -89t-24 -87.5q0 -36 22 -60t70 -24q56 0 106.5 26.5 t94.5 64t80 78.5t62 69q-8 3 -19 6q-20 5 -47 5q-26 0 -47 -5t-36 -11q-18 -7 -32 -17q-1 -1 -3 -2t-3.5 -2t-3.5 -1q-5 0 -5 8q0 3 6.5 14t22.5 23.5t43 22t68 9.5q14 0 29 -2t29 -4q16 -3 31 -6q57 71 101 114t79 75q9 27 27 65t42.5 72.5t54.5 58.5t62 24q9 0 19.5 -5 t10.5 -25zM808 653q0 10 -8 10q-15 0 -30.5 -18.5t-28.5 -41.5q-15 -26 -30 -61q28 21 49 41q18 17 33 36.5t15 33.5zM615 412q-29 -29 -59.5 -62.5t-59.5 -68.5q31 -7 81 -12q8 40 18 76t20 67z" />
<glyph unicode="B" horiz-adv-x="645" d="M718 512q0 -29 -20.5 -59.5t-53 -58.5t-73.5 -51.5t-82 -37.5q-1 -1 -3 -2q-3 -1 -3 -4q0 -2 4 -5q27 -9 47 -26q17 -14 31.5 -38t14.5 -60q0 -34 -17.5 -78t-55 -83t-96.5 -66t-142 -27q-29 0 -55.5 5.5t-47 16t-32.5 25.5t-12 33q0 14 3.5 21.5t8.5 11.5t12 5q6 0 8 -6 q1 -3 1 -6q6 -26 22.5 -40.5t35.5 -21.5t35.5 -9t22.5 -2q50 0 88.5 13t66 33.5t46 45.5t30 49.5t16 45.5t4.5 32q0 38 -19.5 60.5t-42.5 34.5q-27 14 -62 19q-13 1 -15.5 4t-2.5 5q0 7 4 11.5t8.5 7.5t8.5 4t5 1q50 6 95.5 27t80.5 48.5t56 57t21 52.5q0 24 -17 32t-37 8 q-28 0 -58 -9.5t-58.5 -23t-52.5 -28t-40 -25.5q-6 -34 -23 -75.5t-39.5 -83.5t-50 -81.5t-55.5 -70t-55 -49t-49 -18.5q-21 0 -26.5 12.5t-5.5 25.5q0 14 4 28.5t9 26.5q5 14 12 28q22 41 55 85q29 38 72.5 84t104.5 91q3 14 5 24.5t2 28.5q0 11 -3 25.5t-14 28t-32 23 t-56 9.5q-46 0 -99 -18t-97.5 -47.5t-74 -67.5t-29.5 -78q0 -7 2 -15.5t9.5 -15t22 -11t39.5 -4.5q24 0 57 7.5t70 30.5q1 0 3 1t6 1q7 0 7 -8q0 -10 -14 -24t-37.5 -27t-53 -22t-60.5 -9q-52 0 -75 19t-23 57q0 34 16.5 67t44 62.5t64 54.5t77 43.5t83 29t80.5 10.5 q40 0 66 -11t41 -28.5t21 -38t6 -39.5v-10.5t-1 -10.5q20 12 46 26.5t55.5 27t61 21.5t62.5 9q14 0 30 -2.5t29.5 -10t22.5 -20t9 -33.5zM335 409q-50 -40 -84.5 -78.5t-56.5 -69.5q-26 -36 -42 -69l-8 -18q-3 -8 -5.5 -15.5t-2.5 -14.5q0 -11 10 -11q12 0 31 19t40 47.5 t42 62.5t38 64.5t27.5 53.5t10.5 29z" />
<glyph unicode="C" horiz-adv-x="593" d="M650 565q0 -23 -14.5 -52t-42 -58.5t-67 -58t-88.5 -50.5t-106.5 -35.5t-122.5 -13.5q-21 -36 -38 -75q-14 -33 -26.5 -73.5t-12.5 -81.5q0 -17 3 -37t12.5 -38.5t27 -33t45.5 -20.5q0 68 26.5 128t65.5 105t83.5 71t80.5 26q24 0 38 -6.5t22 -17.5t10.5 -25t2.5 -28 q0 -54 -28 -105.5t-70.5 -92.5t-92.5 -66t-93 -25q3 -26 13 -49.5t30 -41.5q2 -1 3 -3q2 -4 2 -6t-1 -3q-1 -2 -7 -2q-15 0 -29.5 10t-26 25.5t-18.5 34.5t-9 36q-45 3 -73.5 21.5t-45.5 43.5t-23.5 53t-6.5 52q0 38 11 78t24 72q15 38 34 74q-49 0 -85.5 11t-59.5 29.5 t-34.5 42.5t-11.5 50q0 32 16.5 64t47.5 57.5t76 41.5t103 16q11 0 27.5 -1t33 -4t31.5 -9t23 -16l2 -4q0 -4 -7 -6q-4 -1 -8 -1q-15 5 -37.5 6.5t-32.5 1.5q-56 0 -98.5 -13.5t-70.5 -35t-42 -48t-14 -52.5q0 -48 41.5 -74t117.5 -26q32 48 78 99.5t101 94.5t116.5 70.5 t122.5 27.5q38 0 55 -15t17 -39zM593 562q0 23 -18 23q-51 0 -100.5 -23.5t-94.5 -61t-83.5 -82.5t-67.5 -89q98 10 167 39.5t112.5 65t64 71t20.5 57.5zM503 189q0 17 -6.5 30.5t-26.5 13.5q-41 0 -78.5 -27.5t-66 -71t-45 -96t-16.5 -103.5q39 0 81.5 23t77.5 59 t57.5 81.5t22.5 90.5z" />
<glyph unicode="D" horiz-adv-x="633" d="M610 658q0 -1 -2 -4.5t-14 -10.5q-14 -8 -32 -21q-15 -11 -34.5 -29.5t-42.5 -47.5q62 -49 90 -108.5t28 -122.5q0 -64 -28 -125.5t-78 -109.5t-119 -77.5t-152 -29.5q-41 0 -74.5 4t-48.5 7q-14 -11 -33.5 -23t-43 -22t-50.5 -16t-55 -6q-52 0 -75.5 13t-23.5 30 q0 12 10.5 25t29.5 23.5t46.5 17t60.5 6.5q22 0 52 -2.5t70 -10.5q59 61 100.5 130.5t77.5 139.5t72 136t85 120q-25 14 -51 25q-23 9 -50.5 16.5t-53.5 7.5q-23 0 -46 -5t-41 -18t-29.5 -35.5t-11.5 -57.5q0 -15 3.5 -33t13 -37t26.5 -38.5t43 -38.5q2 -1 4 -3q3 -3 3 -6 q0 -2 -2 -4.5t-10 -2.5q-7 0 -22 3q-32 13 -58 37q-22 20 -40 54t-18 85q0 20 9 42.5t30 42.5t54.5 33t81.5 13q39 0 72 -8t57.5 -18t39.5 -18.5t19 -9.5q33 34 60 52.5t47 28.5q23 11 42 14q12 0 12 -7zM541 331q0 57 -19.5 106t-58.5 78q-34 -45 -57.5 -85.5t-42.5 -79 l-38 -77t-44 -79.5t-60 -86t-87 -98q11 -2 31 -4.5t47 -2.5q84 0 146 30t102.5 77t60.5 105.5t20 115.5zM59 -8q-26 5 -46 6.5t-37 1.5q-43 0 -68 -10.5t-25 -21.5q0 -8 13.5 -13.5t42.5 -5.5q35 0 65 13t55 30z" />
<glyph unicode="E" horiz-adv-x="699" d="M815 598q0 -12 -16 -24.5t-41 -22t-55.5 -16t-59.5 -6.5q-49 0 -86.5 8t-71 18t-66.5 18t-72 8q-55 0 -99 -15t-75.5 -37.5t-48.5 -47.5t-17 -45q0 -34 46 -34q14 0 33.5 5t41 14.5t42 23.5t36.5 31l4 4q3 3 7 3q2 0 3 -1l2 -2q1 -1 1 -6q0 -8 -12 -27t-35.5 -39 t-57 -35.5t-75.5 -15.5q-47 0 -63.5 17.5t-16.5 39.5q0 23 16 58t52 67t95 55t145 23q47 0 82 -6t68.5 -13t71.5 -13t89 -6q35 0 65.5 5t52.5 19q1 1 3 2t5 1t4 -1l2 -2q1 -1 1 -5zM651 163q0 -35 -20 -77.5t-55 -79t-83 -61.5t-105 -25q-33 0 -70 9.5t-72 22t-66 25 t-51 17.5q-25 -17 -46.5 -30.5t-44 -22.5t-48 -13.5t-58.5 -4.5q-41 0 -60 11.5t-19 28.5q0 13 11 26.5t32 24.5t51.5 18t69.5 7q21 0 47 -2t57 -8q36 34 67.5 77.5t54.5 83.5q27 47 50 94q-22 -1 -37 -4t-24 -6q-11 -4 -16 -8q-1 -1 -3 -1q-4 0 -4 5q0 3 4 10.5t15 15 t31 14t52 9.5q42 75 76 115.5t58 60.5q28 23 51 28q1 1 3 1h5q6 0 7 -3v-1q0 -2 -2 -5.5t-12 -11.5q-14 -10 -32 -34q-16 -20 -39 -56t-54 -96q8 -1 19.5 -2.5t40.5 -1.5t62 5t52 20q1 0 2 1t5 1q5 0 5 -5q0 -4 -4.5 -14.5t-16 -22t-31.5 -20t-50 -8.5q-35 0 -61.5 6 t-40.5 6q-11 -19 -29.5 -51t-36.5 -60q-15 -23 -34 -49q-17 -22 -40 -49t-53 -53q14 -3 41 -11.5t60.5 -17.5t70 -16.5t68.5 -7.5q50 0 89 19.5t66.5 47.5t42 59.5t14.5 55.5q0 19 -9 31t-29 12q-15 0 -36.5 -7.5t-43 -24.5t-41.5 -46t-34 -73q0 -2 -1 -5q-2 -5 -8 -5h-1 q-2 1 -5 5q-2 3 -3.5 8.5t-1.5 16.5q0 25 13 55t36 56.5t55.5 44.5t71.5 18t57 -20t18 -52zM90 3q-38 7 -69 7q-54 0 -81.5 -13.5t-27.5 -26.5q0 -7 8.5 -12t27.5 -5q31 0 57 7.5t45 17.5q22 11 40 25z" />
<glyph unicode="F" horiz-adv-x="564" d="M850 597q0 -12 -16 -24.5t-41 -22t-55.5 -16t-59.5 -6.5q-49 0 -86.5 8t-71 18t-66.5 18t-72 8q-55 0 -99 -15t-75.5 -37.5t-48.5 -47.5t-17 -45q0 -34 46 -34q14 0 33.5 5t41 14.5t42 23.5t36.5 31l4 4q3 3 7 3q2 0 3 -1l2 -2q1 -1 1 -6q0 -8 -12 -27t-35.5 -39 t-57 -35.5t-75.5 -15.5q-47 0 -63.5 17.5t-16.5 39.5q0 23 16 58t52 67t95 55t145 23q47 0 82 -6t68.5 -13t71.5 -13t89 -6q35 0 65.5 5t52.5 19q1 1 3 2t5 1t4 -1l2 -2q1 -1 1 -5zM603 333q0 -6 -4.5 -17t-16.5 -21.5t-31.5 -18.5t-49.5 -8q-32 0 -56.5 6t-44.5 6 q-5 -12 -13.5 -29.5t-19 -37.5t-21 -39.5t-20.5 -35.5q7 -1 24.5 -4t36.5 -11t33.5 -21.5t14.5 -34.5q0 -12 -7 -12q-2 1 -3.5 2t-3.5 2t-2 2q-8 7 -21.5 14.5t-29 13.5t-32.5 10t-32 4q-12 -21 -40.5 -56t-71 -68t-96.5 -57.5t-116 -24.5q-14 0 -29 2.5t-27 9.5t-19.5 17.5 t-7.5 27.5q0 39 35.5 73t89.5 59.5t119.5 40.5t125.5 15q7 13 13 24.5t11 22.5q12 26 23 46q6 11 11 22q3 7 6 13l6 12q-44 -2 -60.5 -10t-18.5 -9q-4 0 -4 7q0 3 5.5 10t17.5 14.5t31 14t47 8.5q20 39 45.5 76t52 65.5t52 46t44.5 17.5q2 0 5 -0.5t4 -3.5q0 -2 -2.5 -5.5 t-13.5 -11.5q-16 -12 -35 -37q-17 -21 -39.5 -56.5t-50.5 -92.5q5 0 22.5 -1.5t40.5 -1.5q36 0 57 4t33 9t17 9t10 4q6 0 6 -5zM247 107q-63 0 -116 -15t-92 -36.5t-60.5 -45.5t-21.5 -43q1 -10 7 -18q5 -7 15.5 -12t30.5 -5q54 0 97.5 27.5t74.5 60.5q36 39 65 87z" />
<glyph unicode="G" horiz-adv-x="508" d="M580 571q0 -25 -18.5 -51.5t-50.5 -51t-74 -46.5t-88 -39.5t-94.5 -28t-92.5 -12.5q-4 -15 -7.5 -25.5t-3.5 -25.5q0 -9 3 -22.5t13.5 -26t30.5 -21t54 -8.5q20 0 39.5 2.5t42.5 7.5q36 56 68 89t59 50t47.5 22t31.5 5q12 0 18.5 -4t9.5 -9q4 -6 4 -13q0 -24 -17 -48.5 t-44.5 -46.5t-62 -39t-68.5 -25q-12 -20 -25.5 -45t-27.5 -54q32 -2 58 -10q22 -7 40 -19t18 -32q0 -7 -3 -16q-1 -3 -4 -3q-1 0 -5 2q-2 1 -3 2q-23 21 -55.5 31t-62.5 14q-20 -38 -57.5 -81.5t-86.5 -80.5t-108 -61.5t-122 -24.5q-31 0 -53.5 13t-22.5 45q0 41 34.5 81.5 t91.5 72.5t130.5 52t151.5 20q16 26 28.5 48t17.5 32q-18 -3 -34 -4.5t-27 -2.5q-13 -1 -24 -1q-47 0 -74.5 12.5t-42 29.5t-18.5 35.5t-4 31.5q0 17 2.5 27t6.5 24q-53 5 -83 18.5t-45 29.5t-18.5 31.5t-3.5 23.5q0 38 25 69t62 53t80 34t80 12q59 0 59 -13q0 -5 -6.5 -6.5 t-11.5 -1.5q-42 0 -83.5 -12t-74.5 -33t-53.5 -48.5t-20.5 -58.5q0 -18 10 -30.5t25.5 -20.5t34.5 -12t36 -4q34 68 89 115.5t113 77t110.5 43t81.5 13.5q25 0 40 -5.5t22.5 -14t10 -17t2.5 -14.5zM526 561q0 7 -7.5 17.5t-36.5 10.5q-38 0 -85.5 -19.5t-92.5 -50t-80 -69 t-49 -76.5q62 3 125 23.5t113 48t81.5 59t31.5 56.5zM525 342q0 3 -1 6q-2 6 -9 6q-5 0 -16 -5t-26 -17.5t-33 -34t-37 -54.5q19 7 38 16t35.5 21.5t29.5 27.5t19 34zM249 78q-69 -5 -120.5 -19t-88.5 -32.5t-60.5 -39.5t-37 -40t-18.5 -34t-5 -21q0 -20 14.5 -26t28.5 -6 q36 0 74 15t75.5 43.5t73 68.5t64.5 91z" />
<glyph unicode="H" horiz-adv-x="667" d="M900 597q0 -22 -15 -50.5t-45 -55t-76 -48t-108 -29.5q-15 -23 -31 -49.5t-32 -56.5q8 -1 21 -3.5t25.5 -7.5t21.5 -13.5t9 -22.5q0 -5 -2.5 -11.5t-7.5 -6.5q-2 0 -4 2l-1 1q-2 5 -8.5 9t-14.5 7q-9 4 -18 7l-18 4t-19 4q-25 -47 -44 -96q-17 -42 -30.5 -92t-13.5 -98 q0 -27 5 -51t18 -42t34 -28.5t54 -10.5q27 0 59 13h2q1 0 2.5 0.5t2.5 0.5q7 0 7 -6q0 -9 -8.5 -16.5t-21 -13t-27.5 -8.5t-29 -3q-40 0 -69 14.5t-48 38.5t-27.5 54t-8.5 62q0 48 14 98.5t31 92.5q19 48 44 94q-43 -1 -83.5 -8.5t-73.5 -16.5q-6 -11 -22.5 -40t-41 -65.5 t-56 -75.5t-67.5 -71.5t-76 -54t-81 -21.5q-19 0 -30 9t-11 29q0 45 33 92t83.5 89t109 74.5t109.5 49.5q27 49 49.5 94t38 82.5t24 65.5t8.5 41q0 24 -10 37.5t-24.5 20t-31.5 8t-31 1.5q-48 0 -107.5 -18.5t-111.5 -51t-87.5 -75.5t-35.5 -92q0 -13 4 -25.5t14.5 -22.5 t27.5 -16.5t42 -6.5q10 0 31.5 2.5t49.5 12.5t60.5 30.5t64.5 57.5q1 1 3 2t5 1q4 0 4 -4q0 -3 -1 -6q-10 -31 -35 -56t-57 -42.5t-67 -27t-66 -9.5q-64 0 -95 28.5t-31 72.5q0 46 33.5 95t89.5 89.5t129.5 66.5t153.5 26q6 0 27 -2t44 -10.5t41 -27t18 -51.5q0 -6 -2.5 -24 t-12.5 -50.5t-30.5 -80.5t-56.5 -115q21 5 35.5 8t30 5t35.5 3.5t52 3.5q34 61 64 106q-19 5 -30 12t-16 15q-6 9 -8 19q4 11 10 11q3 0 5 -2l2 -2q14 -11 29 -15.5t31 -6.5q41 52 82 92q18 17 37.5 33.5t40.5 29.5t42 20.5t40 7.5q13 0 19.5 -5t9.5 -11q4 -7 4 -17z M852 577q0 4 -1 8q-2 8 -9 8q-17 0 -43.5 -22t-52.5 -48q-30 -31 -62 -71q20 2 48.5 14t55 29t45.5 38.5t19 43.5zM294 231q-84 -37 -134.5 -77.5t-78 -76t-36.5 -61t-9 -32.5q0 -11 6.5 -14t13.5 -3q18 0 37.5 11.5t40 30t40 42t37.5 48.5q42 58 83 132z" />
<glyph unicode="I" horiz-adv-x="419" d="M708 669q0 -22 -8 -41t-21 -34t-29.5 -27t-34.5 -21q-41 -21 -93 -34q-6 -10 -14.5 -24t-20 -35t-26 -51t-32.5 -72q-29 -69 -72 -136.5t-97 -121.5t-117 -87t-132 -33q-17 0 -32.5 3t-27 10.5t-18 19.5t-6.5 31q0 48 29 87t70 67t85.5 43.5t75.5 15.5q20 0 23 -4.5 t3 -6.5q0 -4 -4 -6q-2 -1 -4 -1q-43 -6 -82.5 -26t-69.5 -47.5t-47.5 -58.5t-17.5 -57q0 -20 12.5 -27.5t29.5 -7.5q85 0 158 67.5t136 193.5q23 47 45.5 90.5t40.5 78t30 57t15 28.5q-63 -7 -104 -24t-66 -37t-35 -40t-10 -33q0 -7 1 -9q0 -11 -9 -11q-2 0 -7 2t-10.5 7.5 t-9.5 14.5t-4 23q0 38 27 62.5t67.5 40t89 24t91.5 14.5q28 46 61 82q14 15 30 30t33.5 26.5t36.5 18.5t38 7q11 0 22 -5.5t11 -25.5zM663 650q0 5 -2.5 8t-11.5 3q-12 -1 -28 -13q-14 -11 -33.5 -33t-45.5 -65q35 10 61 25q23 13 41.5 31t18.5 44z" />
<glyph unicode="J" horiz-adv-x="494" d="M735 673q0 -32 -18.5 -58.5t-46.5 -46t-61.5 -32t-62.5 -17.5q-6 -12 -12.5 -25.5t-13.5 -27.5q-18 -41 -41 -87q-20 -39 -45 -88.5t-54 -102.5q18 -5 36 -19t18 -43q0 -9 -2 -12t-4 -3q-3 0 -7 4l-4 4q-10 14 -24.5 22.5t-31.5 13.5q-30 -54 -61.5 -102t-58.5 -83 q-31 -39 -63.5 -74t-67 -60.5t-71.5 -40.5t-77 -15q-32 0 -49 16t-17 55q0 43 18 85.5t49 80.5t72 71t88.5 57t98 38t99.5 14q18 32 35 64t32 63l35 70t28 55q14 27 26 50l1 2q1 2 2 3.5t2 3.5q-4 0 -7.5 -0.5t-5.5 -0.5q-3 0 -4 -1q-72 -9 -112 -29t-59.5 -42t-23.5 -41 t-4 -27q0 -11 -9 -11q-2 0 -7 2.5t-10.5 8.5t-9.5 15.5t-4 23.5q0 38 28.5 63t70.5 40.5t90.5 23t87.5 10.5q28 46 60 82q27 31 62.5 56.5t74.5 25.5q13 0 24 -6.5t11 -27.5zM688 655q0 13 -15 13q-5 0 -12.5 -2t-20 -13t-30 -33t-43.5 -63q35 9 61 23q23 12 41.5 30.5 t18.5 44.5zM301 162q-69 0 -131 -28.5t-109 -73t-75 -97t-28 -100.5q0 -26 11.5 -34.5t23.5 -8.5q23 0 48.5 14.5t51.5 38.5t51.5 55t48.5 63q55 76 108 171z" />
<glyph unicode="K" horiz-adv-x="577" d="M831 592q0 -7 -13 -7q-24 -1 -50.5 -8t-53.5 -18t-53 -24.5t-50 -27.5q-55 -33 -110 -74q-49 -38 -79 -64.5t-46 -44t-21.5 -26.5t-6.5 -11q14 2 20.5 3t13.5 1q48 0 67 -28.5t23 -91.5q0 -34 2 -68q2 -29 3.5 -62t6.5 -61q6 -38 18.5 -66.5t31.5 -39.5q5 -3 5 -7 q0 -5 -3 -6q-2 -1 -3 -2q-40 0 -62.5 23.5t-33 60t-12.5 80t-2 83.5q0 55 -3 85.5t-10 45.5t-17.5 18t-25.5 3t-37 -5q-13 -27 -31.5 -62.5t-42 -73t-52 -74t-61 -65t-68.5 -46.5t-74 -18q-23 0 -34.5 10.5t-11.5 36.5q0 32 16 65t42.5 63.5t60.5 59t70 52t71.5 41 t64.5 26.5q36 66 58 112.5t34 76.5q14 35 21 59q4 12 4 25q0 15 -6.5 24.5t-16 14t-20 6t-18.5 1.5q-50 0 -104 -22t-99 -55.5t-74.5 -72.5t-29.5 -73q0 -12 5.5 -20t14 -12.5t19 -6t20.5 -1.5q21 0 64.5 18t94.5 63q1 1 3 2q4 2 6 2q4 0 4 -5q0 -4 -1 -6q-13 -39 -41 -62.5 t-57.5 -35.5t-55 -16t-35.5 -4q-50 0 -66.5 20t-16.5 48q0 41 31.5 88.5t83.5 88.5t119 68.5t138 27.5q14 0 30.5 -2t30 -8.5t23 -18.5t10.5 -31q1 -15 -7 -51.5t-41 -110.5v-2q0 -3 3 -3q1 0 4 3l16.5 16t44.5 41t64.5 53.5t76.5 53.5t80 41.5t75 16.5q21 0 41.5 -6.5 t20.5 -20.5zM261 228q-78 -35 -126 -73.5t-75 -73.5t-36 -62t-9 -39q0 -17 7.5 -21t13.5 -4q17 0 35.5 12t37.5 31t37.5 44t35.5 50q40 60 79 136z" />
<glyph unicode="L" horiz-adv-x="749" d="M712 239q0 -45 -24.5 -98t-66 -99.5t-97 -78t-117.5 -31.5q-34 0 -68 8.5t-67.5 20.5t-67.5 24.5t-67 20.5q-3 -2 -18.5 -13.5t-40.5 -24t-57 -23t-69 -10.5q-48 0 -72.5 16t-24.5 36q0 25 38.5 47.5t119.5 22.5q24 0 52 -2.5t62 -10.5q35 35 64.5 78t52 81t35.5 66 t15 32q-31 -6 -70 -6q-37 0 -73 7.5t-64.5 24t-46 43t-17.5 64.5q0 50 26.5 83.5t64 53t78 27.5t68.5 8t49.5 -4t36.5 -9q18 -6 32 -14q5 -5 5 -9q0 -6 -10 -6q-2 0 -3 0.5t-2 0.5h-2q-22 7 -44.5 9t-39.5 2q-55 0 -95 -15.5t-66 -38t-38.5 -49t-12.5 -47.5q0 -32 15 -52 t37.5 -31t49 -14.5t50.5 -3.5q22 0 38.5 1.5t27.5 3.5q13 2 23 4q15 25 33 59t39.5 70.5t47.5 72.5t57 65t68 46.5t80 17.5h1q2 0 8 -1t12.5 -5.5t11.5 -14.5t5 -27q0 -23 -17.5 -63t-55 -84t-96 -85t-139.5 -67q-24 -42 -41.5 -74.5t-38 -64t-47.5 -65.5t-69 -79 q1 0 24 -8.5t58 -18t78 -18t85 -8.5q62 0 109.5 25t80 61.5t49 78.5t16.5 78q0 34 -15.5 56.5t-47.5 22.5q-18 0 -43.5 -10t-49 -32.5t-40 -58.5t-16.5 -89q0 -16 3 -46q0 -4 -1 -8t-5 -4q-1 0 -7.5 3t-14 11.5t-13.5 22.5t-6 37q0 44 18.5 81t47 65t63 43.5t67.5 15.5 q54 0 78 -27t24 -69zM625 609q0 13 -5.5 17t-13.5 4q-25 0 -50.5 -19t-48.5 -48t-43.5 -62t-35 -61.5t-23.5 -46.5t-9 -16l-11 -22q68 26 114 64.5t74 77t40 70t12 42.5zM95 16q-24 5 -43.5 7t-36.5 2q-53 0 -78.5 -12t-25.5 -25q0 -9 12.5 -15.5t37.5 -6.5q41 0 75 16 t59 34z" />
<glyph unicode="M" horiz-adv-x="879" d="M995 664q0 -6 -7 -17q-59 -81 -107 -171q-21 -38 -41 -82t-37 -91.5t-29.5 -97.5t-17.5 -101q-2 -11 -4 -25q-2 -12 -3 -28t-1 -34q0 -38 8.5 -77.5t34.5 -65.5q3 -2 3 -7q0 -6 -5 -6q-22 0 -39 15t-29 39.5t-18.5 57t-6.5 66.5q0 35 8 76.5t21 85.5t29.5 88t33.5 85 q40 96 91 194q2 3 2 7q0 3 -3 3t-5 -1t-3 -2q-33 -19 -61.5 -41t-54.5 -45q-34 -29 -62.5 -57.5t-52.5 -54.5v-21q0 -80 -19 -143t-46.5 -106.5t-59 -66.5t-57.5 -23q-4 0 -10.5 1t-12.5 6t-10 15.5t-4 28.5q0 29 10 59t30 64.5t51.5 76.5t74.5 96q0 42 -3 77t-8 61 q-5 31 -12 57q-3 7 -5 7q-1 0 -3 -2q-1 -1 -1 -3q-39 -77 -81 -153t-86.5 -144.5t-91.5 -127t-95.5 -101.5t-99 -67t-101.5 -24q-48 0 -73.5 17.5t-37.5 40.5t-14 43.5t-2 26.5q0 59 23.5 108t61 84t83.5 54.5t91 19.5q42 0 67.5 -15t25.5 -35q0 -2 -0.5 -5.5t-5.5 -3.5 q-6 0 -11.5 3t-13 6.5t-19.5 6.5t-31 3q-31 0 -70.5 -17t-74.5 -48t-59 -74.5t-24 -96.5q0 -38 20 -62.5t68 -24.5q27 0 60 10.5t71.5 38.5t84.5 77t99.5 126t116.5 186t135 257q0 2 2 4q4 4 7 4q1 0 3 -1q3 -2 7 -8q10 -34 20 -74q8 -35 16 -79.5t12 -95.5q26 26 55 53.5 t62 56.5q42 36 82 65q17 12 36 24.5t38 23t37 17.5t33 10q1 1 2 1h4q3 0 6 -1t3 -6zM584 312q-28 -35 -50 -69.5t-37 -64.5t-22.5 -53.5t-7.5 -38.5q0 -14 5 -17t10 -3q19 0 37.5 27.5t32.5 66t23 80.5t9 72z" />
<glyph unicode="N" horiz-adv-x="683" d="M973 614q0 -32 -22 -72t-59.5 -75.5t-87.5 -60t-105 -24.5q-36 -63 -71 -132t-63 -128q-33 -69 -61 -136q-5 -14 -9 -22.5t-7 -13.5q-4 -6 -7 -9q-2 -1 -6 -1q-10 0 -18.5 12t-14.5 27q-7 18 -13 40q-17 71 -25.5 133.5t-11.5 116.5q-57 -92 -111.5 -154t-104.5 -99 t-95 -52.5t-82 -15.5q-44 0 -68 18t-35 39q-13 25 -15 56q0 69 27.5 122t67.5 89.5t85.5 55.5t81.5 19q20 0 40.5 -6.5t38.5 -23.5q2 -2 5 -6q5 -7 5 -14t-7 -11q-2 1 -5 2t-13 5q-15 7 -29 9.5t-28 2.5q-40 0 -80.5 -22t-72 -57t-51.5 -77.5t-20 -84.5q0 -34 18.5 -59 t65.5 -25q34 0 75 17t88.5 57.5t102 107.5t114.5 167q0 38 2 67.5t4 50.5q3 25 5 42q13 63 30.5 99t34 54t30 22t18.5 4q12 0 18.5 -6t9.5 -15t3.5 -20t0.5 -22q0 -24 -9 -54.5t-23.5 -64t-33 -68t-37.5 -67.5q1 -5 1 -10.5v-10.5q3 -53 7 -104q4 -44 11 -91.5t19 -82.5 q1 -1 2 -3q2 -4 5 -4q4 0 8 8q6 16 16 39q8 20 21.5 48.5t33.5 66.5q12 25 27 54q13 25 30.5 58t37.5 68q-6 0 -16.5 5t-21 13.5t-18.5 20t-8 24.5q0 14 5.5 21.5t9.5 7.5q5 0 9 -4q2 -2 2 -5q11 -23 26.5 -33t32.5 -15q22 38 51 79t62 75t68 56.5t68 22.5q16 0 24 -6 t12 -14q4 -9 5 -21zM920 586q-2 12 -5.5 14.5t-12.5 2.5q-10 0 -22 -6t-25 -16t-25.5 -22.5t-24.5 -25.5q-27 -31 -56 -71q-8 -11 -14.5 -22t-14.5 -23q33 0 68.5 19.5t65 47t48 56t18.5 46.5zM513 596q0 7 -2 14.5t-8 7.5q-13 0 -24.5 -22t-19 -53.5t-12 -66t-4.5 -59.5 l9 17q18 30 31 59q11 25 20.5 53t9.5 50z" />
<glyph unicode="O" horiz-adv-x="523" d="M558 487q0 -65 -17 -132t-47 -130t-70.5 -118.5t-89 -96.5t-102 -65t-108.5 -24q-37 0 -62.5 12t-41 32t-22.5 46.5t-7 56.5q0 45 10 82.5t21 66.5q13 33 30 61l-1 16q-3 56 23.5 118t75 114t114 86t139.5 34q22 0 49 -5.5t50.5 -22t39.5 -48t16 -83.5zM505 484 q0 58 -25.5 91.5t-94.5 33.5q-34 0 -68.5 -12t-66 -32.5t-58.5 -47.5t-47.5 -55.5t-32 -57.5t-11.5 -54q32 38 61.5 59.5t52.5 31.5t38 12t17 2q4 0 7.5 -1t3.5 -5q0 -7 -8 -11.5t-19 -10.5q-24 -13 -50 -35q-22 -19 -48 -48t-50 -74q4 -10 14 -21.5t30 -11.5q8 0 12 1 q1 1 3 1h5q7 0 7 -6q0 -7 -13.5 -20.5t-39.5 -13.5q-28 0 -43 17q-9 -22 -17 -48q-7 -22 -12.5 -49t-5.5 -56q0 -22 5 -41t16.5 -33.5t30 -22.5t45.5 -8q45 0 90 26t85 69.5t74.5 98.5t59.5 113.5t39 115.5t14 103z" />
<glyph unicode="P" horiz-adv-x="605" d="M740 449q0 -58 -27.5 -105.5t-72.5 -81.5t-101.5 -52t-114.5 -18q-22 0 -43 3q-16 -29 -31.5 -56.5t-30.5 -50.5q21 -8 33.5 -20.5t12.5 -26.5q0 -7 -5 -7q-2 0 -6 2q-2 1 -4 1q-24 17 -51 23q-33 -45 -68.5 -76.5t-70 -51t-66.5 -28t-59 -8.5q-82 0 -82 50q0 34 29 62.5 t71.5 49t91 31.5t88.5 11h16.5t14.5 -1q16 27 32 56t30 56q-14 5 -25 13q-10 7 -18 18t-8 26q0 5 2 9q4 8 9 8q7 0 12 -7q3 -4 5 -8q12 -11 20.5 -16t18.5 -10q27 56 58 105.5t63 87.5t63.5 60t58.5 22q2 0 5.5 -0.5t3.5 -4.5q0 -3 -6 -9q-3 -3 -7 -5q-26 -18 -55 -52 q-25 -29 -57.5 -80t-67.5 -131l-4 -9q8 -2 16 -2h16q48 0 93 15.5t80.5 45t57 72t21.5 96.5q0 33 -12.5 55.5t-32 38t-44 24.5t-49 13.5t-46 6t-35.5 1.5q-77 0 -144 -18.5t-116 -47.5t-77 -64.5t-28 -69.5q0 -23 13.5 -32t47.5 -9q18 0 42.5 6.5t50.5 19.5t53 33t49 47l4 4 q3 3 7 3t4 -11q-4 -26 -27.5 -53.5t-57 -49.5t-72.5 -36t-73 -14q-49 0 -70.5 19.5t-21.5 51.5q0 48 32.5 93t90 80.5t137.5 57t174 21.5q53 0 100 -12t82.5 -34.5t56.5 -55.5t21 -74zM246 69q-69 0 -113.5 -14.5t-70.5 -33.5t-36 -38t-10 -27q0 -15 12 -20t26 -5 q42 0 76.5 21.5t60.5 47.5q30 31 55 69z" />
<glyph unicode="Q" horiz-adv-x="577" d="M604 487q0 -63 -16.5 -122t-44 -111t-63.5 -96.5t-73.5 -79.5t-75 -60t-68.5 -37q28 -21 61 -38q28 -14 64.5 -25.5t78.5 -11.5h12.5t15.5 1q2 0 5 -1t3 -4q0 -11 -11 -18.5t-26 -12t-29.5 -6.5t-21.5 -2q-31 0 -58.5 11t-51.5 26.5t-45 33t-38 29.5q-32 -12 -67.5 -19.5 t-77.5 -7.5q-66 0 -98 19t-32 42t31 41t94 18q23 0 50.5 -8.5t51.5 -19.5q28 -12 56 -28q55 27 100 65t80 82t60.5 90.5t42 91.5t24.5 85t8 70q0 54 -23.5 85t-85.5 31q-40 0 -78 -17.5t-71.5 -46.5t-62 -68t-49 -81.5t-32 -86.5t-11.5 -84q0 -13 1.5 -30t8.5 -32t22 -25 t41 -10q4 0 27 6t50.5 27t52.5 63t34 114q0 3 2 6q3 5 7 5q10 0 12.5 -13t2.5 -29q0 -42 -19 -82t-49.5 -70.5t-70.5 -49t-82 -18.5q-29 0 -48.5 11t-31.5 28.5t-17 39.5t-5 44q0 56 16.5 110.5t44.5 102.5t66 89t80.5 71t88 46.5t88.5 16.5q21 0 47.5 -5.5t49 -21.5 t38 -45.5t15.5 -77.5zM190 -16q-40 23 -70 32t-53 9q-30 0 -45.5 -9t-15.5 -20t17 -20.5t54 -9.5q23 0 43 2.5t36 6.5q18 4 34 9z" />
<glyph unicode="R" horiz-adv-x="568" d="M702 537q0 -12 -6.5 -41.5t-35.5 -67.5t-88.5 -80.5t-164.5 -81.5q-1 0 -2 -2q-2 -4 -2 -9q20 -89 49 -164q12 -32 27.5 -64t33.5 -60t38.5 -49.5t44.5 -31.5q2 0 4 -2q3 -3 3 -7q0 -3 -3 -6t-14 -3q-39 0 -72.5 27.5t-61 68.5t-48 90.5t-35 93.5t-21.5 77.5t-7 42.5 q0 6 2 8.5t4 4.5q3 2 6 2q95 26 152.5 62t89 70.5t42 62.5t10.5 39q0 22 -12.5 30t-30.5 8q-27 0 -55.5 -10t-57 -26t-56 -35.5t-53.5 -39.5q-6 -26 -24.5 -72.5t-45.5 -101.5t-60 -112t-68.5 -103t-71 -75.5t-66.5 -29.5q-14 0 -21 6.5t-7 30.5q0 34 23.5 89t66 119 t100.5 130.5t127 123.5q5 12 9 27q3 13 5.5 29t2.5 33q0 25 -9 40.5t-22 23.5t-28 11t-28 3q-33 0 -70 -11t-72.5 -29t-67.5 -41.5t-56.5 -49t-39 -50.5t-14.5 -47q0 -14 5.5 -22t13 -11.5t16 -4.5t14.5 -1q25 0 50.5 10t47.5 22q26 14 49 32q1 2 3 3q4 2 7 2t5 -2q1 0 1 -1 v-5q0 -18 -16.5 -37t-41.5 -35t-55 -26t-56 -10q-16 0 -32 4t-28.5 12.5t-20 22.5t-7.5 34q0 25 15.5 55.5t43 61t65 59t80.5 50.5t89.5 35.5t93.5 13.5q18 0 37.5 -3.5t36 -13t27 -26t10.5 -42.5q0 -17 -1 -33.5t-4 -38.5q26 17 54.5 35.5t58.5 33.5t61 24.5t62 9.5 q13 0 25.5 -2.5t23 -9t17.5 -18t7 -29.5zM310 381q-54 -51 -94 -101t-68 -90q-33 -47 -55 -89q-17 -33 -22 -50.5t-5 -25.5q0 -7 2 -8.5t4 -1.5q10 0 23.5 13.5t27.5 29.5q16 18 32 42q56 85 94 156.5t61 124.5z" />
<glyph unicode="S" horiz-adv-x="565" d="M622 565q0 -27 -16.5 -44t-42 -27.5t-54.5 -14.5t-55 -4q-48 0 -94.5 13t-73.5 30q-17 -14 -27.5 -30t-10.5 -36q0 -25 20 -42.5t50.5 -32.5t66 -29.5t66 -33.5t50.5 -45t20 -65q0 -41 -28.5 -90t-79.5 -92t-122 -71.5t-157 -28.5q-30 0 -64 7t-62.5 22.5t-47.5 40.5 t-19 61q0 38 22.5 74t60 64t85.5 45t99 17q8 0 27 -2t39 -9.5t35.5 -23t15.5 -43.5t-13 -53t-30 -43.5t-35 -29.5t-29 -11t-11 6q0 3 2 7q1 2 2 3q23 24 41 52t18 55q0 17 -7 27.5t-17 16t-22 7.5t-21 2q-63 0 -103 -20t-62.5 -46.5t-31 -53t-8.5 -39.5q0 -35 19.5 -54.5 t45 -28.5t51 -11t36.5 -2q64 0 120.5 22t98.5 56t66.5 75t24.5 78q0 31 -20.5 52.5t-50.5 38t-66 31t-66 32t-50.5 40t-20.5 55.5q0 22 10.5 41.5t22.5 33.5q14 17 32 31q-25 25 -30.5 46.5t-5.5 35.5q0 8 3 17.5t8.5 18.5t13 15t16.5 6q3 0 5.5 -1.5t2.5 -8.5q0 -5 -3 -16 t-3 -21q0 -11 5 -29t23 -38q55 35 108.5 46t93.5 11q42 0 68 -6.5t41 -15.5t20 -20t5 -20zM567 561q0 3 -2 8.5t-9.5 10.5t-22 8.5t-40.5 3.5q-37 0 -68.5 -7.5t-54.5 -17.5q-27 -11 -49 -25q20 -9 41 -17q18 -7 41 -12t47 -5q33 2 59 8q22 5 40 15.5t18 29.5z" />
<glyph unicode="T" horiz-adv-x="554" d="M816 519q0 -5 -3 -13.5t-14 -20.5q-19 -22 -42 -34.5t-44.5 -18.5t-40 -7t-29.5 -1q-34 0 -61 4t-52.5 13.5t-51 27t-57.5 44.5q-42 -31 -93.5 -79t-98.5 -115q13 -3 26.5 -5t26.5 -2q15 0 18 2t10 2q6 0 6 -6q0 -8 -8 -13.5t-19 -9t-22.5 -5t-18.5 -1.5q-21 0 -41 5 q-23 -35 -41 -73q-16 -32 -28.5 -72t-12.5 -79q0 -20 4.5 -38.5t14.5 -33t26.5 -24t41.5 -10.5q-1 6 -1 12v12q0 78 27 139t65 102.5t79 63.5t69 22q20 0 32 -7t19 -18.5t9.5 -25t2.5 -26.5q0 -41 -13 -78t-34.5 -69t-49 -58.5t-55.5 -46.5t-54 -33t-46 -17q5 -32 19 -49 t26 -25l3 -3q3 -3 3 -6q-2 -6 -15 -6q-24 0 -39.5 12.5t-24.5 27.5q-11 18 -16 41h-13q-48 0 -76.5 18t-43.5 42t-19 49t-4 38q-1 44 12 85t30 74q19 39 44 73q-8 2 -14.5 2h-13.5q-29 0 -50.5 -5.5t-35.5 -13.5q-17 -9 -29 -20q-5 -5 -10 -5q-6 0 -6 7q0 6 1 8l2 4 q12 19 31 33q17 12 42.5 22t60.5 10q11 0 23 -1t25 -4q55 74 114 122t107 77q-28 27 -56 41.5t-52 22t-41 9t-23 1.5q-55 0 -98.5 -15.5t-72.5 -38t-44.5 -47t-15.5 -42.5q0 -13 6 -21.5t15 -12.5t20 -5.5t21 -1.5q30 0 59 11.5t52 25.5q27 16 52 36l4 4q3 3 8 3t5 -7 q0 -9 -14.5 -28t-41.5 -37.5t-65.5 -33t-86.5 -14.5q-45 0 -66 19.5t-21 45.5q0 21 18.5 53.5t56.5 63.5t96 53.5t137 22.5q9 0 28 -2t45 -10.5t57.5 -24.5t65.5 -45l39 18q8 4 15 5q7 3 12 3.5t8 0.5q6 0 8 -2l2 -2q2 -2 2 -3q0 -2 -4 -6q-2 -2 -4 -3q-6 -3 -15 -7 q-8 -4 -18 -9.5t-23 -13.5q42 -39 86.5 -64t98.5 -25q13 0 32.5 2.5t40.5 10t41 21.5t35 37q1 2 3 4q3 3 8 3q3 0 5 -6q1 -3 1 -6zM471 220q0 21 -7 36.5t-35 15.5q-31 0 -62 -24.5t-56 -63.5t-41 -88.5t-16 -99.5v-18t2 -19q32 5 69.5 29.5t69.5 61t54 81t22 89.5z" />
<glyph unicode="U" horiz-adv-x="538" d="M737 627q0 -24 -15 -56t-39.5 -67.5t-56 -72t-63 -71.5t-61.5 -65.5t-52 -52.5q-9 -28 -16 -60q-6 -27 -11.5 -59.5t-5.5 -64.5q0 -18 2.5 -37.5t8.5 -38t17.5 -35t29.5 -26.5q2 -1 4 -3q3 -3 3 -6q0 -2 -1 -3q-2 -1 -5 -3q-4 -3 -14 -3q-25 0 -43.5 15.5t-31 39 t-18.5 52.5t-6 56q0 21 2.5 40t4.5 33q3 17 6 31q-52 -52 -104 -92q-22 -17 -46.5 -33.5t-49.5 -29.5t-49.5 -21t-46.5 -8q-13 0 -21.5 5.5t-13.5 14.5t-7.5 19.5t-2.5 20.5q0 41 19.5 89t48.5 98t63 99t63 92.5t48.5 78t19.5 55.5q0 20 -16 26.5t-33 6.5q-32 0 -66.5 -10 t-68 -26.5t-63.5 -38t-53 -44.5t-36.5 -46.5t-13.5 -43.5t14 -30t39 -10q23 0 62 13.5t85 59.5q1 2 3 3q4 2 6 2q5 0 5 -6q0 -19 -19.5 -41t-47.5 -41t-59.5 -31t-55.5 -12q-44 0 -64 18.5t-20 47.5q0 27 15.5 58t42.5 61.5t63.5 58t78.5 48.5t87.5 33.5t90.5 12.5 q12 0 27 -2t28 -8t22 -17t9 -29q0 -25 -19.5 -63.5t-48.5 -84t-62.5 -95.5t-62.5 -97.5t-48.5 -90t-19.5 -74.5q0 -11 5.5 -20t23.5 -9t49 17.5t67.5 44.5t74.5 60t71 64q23 80 53.5 143t58.5 108q33 52 66 92q25 32 46.5 50.5t38.5 29t30 13.5t21 3q17 0 25.5 -9.5 t8.5 -25.5zM698 607q0 10 -11 10q-2 0 -15 -7t-42 -42q-27 -34 -54 -74q-23 -35 -50 -81.5t-50 -102.5q33 34 71.5 78t72 86.5t56 78.5t22.5 54z" />
<glyph unicode="V" horiz-adv-x="525" d="M796 634q0 -15 -8.5 -33t-23 -38.5t-32.5 -41t-37 -39.5q-45 -45 -102 -92q10 -11 20 -16.5t19 -8.5q11 -4 20 -5q7 -1 7 -6q0 -7 -5 -11t-11.5 -6t-13 -2.5t-10.5 -0.5q-14 0 -25.5 3t-19.5 8q-10 5 -17 11q-81 -75 -147 -150.5t-114 -136.5q-55 -71 -99 -138 q-6 -16 -12 -20.5t-10 -4.5q-9 0 -14.5 5t-9 11.5t-5 13t-1.5 9.5q0 8 1 11t1 5q53 146 81.5 249.5t42.5 172.5q16 80 18 134q0 22 -5.5 35.5t-13.5 21.5t-18.5 11t-20.5 3q-33 0 -76 -23t-82 -57.5t-65.5 -74.5t-26.5 -73q0 -32 37 -32q11 0 26.5 3t35.5 11.5t44.5 24.5 t51.5 42q0 1 2 2t7 1q7 0 7 -7q0 -16 -18 -38.5t-46 -43t-61.5 -35t-63.5 -14.5q-42 0 -58 13t-16 43t15.5 64t41 67t59 64t70 54t73.5 37t69 14q41 0 64 -24.5t23 -81.5q0 -39 -7 -86t-18 -95t-23.5 -93.5t-23.5 -81t-18 -57.5t-7 -23q0 -7 4 -7t10 9q44 51 91 102 q40 44 88 94.5t95 95.5q-15 25 -15 56q0 41 18.5 82.5t51 75t76.5 54t94 19.5q22 0 29 -11.5t7 -23.5zM742 611q0 11 -7 14t-14 3q-28 0 -55 -18.5t-48 -45.5t-34 -57.5t-13 -55.5q0 -17 5 -32q46 41 83 78q16 16 31 32.5t26.5 31.5t18.5 28t7 22z" />
<glyph unicode="W" horiz-adv-x="784" d="M993 612q0 -19 -12.5 -44t-32 -52t-42 -53.5t-43 -48.5t-36 -37t-19.5 -20q5 -6 12.5 -11t16.5 -8t17.5 -5t14.5 -2q8 0 8 -5q0 -11 -16 -17t-29 -6q-30 0 -59 19q-32 -32 -75.5 -78t-88.5 -99.5t-86.5 -111t-69.5 -112.5q-7 -13 -14 -17q-4 -2 -7 -2q-10 0 -16 5 t-9 11.5t-4 13t-1 8.5q1 94 5.5 164.5t9.5 123.5q-80 -77 -130.5 -132.5t-79.5 -92.5q-34 -43 -51 -72q-8 -15 -14.5 -19.5t-10.5 -4.5q-11 0 -19 12t-8 26q0 8 1 11t1 5q53 146 81.5 249.5t42.5 172.5q16 80 18 134q0 22 -5.5 35.5t-13.5 21.5t-18.5 11t-20.5 3 q-25 0 -53 -11.5t-56 -30t-53.5 -42.5t-45.5 -49.5t-31.5 -50t-11.5 -44.5q0 -18 9 -25t29 -7q10 0 26 3t36 11.5t44.5 24.5t51.5 42q1 1 3 2t6 1q6 0 6 -7q0 -14 -17 -36.5t-45 -43.5t-63.5 -36t-72.5 -15q-38 0 -51 16t-13 40q0 27 14 59t38 65t56.5 64t69.5 55.5t76 39 t77 14.5q17 0 32.5 -3.5t26.5 -14t17.5 -30t6.5 -51.5q0 -39 -8 -89t-19.5 -101t-25 -100t-25 -87.5t-19.5 -62t-8 -24.5q0 -7 3 -7q2 0 5 2q6 4 11 10q31 33 65 68q29 30 66.5 67.5t75.5 74.5q0 7 3.5 29.5t10.5 52.5t19.5 63.5t30.5 61.5t42.5 46t56.5 18q20 0 27 -13 t7 -30q0 -33 -13 -63t-33.5 -57.5t-46 -53.5t-50.5 -50q-7 -46 -11.5 -107t-4.5 -146q0 -2 1 -5q2 -6 4 -6q3 0 7 6q32 47 73 96t80.5 93t73 79t51.5 53q-9 15 -13 31t-4 32q0 46 21 89.5t53 77t70.5 53.5t73.5 20q25 0 33 -11.5t8 -25.5zM940 586q0 10 -5.5 13.5t-12.5 3.5 q-21 0 -45.5 -15.5t-46.5 -41t-36.5 -57t-14.5 -63.5q0 -25 10 -42q16 18 41.5 45t50 56.5t42 56.5t17.5 44zM579 484q0 12 -4 15.5t-7 3.5q-16 0 -30 -19.5t-24.5 -46t-17.5 -54t-10 -44.5q13 13 28.5 30.5t30 37t24 39.5t10.5 38z" />
<glyph unicode="X" horiz-adv-x="530" d="M807 625q0 -23 -15.5 -53t-45.5 -57t-73.5 -45.5t-99.5 -19.5q-12 0 -18 0.5t-10.5 1.5t-9 2.5t-13.5 3.5q-29 -33 -65.5 -71t-77.5 -80q13 -51 20 -111t18.5 -120t31.5 -114t60 -92q2 0 3 -2q2 -4 2 -7q0 -6 -15 -6q-36 0 -61 20.5t-42 53.5t-27 75.5t-17 87.5 t-11.5 88.5t-10.5 77.5q-23 -22 -42.5 -41t-33.5 -33q-17 -17 -31 -30q-20 -19 -53.5 -51t-76 -62.5t-90.5 -52.5t-97 -22q-30 0 -46.5 8.5t-16.5 17.5q0 6 5.5 7.5t7.5 1.5q30 0 61 8t61.5 21.5t59.5 30t54 34.5q60 41 115 93q15 14 33 32q16 15 37 35.5t46 45.5 q-9 62 -24.5 120.5t-38 104.5t-52.5 73.5t-68 27.5q-30 0 -48.5 -17t-18.5 -52q0 -22 9 -47t26.5 -48t44 -42.5t61.5 -29.5l4 -2q3 -1 3 -7q0 -4 -3 -5.5t-6 -3.5q-4 -2 -9 -2q-53 0 -86 22t-51.5 52t-25 59.5t-6.5 44.5q0 33 10.5 54.5t27 34t35.5 18t36 5.5q26 0 57.5 -11 t63 -44t59.5 -94.5t48 -163.5l121 127q-17 13 -21.5 28.5t-4.5 26.5q0 14 5 26.5t13 12.5q5 0 6.5 -6.5t1.5 -11.5q6 -29 28 -45q1 3 12.5 15.5t30 30t43 37.5t51.5 37t55.5 28t55.5 11q20 0 29.5 -11t9.5 -29zM746 600q0 18 -18 18t-42 -13.5t-48 -33t-46 -41t-38 -38.5 q18 -6 37 -6q35 0 63.5 13t48.5 31t31.5 37.5t11.5 32.5z" />
<glyph unicode="Y" horiz-adv-x="585" d="M716 570q0 -29 -24 -70t-59 -82.5t-73.5 -78.5t-67.5 -58q-6 -12 -10.5 -23t-10.5 -26t-15.5 -35.5t-24.5 -52.5q23 -2 41 -9q16 -6 29 -17t12 -31q0 -9 -2 -11.5t-4 -2.5q-6 0 -11.5 5t-15 11t-25.5 11.5t-43 6.5q-45 -87 -100 -156q-24 -29 -52 -57t-60.5 -50 t-68 -35.5t-73.5 -13.5q-34 0 -60.5 15.5t-26.5 54.5q0 30 17.5 62.5t47 63.5t69.5 59.5t84.5 49.5t92 33.5t92.5 12.5q14 26 21 43t17 41q-25 -14 -53 -25q-24 -10 -54 -17.5t-60 -7.5q-38 0 -55 16t-17 41q0 21 11.5 47t28.5 54.5t37 58.5t37 58.5t28.5 54t11.5 45.5 q0 16 -9.5 31t-35.5 15q-63 0 -117.5 -23.5t-94.5 -55.5t-63 -65t-23 -52q0 -15 12.5 -21t29.5 -6q11 0 26 2.5t34 9.5t41 20.5t46 35.5l2 2q2 2 5 2q8 0 8 -9q0 -13 -16 -32.5t-42 -37.5t-58.5 -31t-64.5 -13q-36 0 -55 12.5t-19 41.5q0 22 13.5 49.5t37.5 55.5t57 54.5 t72.5 47t83.5 33t90 12.5q49 0 71.5 -22.5t22.5 -58.5q0 -39 -22 -80t-49 -80.5t-49 -76.5t-22 -69q0 -9 5.5 -18.5t25.5 -9.5q32 0 61 9t52 20q26 13 50 29q7 15 19 44.5t29 66t38.5 75t47 70t55 51.5t61.5 20q17 0 25 -9.5t8 -23.5zM674 548q0 4 -2 7.5t-8 3.5 q-14 0 -29.5 -13.5t-31 -34.5t-30 -46t-26 -48.5t-19.5 -42t-10 -26.5v-1q0 -2 2 -2q3 0 16 12t30 30.5t36 42t35 46t26.5 42t10.5 30.5zM355 110q-52 0 -110 -20.5t-106.5 -53.5t-80 -75.5t-31.5 -87.5q0 -16 3.5 -25t9 -13.5t13.5 -5.5t17 -1q27 0 53 12t51 32t48.5 45 t43.5 52q48 62 89 141z" />
<glyph unicode="Z" horiz-adv-x="740" d="M696 206q0 -40 -22.5 -87.5t-63 -89t-97.5 -69t-126 -27.5q-45 0 -86 12t-74.5 27t-58 27t-35.5 12q-43 -27 -90.5 -46.5t-100.5 -19.5q-47 0 -68 13t-21 31q0 14 11 28t31.5 25.5t50 19t66.5 7.5q23 0 51.5 -3.5t63.5 -11.5q60 45 119.5 104t114.5 120q-16 6 -32.5 8 t-29.5 2q-17 0 -30 -2.5t-21 -6.5q-10 -4 -15 -9q-6 -4 -9 -4q-7 0 -7 7q0 2 0.5 3l1.5 3q8 11 21 21q11 8 29.5 14.5t44.5 6.5q20 0 36 -3t39 -7q39 45 72 85.5t57 71.5q28 36 51 67q1 2 1 4q0 4 -5 4q-26 1 -61.5 8t-61.5 13q-16 -31 -46 -57q-26 -22 -67.5 -39.5 t-104.5 -17.5q-51 0 -74.5 15.5t-23.5 38.5q0 18 14.5 38.5t40.5 37.5t62 28t80 11q41 0 92 -12q0 20 -4.5 32t-9.5 20q-6 9 -14 12q-2 0 -4 2q-5 5 -5 7q0 1 2 5q2 2 9 2q3 0 14 -2.5t22.5 -10t20.5 -21t9 -36.5v-10t-2 -10q3 -1 15 -4.5t29 -7t37.5 -6.5t42.5 -3 q23 0 44.5 4t39.5 15q1 1 2 1h4q8 0 8 -7q0 -6 -6 -16q-30 -41 -64 -86q-29 -38 -68 -86.5t-83 -98.5h19q5 0 9 -1q8 -2 8 -7t-9 -13q-8 -8 -19 -9.5t-36 -1.5q-35 -38 -69.5 -73.5t-67.5 -63.5q-14 -13 -32 -29q-15 -14 -35.5 -30.5t-45.5 -33.5q32 -10 55.5 -20.5 t47 -18.5t51.5 -13t70 -5q62 0 110.5 22.5t82 56t51 71.5t17.5 68q0 26 -13 42.5t-40 16.5q-15 0 -40 -8.5t-50 -30.5t-45.5 -60t-26.5 -96q0 -4 -1 -8q-1 -3 -3 -6t-7 -3q-8 0 -17 15t-9 47q0 30 16.5 62.5t44 59.5t63 44t73.5 17q47 0 68.5 -24.5t21.5 -62.5zM405 574 q-23 6 -43.5 8t-37.5 2q-32 0 -57.5 -6.5t-43 -16.5t-27 -22.5t-9.5 -23.5q0 -14 14.5 -23t44.5 -9q38 0 67.5 14.5t49.5 31.5q24 20 42 45zM88 26q-23 8 -38.5 10t-35.5 2q-49 0 -74.5 -14t-25.5 -28q0 -8 10 -14t31 -6q29 0 53 7.5t42 17.5q21 11 38 25z" />
<glyph unicode="[" horiz-adv-x="312" d="M495 688q0 -4 -13 -9q-17 -6 -33 -13.5t-29 -14.5q-15 -8 -27 -17q-9 -7 -28 -34.5t-44.5 -69.5t-55.5 -94.5t-61.5 -108t-62 -111t-57.5 -103.5q-22 -39 -37 -70t-25 -52q-11 -25 -18 -43q-2 -4 -2 -7q0 -9 9.5 -21t21.5 -23q14 -13 31 -26q6 -5 6 -9q0 -5 -10 -5 q-12 0 -32.5 8.5t-40.5 21t-34.5 26.5t-14.5 25v4q0 1 1 1q0 7 14 36.5t37 73.5t53 99t63 113.5t67 117t64 108.5q23 38 42.5 68.5t34.5 52.5q18 26 32 44q13 12 35 19.5t44 12.5q26 5 55 9q4 0 8 -2q7 -3 7 -7z" />
<glyph unicode="\" horiz-adv-x="487" d="M330 -194q-3 -7 -8 -7q-3 0 -5 1q-8 5 -22 16t-17 24q-51 195 -95.5 356.5t-77 279t-51 185t-18.5 75.5q0 1 1 2t3 1q3 0 7 -3q25 -14 31.5 -27t8.5 -16q66 -240 119 -432q23 -82 44.5 -161t38.5 -142.5t28.5 -104.5t12.5 -47z" />
<glyph unicode="]" horiz-adv-x="314" d="M442 612q0 -1 -1 -1q0 -7 -14 -36.5t-37 -73.5t-53 -99t-63 -113.5t-66.5 -116.5t-64.5 -109q-23 -38 -42.5 -68.5t-34.5 -52.5q-18 -26 -32 -44q-12 -12 -34.5 -19.5t-44.5 -12.5q-26 -5 -55 -9q-4 0 -8 2q-7 3 -7 7t13 9q17 6 33 13.5t29 14.5q15 8 27 17q9 7 28 34.5 t44.5 69.5t55.5 94.5t61.5 108t62.5 111t57 103.5q22 39 37 70t25 52q11 25 18 43q2 4 2 7q0 9 -9.5 21t-21.5 23q-14 13 -31 26q-6 5 -6 9q0 5 10 5q12 0 32.5 -8.5t40.5 -21t34.5 -26.5t14.5 -25v-4z" />
<glyph unicode="_" horiz-adv-x="428" d="M362 3q0 -3 -4 -7q-20 -22 -56 -27t-90 -5h-47q-11 0 -21 1q-52 1 -77.5 0.5t-36.5 -1.5t-13 -1.5t-8 -0.5q-13 0 -13 7v3q0 1 1 1q0 1 4.5 5.5t13.5 10t23.5 10t33.5 4.5h199q30 0 47 0.5t28 2.5q1 1 3 1h6q7 0 7 -4z" />
<glyph unicode="`" horiz-adv-x="279" d="M224 387q0 -5 -6 -5q-17 3 -37 9q-17 5 -39 14t-47 24q-19 17 -23 34.5t-4 25.5q1 10 10 10q4 0 6 -1l2 -1q32 -20 57 -38.5t42 -32.5q20 -17 35 -31q4 -4 4 -8z" />
<glyph unicode="a" d="M448 173q0 -5 -2 -12t-10 -17q-48 -63 -87 -99t-67.5 -53.5t-46 -22t-21.5 -4.5q-30 0 -40 15.5t-10 34.5q0 23 6 38.5t6 18.5q0 2 -2 2l-2 -1q-1 -1 -2 -1q-25 -28 -48.5 -44t-43 -24.5t-33.5 -10.5t-22 -2q-15 0 -25 5.5t-15 14t-7 18.5t-2 20q0 39 23.5 85t60 85.5 t81.5 65.5t87 26q17 0 31 -7t22 -25q0 -1 1 -2q2 -2 3 -2t4 4q8 16 20 26.5t26 10.5q6 0 16 -2t10 -9v-3q0 -1 -1 -1q-17 -21 -35 -49t-32 -54q-17 -30 -33 -60q-11 -20 -20 -38q-8 -16 -14 -34t-6 -32q0 -10 4.5 -18t19.5 -8q10 0 24.5 7t37 26.5t55 54.5t77.5 90q0 1 1 2 t3 1q1 0 4.5 -4t3.5 -12zM253 253q0 17 -8 22t-19 5q-24 0 -57.5 -23.5t-64 -58t-51.5 -73t-21 -67.5q0 -10 4.5 -19t19.5 -9q18 0 42 15t49.5 41t51 60.5t45.5 73.5q5 11 7 19t2 14z" />
<glyph unicode="b" horiz-adv-x="360" d="M461 620q0 -26 -17.5 -62t-51 -70.5t-82 -61.5t-110.5 -35q-33 -51 -63 -104t-53 -102t-36.5 -89.5t-13.5 -65.5q0 -12 3.5 -20.5t14.5 -8.5q32 0 65.5 27t63.5 65q-17 25 -17 63q0 26 10.5 53t28 50t39 37.5t43.5 14.5q24 0 24 -24q0 -16 -6 -38t-16.5 -46t-25.5 -50 t-33 -51q13 -10 32 -10q23 0 51.5 17t54.5 50q14 14 23 27q0 1 1 2t3 1q1 0 4.5 -4t3.5 -12q0 -5 -1.5 -12.5t-9.5 -16.5q-35 -45 -72 -65.5t-69 -20.5q-26 0 -46 12q-39 -48 -84.5 -80.5t-88.5 -32.5q-10 0 -20 2q-4 1 -7 3q-14 7 -19.5 21.5t-5.5 32.5q0 19 4 38t9 36 q6 19 13 37q14 35 33 77q17 36 42.5 83t60.5 101q-34 3 -55 18.5t-21 44.5q0 12 8.5 28.5t27.5 16.5q2 0 3 -1q2 -2 2 -6q0 -8 -4 -12.5t-4 -17.5q0 -20 17 -30.5t44 -12.5q17 25 47 66t67.5 80.5t78 68t77.5 28.5q17 0 25 -11t8 -28zM421 607q0 10 -8 10q-15 0 -36.5 -15.5 t-46.5 -41.5t-52.5 -61.5t-55.5 -76.5q45 11 81.5 36t62.5 53.5t40.5 55.5t14.5 40zM267 256q0 13 -6 13q-9 0 -19 -9t-18.5 -23t-14 -31.5t-5.5 -34.5q0 -25 5 -39q26 40 42 75t16 49z" />
<glyph unicode="c" horiz-adv-x="291" d="M334 176q0 -5 -2 -12.5t-9 -17.5q-22 -31 -52 -62.5t-64 -56.5t-69.5 -40.5t-68.5 -15.5q-14 0 -30 2t-29.5 10.5t-22.5 25.5t-9 47q0 37 20 83t53.5 86t76 67.5t87.5 27.5q18 0 29 -4t17 -11t7.5 -14.5t1.5 -15.5q0 -25 -11 -44t-27.5 -31.5t-35 -18.5t-33.5 -6 q-17 0 -24 3.5t-7 7.5q0 2 4 4q2 1 3 1q19 2 34.5 11t27 21.5t17.5 26t6 24.5t-3.5 14t-13.5 3q-28 0 -58.5 -25.5t-56 -62t-41.5 -76t-16 -67.5q0 -32 14 -42t35 -10q54 0 110 43t130 138q0 1 1 2t2 1q2 0 4.5 -4t2.5 -12z" />
<glyph unicode="d" horiz-adv-x="398" d="M438 171q0 -6 -2.5 -14t-10.5 -19q-50 -65 -88 -100t-64.5 -51.5t-42 -19.5t-20.5 -3q-29 0 -39 18t-10 38q0 19 4 33.5t5 16.5q0 3 -2 3q-1 0 -3 -2q-25 -29 -49.5 -45.5t-44 -25t-33 -10.5t-15.5 -2q-16 0 -26 5.5t-15.5 14t-7.5 19t-2 20.5q0 38 21 83t55 84t78 65.5 t90 26.5q17 0 32 -6.5t23 -24.5l1 -1q2 -2 3 -2q3 0 4 3q18 19 38 52t37 69t28 69t11 53q0 21 -7.5 34.5t-19.5 21t-26.5 10t-28.5 2.5q-32 0 -60 -10t-49 -25t-33 -32.5t-12 -31.5q0 -13 11 -21t34 -8q12 0 28.5 3.5t32.5 9t29.5 13t20.5 15.5q5 4 9 4t4 -5 q0 -11 -12.5 -24.5t-33 -25.5t-45.5 -20t-51 -8q-37 0 -53.5 14t-16.5 35t15.5 46.5t42.5 47t64.5 36t81.5 14.5q57 0 87.5 -28.5t30.5 -75.5q0 -42 -22.5 -93t-52.5 -102t-61.5 -98t-49.5 -82q-10 -19 -19 -37q-8 -16 -14 -33.5t-6 -32.5q0 -9 4 -18t18 -9q28 0 74 44 t122 138l1 1q1 1 2 1q2 0 4 -4.5t2 -12.5zM245 247q-2 18 -10 24t-22 6q-22 0 -53.5 -23t-61 -57t-50.5 -72.5t-21 -70.5q0 -8 3.5 -16t16.5 -8q21 0 44 13.5t45 34t41.5 46t34.5 49.5t24 44t9 30z" />
<glyph unicode="e" horiz-adv-x="311" d="M353 173q0 -5 -4.5 -15.5t-11.5 -20.5q-16 -24 -44 -53.5t-62.5 -55.5t-73 -44t-76.5 -18q-12 0 -28 2.5t-30 11.5t-24 27t-10 50q0 48 21.5 94.5t55 83.5t73.5 59.5t77 22.5q21 0 35.5 -10t14.5 -37q0 -24 -15.5 -52.5t-43.5 -53.5t-65.5 -42.5t-81.5 -19.5q-1 1 -2 0 l-2 -4q-8 -23 -8 -43q0 -16 4.5 -26.5t12 -16t16.5 -7.5t17 -2q18 0 41 6.5t53 26t66.5 54.5t80.5 93q1 2 2 3q2 2 4 2t5 -3.5t3 -11.5zM225 272q0 6 -4.5 10.5t-12.5 4.5q-19 0 -41.5 -18t-43 -42.5t-35.5 -50.5t-20 -42q0 -2 1 -3l1 -1q27 3 54.5 18t50 35t36.5 44t14 45z " />
<glyph unicode="f" horiz-adv-x="310" d="M464 600q0 -20 -10.5 -44.5t-29 -51t-44 -51.5t-55.5 -45.5t-64 -34t-69 -16.5q-3 -5 -6.5 -9.5t-6.5 -9.5q-20 -33 -49.5 -80.5t-62.5 -103.5q16 11 33.5 18t35.5 7q28 0 36 -16t8 -33q0 -20 -8.5 -49t-22.5 -66q43 14 89.5 56.5t104.5 117.5q0 1 1 2t2 1q2 0 4.5 -4 t2.5 -12q0 -5 -2 -12.5t-9 -17.5q-18 -26 -42.5 -52t-51.5 -49t-56.5 -40.5t-58.5 -26.5q-28 -61 -67 -128t-82 -123t-86 -92.5t-79 -36.5q-20 0 -28.5 15t-8.5 35q0 36 16.5 88t44 112t63 126t72.5 130t73.5 123t65.5 106q4 7 7.5 13t7.5 12q-21 4 -39 13q-15 8 -27.5 21 t-12.5 33q0 11 4.5 19t11 13t12.5 7.5t9 2.5q7 0 7 -6q0 -4 -1 -5t-1 -2q-3 -9 -3 -18q0 -14 7.5 -23t17 -14.5t20 -7.5t16.5 -2q27 40 60.5 83.5t70 79.5t73.5 59.5t70 23.5q15 0 26 -7.5t11 -27.5zM421 581q0 13 -11 13q-8 0 -20 -7t-23 -16q-12 -11 -26 -24 q-16 -16 -35 -39q-17 -20 -39.5 -48.5t-49.5 -66.5q24 1 58.5 21t67 49t55.5 61t23 57zM140 111q0 15 -8 24.5t-27 9.5q-13 0 -25 -8t-21.5 -20t-15 -27t-5.5 -30q0 -21 14.5 -36.5t50.5 -15.5h6q14 32 22.5 58.5t8.5 44.5zM88 -29q-49 0 -69.5 18.5t-21.5 45.5 q-31 -54 -59.5 -107.5t-50 -101.5t-34.5 -88t-13 -66q0 -20 13 -20q18 0 48 30t64 77t68 103t59 109h-4z" />
<glyph unicode="g" horiz-adv-x="398" d="M440 173q0 -5 -2 -12.5t-10 -16.5q-28 -36 -62 -65.5t-70 -53.5t-74 -44.5t-76 -39.5q-5 -9 -9.5 -17.5t-9.5 -17.5q-24 -44 -57.5 -95t-71 -95.5t-77.5 -74t-77 -29.5q-17 0 -31 11.5t-14 40.5q0 49 25.5 88.5t68 73.5t97 64t111.5 59q25 44 40 74.5t16 33.5q0 3 -2 3 l-3 -2q-26 -24 -48.5 -37.5t-39.5 -20.5q-20 -8 -37 -9q-32 0 -44 14t-12 43q0 31 19.5 75.5t54 85t80.5 69.5t99 29q17 0 31.5 -6.5t20.5 -24.5l1 -1q2 -2 3 -2q2 0 5 3q3 6 7 11q3 5 6.5 9.5t7.5 7.5q6 5 13 7t13 2q25 0 25 -8q0 -3 -1 -4l-1 -1q-17 -21 -35.5 -49 t-33.5 -54q-18 -30 -34 -60q0 1 -9.5 -16t-23 -42t-28 -51.5t-23.5 -44.5q32 17 63 34.5t60 37.5q27 18 44.5 32t31.5 28t28 30.5t33 40.5q0 1 1 2t2 1t3 -2l3 -3q3 -3 3 -11zM248 252q0 27 -27 27q-25 0 -58.5 -22.5t-64 -56.5t-51.5 -72.5t-21 -71.5q0 -8 4 -16t17 -8 q18 0 40 12.5t44.5 32.5t43.5 45t37 49t26 46t10 35zM77 -93q-47 -24 -89.5 -50t-74.5 -54.5t-51 -59.5t-19 -65q0 -8 3 -14t13 -6q22 0 50 23t57 59t57.5 80.5t53.5 86.5z" />
<glyph unicode="h" horiz-adv-x="400" d="M470 622q0 -26 -17.5 -62t-51 -70.5t-82 -61.5t-110.5 -35q-19 -28 -42 -66.5t-42.5 -73.5t-32.5 -59.5t-13 -26.5q0 -3 2 -3t5 4q36 33 70 59q29 22 61.5 40t58.5 18q2 0 7.5 -1t10.5 -4.5t9 -10t4 -18.5q0 -22 -14.5 -52.5t-32.5 -62t-32.5 -60.5t-14.5 -49 q0 -17 17 -17q5 0 14 2t21 9q15 8 40 29q21 18 53.5 52.5t79.5 93.5l2 2q1 1 3 1l2 -2q1 -1 2 -3q2 -4 2 -10t-3 -14.5t-11 -19.5q-32 -44 -68.5 -80.5t-61.5 -55.5q-40 -30 -63.5 -37t-39.5 -7q-29 0 -38.5 13.5t-9.5 29.5q0 24 14.5 55t32 62t32 57.5t14.5 40.5q0 6 -3 7 q-2 1 -3 1q-24 0 -60 -25.5t-74 -63.5t-72 -82t-52 -81q-2 -5 -6 -7t-6 -2q-19 0 -22 9.5t-3 16.5q0 6 13.5 40t39.5 87.5t64 121t86 140.5q-34 3 -55 18.5t-21 44.5q0 12 8.5 28.5t27.5 16.5q2 0 3 -1q2 -2 2 -6q0 -8 -4 -12.5t-4 -17.5q0 -20 17 -30.5t44 -12.5 q17 25 47 66t67.5 80.5t78 68t77.5 28.5q17 0 25 -11t8 -28zM430 609q0 10 -8 10q-20 0 -43.5 -18.5t-48.5 -47t-50 -63t-48 -66.5q44 11 80.5 36.5t62.5 54t40.5 55t14.5 39.5z" />
<glyph unicode="i" horiz-adv-x="212" d="M224 414q0 -5 -4 -15.5t-11 -21t-17.5 -18t-24.5 -7.5q-20 0 -20 23q0 11 5.5 22.5t13.5 20.5t18 14t19 5q10 0 15.5 -6.5t5.5 -16.5zM254 173q0 -5 -2.5 -12t-9.5 -17q-21 -28 -50.5 -60.5t-61.5 -59.5t-65.5 -45t-62.5 -18q-26 0 -35 15.5t-9 34.5q0 35 20 79.5 t44 84.5q28 47 63 95q3 5 10 9q6 3 15.5 5.5t26.5 2.5q9 -1 9 -7q0 -2 -2 -6q-12 -19 -34.5 -52.5t-44.5 -70t-38.5 -71t-16.5 -56.5q0 -7 3 -15t17 -8q5 0 12.5 1t20 7t29.5 18t39 34q12 11 23.5 23t24.5 27t28.5 33t34.5 42q0 1 1 2t2 1t3 -2l3 -3q3 -3 3 -11z" />
<glyph unicode="j" horiz-adv-x="190" d="M224 429q0 -5 -4 -15.5t-11 -21t-17.5 -18t-24.5 -7.5q-20 0 -20 23q0 11 5.5 22.5t13.5 20.5t18 14t19 5q10 0 15.5 -6.5t5.5 -16.5zM232 176q0 -5 -2 -12.5t-9 -17.5q-36 -50 -91 -96q-27 -27 -75 -52.5t-105 -52.5l-9 -16q-24 -44 -58.5 -95.5t-73.5 -95.5t-80 -74 t-78 -30q-17 0 -31 11.5t-14 40.5q0 48 25 85.5t66.5 68t93.5 56t106 50.5q7 11 12 19.5t9 14.5q4 7 8 13q19 31 40.5 71t43.5 81t43.5 79.5t41.5 66.5q4 5 10 9q5 3 14 5.5t23 2.5q10 0 12 -1.5t2 -5.5v-4q0 -1 -1 -1q-13 -18 -35.5 -54.5t-49 -81.5t-53 -92.5t-48.5 -87.5 q38 19 73.5 39t63.5 44q26 22 55 53t61 73q0 1 1 2t2 1q2 0 4.5 -4t2.5 -12zM-127 -92q-44 -21 -84 -44.5t-71 -49t-49.5 -54t-18.5 -60.5q0 -8 3.5 -17t13.5 -9q17 0 42.5 23t54 58t57.5 76t52 77z" />
<glyph unicode="k" horiz-adv-x="383" d="M474 622q0 -26 -17.5 -62t-50.5 -70.5t-81.5 -61.5t-110.5 -35l-93 -153v-2q0 -1 1 -2q2 0 19 14t42.5 30.5t57 30.5t62.5 14q15 0 29 -5t14 -25q0 -16 -11.5 -34.5t-35 -36t-59 -32t-82.5 -22.5q-2 0 -4 -1q-5 -2 -5 -5l3 -20t11 -44t22.5 -44t36.5 -20q10 0 28.5 4.5 t47.5 26.5q13 9 25.5 20.5t27 26.5t31.5 35t38 46q1 2 2 3q2 2 4 2q1 0 3 -2q2 -1 4 -3q3 -3 3 -11q0 -11 -12 -27q-45 -59 -84 -92t-68.5 -49t-48.5 -19.5t-24 -3.5q-16 0 -29.5 8t-24 21t-18 29.5t-13.5 33.5q-13 40 -19 92q0 8 -4 8q-3 0 -5 -3q-1 -2 -2 -3 q-28 -48 -57 -102t-58 -113l-2 -4q-2 -4 -7 -4q-8 0 -19 11t-11 23q0 7 1 10t2 4q31 62 67 127q31 56 70.5 124.5t82.5 134.5q-34 3 -55 18.5t-21 44.5q0 12 8.5 28.5t27.5 16.5q2 0 3 -1q2 -2 2 -6q0 -8 -4 -12.5t-4 -17.5q0 -20 17 -30.5t44 -12.5q17 25 47 66t67.5 80.5 t78 68t77.5 28.5q17 0 25 -11t8 -28zM434 609q0 10 -8 10q-20 0 -43.5 -18.5t-48.5 -47t-50 -63t-48 -66.5q44 11 80.5 36.5t62.5 54t40.5 55t14.5 39.5zM291 279q0 8 -7 9.5t-9 1.5q-18 0 -41 -12.5t-43.5 -28t-35 -29t-14.5 -16.5q0 -5 11 -5q30 1 55.5 10t44 21.5t29 26 t10.5 22.5z" />
<glyph unicode="l" horiz-adv-x="268" d="M463 632q0 -24 -11.5 -56t-32.5 -66.5t-49.5 -68.5t-63.5 -62.5t-74.5 -47.5t-81.5 -24q-23 -41 -44.5 -84.5t-40.5 -90.5q-6 -14 -10 -29q-4 -13 -7 -27.5t-3 -28.5q0 -18 7 -29t26 -11q10 0 25.5 5t38.5 19q17 10 42 32q21 19 51.5 51t71.5 83l1 1q1 1 3 1q1 0 3 -2 q2 -1 4 -3q3 -3 3 -11q0 -10 -12 -26q-39 -51 -76.5 -86.5t-64.5 -54.5q-47 -32 -77 -42t-47 -10q-32 0 -44.5 22t-12.5 50q0 18 3 35.5t8 31.5q5 17 11 32q9 22 20 48q10 23 25 55t36 70q-22 4 -40 12q-15 7 -28 20t-13 34q0 14 5.5 22t12 12.5t12 6t6.5 1.5q10 0 10 -7v-3 q0 -1 -1 -1q-7 -14 -7 -25q0 -15 9.5 -23.5t20.5 -13.5q13 -5 29 -8q56 96 112 172q24 32 50.5 63t53 55t52 38.5t48.5 14.5q21 0 31 -12.5t10 -33.5zM424 615q0 19 -14 19q-13 0 -30 -12.5t-36.5 -33.5t-40 -47.5t-40.5 -54.5q-46 -65 -95 -148q35 6 67 24.5t60.5 44.5 t52 56t40.5 58.5t26.5 53.5t9.5 40z" />
<glyph unicode="m" horiz-adv-x="626" d="M677 184q0 -5 -3 -13.5t-11 -19.5q-71 -90 -126 -131t-105 -41q-16 0 -25 5.5t-13 13t-4.5 14.5t-0.5 10q0 18 9.5 45t20.5 52q13 29 30 60q17 30 22.5 45.5t5.5 22.5q0 5 -1 6l-1 1q-3 3 -8 3q-14 0 -35.5 -13t-46 -33t-49.5 -45t-47.5 -48.5t-39 -43.5t-24.5 -30 q-11 -14 -23.5 -17.5t-20.5 -3.5q-2 0 -3.5 0.5t-2.5 0.5h-2q-7 0 -7 6q0 3 2 7q1 2 1 3q27 56 42 92t22.5 57.5t9 30t1.5 9.5q0 10 -9 10q-10 0 -30.5 -12t-45 -31.5t-52 -44.5t-52.5 -51t-45.5 -51.5t-31.5 -45.5q-10 -17 -24.5 -21t-22.5 -4q-10 0 -12 2.5t-2 4.5 q10 26 23.5 53.5t28.5 56t30.5 56.5t30.5 53q34 59 72 118q4 3 10 7q12 7 38 7q2 0 5 -1q5 -2 5 -7q0 -3 -5 -13l-99 -162q0 -1 -1 -3q-2 -4 -2 -6t2 -2t6 3q2 2 13.5 13t29.5 27t40 34t44.5 33t44 25t37.5 10q11 0 20 -6t9 -25q0 -9 -1.5 -17.5t-5 -20.5t-10 -29.5 t-17.5 -43.5v-1q0 -1 -0.5 -1.5t-0.5 -1.5q0 -3 2 -3t6 4l11.5 12t30.5 31t43.5 40.5t50.5 40.5t52 31.5t48 12.5q11 0 21.5 -5.5t10.5 -22.5q0 -9 -5 -31.5t-29 -68.5q-16 -30 -29 -57q-11 -23 -20.5 -47t-9.5 -38q0 -6 3 -12.5t17 -6.5q7 0 19.5 3.5t33 18.5t50.5 45 t72 83q8 9 15 17.5t10 9.5l2 1q3 0 4 -3q1 -1 2 -3q2 -4 2 -9z" />
<glyph unicode="n" horiz-adv-x="393" d="M444 184q0 -5 -3 -13.5t-11 -19.5q-9 -11 -17.5 -21.5t-16.5 -20.5q-29 -34 -54.5 -55.5t-46.5 -33.5t-38 -16.5t-31 -4.5q-15 0 -23 5.5t-12 13t-4.5 14.5t-0.5 10q0 22 11.5 48.5t25 52.5t25 49.5t11.5 38.5q0 8 -3 10t-8 2q-14 0 -36.5 -14t-48.5 -36.5t-53.5 -50 t-51.5 -54t-42 -48.5t-25 -35q-10 -18 -24.5 -22t-22.5 -4q-9 0 -12 5q-2 3 -2 5q9 22 29.5 63.5t45 89t51 93.5t47.5 76q4 3 10 7q12 7 38 7q2 0 5 -1q5 -2 5 -7q0 -3 -5 -13l-94 -162q0 -2 1 -2q4 0 7 4l14 14t30 28t41 34.5t46 34t45.5 25.5t40.5 10q11 0 21.5 -6.5 t10.5 -25.5q0 -20 -11.5 -47t-25.5 -54.5t-25.5 -53t-11.5 -42.5q0 -6 3 -12.5t15 -6.5q6 0 16.5 4.5t28 18t42 39t59.5 67.5q8 9 15 17.5t10 9.5l2 1q3 0 4 -3q1 -1 2 -3q2 -4 2 -9z" />
<glyph unicode="o" horiz-adv-x="381" d="M438 190q0 -5 -2 -11.5t-9 -15.5q-25 -32 -49.5 -52t-46.5 -31.5t-41.5 -15.5t-35.5 -4h-15t-15 1q-19 -27 -45 -49q-22 -19 -52 -34.5t-67 -15.5q-12 0 -26.5 4t-26.5 14t-20 27t-8 42q0 42 21 89t54 87t73.5 66.5t79.5 26.5q7 0 15.5 -1.5t15.5 -5.5t12 -11.5t5 -18.5 q0 -6 -3 -8t-5 -2q-6 0 -11 5t-20 5q-25 0 -56.5 -22.5t-59 -56.5t-46 -74.5t-18.5 -77.5q0 -32 15 -43t32 -11q23 0 43 11t35 25q18 16 33 36q-19 11 -29.5 22t-10.5 37q0 23 11 44.5t28 38t37 27t37 10.5q10 0 17 -6t7 -22q0 -15 -7 -36t-15 -41q-10 -23 -23 -48h18 q15 0 32 4.5t37 16.5t42.5 33.5t48.5 54.5q1 0 2 1t3 1q6 0 8 -7q1 -4 1 -8zM254 200q0 8 -3 9q-2 1 -3 1q-6 0 -15.5 -5t-17.5 -14.5t-14 -23.5t-6 -31q0 -14 6 -21.5t16 -12.5q11 19 19 37q7 16 12.5 32.5t5.5 28.5z" />
<glyph unicode="p" horiz-adv-x="394" d="M445 184q0 -5 -3 -13.5t-11 -19.5q-71 -90 -126 -131t-105 -41q-16 0 -25 5.5t-13 13t-4.5 14.5t-0.5 10q0 18 9.5 45t20.5 52q13 29 30 60q23 40 30 59t7 22q0 11 -5 15t-11 4q-15 0 -35.5 -13.5t-40.5 -32t-37.5 -37t-26.5 -28.5q-23 -26 -53 -66q-26 -35 -61 -89 t-79 -131q-14 -23 -23 -38.5t-15 -25.5q-7 -11 -12 -18q-14 -24 -31 -31t-27 -7q-9 0 -11.5 3t-2.5 6v4q0 1 1 1q9 12 22.5 34t30 49.5t35 58t36.5 60.5q42 70 90 152q32 53 56.5 96t41.5 74q20 36 35 64q5 10 17.5 14.5t23.5 4.5q16 0 16 -7q0 -3 -1 -4t-1 -2 q-12 -18 -26.5 -43.5t-27.5 -48.5q-15 -27 -31 -55q-3 -4 -3 -6t2 -2q3 0 4 1t2 1q18 17 37.5 35t40 33t41.5 24.5t43 9.5q14 0 27.5 -9t13.5 -32q0 -9 -7.5 -33.5t-27.5 -62.5q-16 -30 -29 -57q-11 -23 -20.5 -47t-9.5 -38q0 -6 3 -12.5t17 -6.5q7 0 19.5 3.5t33 18.5 t50.5 45t72 83q8 9 15 17.5t10 9.5l2 1q3 0 4 -3q1 -1 2 -3q2 -4 2 -9z" />
<glyph unicode="q" horiz-adv-x="404" d="M457 186q0 -5 -2 -12t-10 -18q-12 -18 -29 -36.5t-34 -36t-34 -32.5t-29 -25q-32 -27 -61 -45.5t-52 -29.5q-27 -13 -51 -22q-1 -1 -3 -2q-3 -2 -3 -3t5 -3q11 -4 21 -13q8 -8 14.5 -19.5t6.5 -31.5q0 -23 -11 -53t-29.5 -61.5t-42.5 -61.5t-50 -53t-52 -37.5t-49 -14.5 q-15 0 -21.5 11t-6.5 26q0 13 3 28t8 27q5 14 11 28q20 48 50.5 104.5t60.5 107.5q-9 -2 -22.5 -3t-27.5 -1q-13 0 -22.5 1.5t-9.5 7.5q0 2 5 7.5t22 13.5h6q3 0 7 0.5t9 0.5q25 0 53 5l73 118q0 2 -2 2h-3q-1 0 -1 -1q-19 -18 -40 -33q-18 -13 -41.5 -23t-48.5 -10 q-14 0 -23 6t-14 15t-7 20t-2 21q0 38 22.5 82.5t58.5 83t80.5 64.5t89.5 26q17 0 31.5 -7t21.5 -25l1 -1q2 -2 3 -2t4 3q3 6 7 11q3 5 6.5 9.5t7.5 7.5q13 10 28 10q8 0 16 -2q4 -1 6 -3q1 -1 1 -4q0 -2 -1 -3l-1 -1q-17 -22 -35 -50t-33 -54q-18 -30 -35 -60 q-15 -25 -33 -54q-15 -25 -34.5 -58t-41.5 -71q21 7 44 18q20 10 45 25t52 36q31 24 68.5 63t87.5 100q0 1 1 1h2q6 0 8 -7q1 -4 1 -7zM254 254q0 18 -9.5 23t-21.5 5q-23 0 -55.5 -22t-62.5 -55.5t-51.5 -72.5t-21.5 -73q0 -9 4.5 -17.5t18.5 -8.5q20 0 43 15t43.5 35 t37 40t22.5 30q7 7 14 18q6 9 14 21.5t16 29.5q5 11 7 18.5t2 13.5zM155 -149q0 18 -8.5 32.5t-29.5 20.5q-22 -39 -44 -77t-39.5 -71t-30.5 -59t-17 -40l-2 -6q-1 -2 -1 -5.5v-6.5q0 -5 1 -9.5t6 -4.5q23 0 52 24.5t54 59.5t42 74t17 68z" />
<glyph unicode="r" horiz-adv-x="313" d="M363 183q0 -5 -2.5 -13t-10.5 -18q-36 -48 -74 -84.5t-64 -55.5q-32 -23 -51 -28.5t-31 -5.5q-31 0 -41 17t-10 37q0 30 14.5 65.5t32.5 66.5q21 36 47 72q1 0 1 1v2q0 2 -4 2q-43 -11 -73 -13q-18 -25 -30 -41t-21 -26.5t-15.5 -17t-13.5 -12.5q-1 -1 -3 -2q-4 -2 -6 -2 q-4 0 -5 5t-1 9q0 5 1 8.5t3 6.5q2 4 4 6q16 18 25 30t14.5 20t7.5 12.5t3 6.5q-16 3 -24.5 9.5t-12.5 14t-5 14.5t-1 12q0 21 13.5 42t33 38t41.5 27.5t39 10.5q14 0 17.5 -6t3.5 -13q0 -14 -7.5 -34t-16.5 -40q-11 -23 -24 -47q27 1 50 11.5t40 23.5q20 15 36 33q9 8 23 8 q12 0 20.5 -3.5t8.5 -7.5q0 -3 -3 -6l-3 -3q-21 -32 -48.5 -69t-51.5 -74t-40.5 -71t-16.5 -61q0 -9 2.5 -16.5t18.5 -7.5q6 0 13 1.5t16.5 6.5t22.5 15.5t32 28.5q20 20 48.5 50.5t66.5 78.5q0 1 1 2t3 1l2 -2q2 -1 3 -4q2 -6 2 -11zM121 348q0 8 -3.5 9t-6.5 1 q-7 0 -16.5 -7.5t-18 -18t-14 -22t-5.5 -19.5q0 -10 4.5 -15.5t9.5 -8.5q6 -4 13 -5q11 18 19 35q7 14 12.5 28.5t5.5 22.5z" />
<glyph unicode="s" horiz-adv-x="292" d="M355 182q-42 -60 -85 -85t-105 -25q-18 -37 -44 -67q-23 -26 -56.5 -47t-80.5 -21q-26 0 -38 9t-12 23q0 25 17.5 48t45.5 41t61.5 29.5t66.5 14.5q15 36 25 67.5t17 54.5q8 27 12 50q0 5 -3 5q-1 0 -2 -1q-11 -6 -25 -16t-28 -22t-26.5 -24t-21.5 -22q-10 -11 -18.5 -20 t-14.5 -17q-7 -9 -13 -16q-3 -3 -6 -3t-5 3q-1 2 -2 3v2q0 1 -0.5 2.5t-0.5 3.5q0 10 5 20q3 5 8 11q5 5 11.5 12t14.5 16q16 17 40 38.5t53 42.5t62.5 38.5t67.5 25.5q5 0 15 -5t10 -17q0 -1 -2 -3q-3 -3 -8 -3q-14 -4 -26 -11q-11 -6 -20 -15.5t-14 -23.5q-2 -6 -4 -13 q-2 -6 -3.5 -12.5t-3.5 -11.5q-7 -38 -18 -73.5t-22 -64.5q20 0 36.5 3t34 13t38.5 29.5t48 52.5l2 2q1 1 4 1q4 0 7 -3q2 -2 4 -6.5t2 -12.5zM112 70q-10 0 -31.5 -6.5t-43.5 -18t-38.5 -27.5t-16.5 -35q0 -9 4.5 -11.5t16.5 -4.5q23 0 42.5 16t34.5 36q18 23 32 51z" />
<glyph unicode="t" horiz-adv-x="226" d="M475 455q0 -7 -5 -7t-8 2.5t-9.5 6t-19.5 6t-39 2.5q-20 0 -42 -2t-42.5 -4.5t-38.5 -5.5l-30 -5q-59 -90 -106 -170q-20 -34 -39 -69.5t-34 -68.5t-24.5 -61t-9.5 -47q0 -11 3 -20t21 -9q10 0 26 8t40.5 28.5t58.5 56t79 90.5q0 1 1 2t3 1q1 0 4.5 -4t3.5 -12 q0 -5 -2 -12t-10 -17q-48 -63 -87 -99.5t-68.5 -54.5t-48.5 -23t-26 -5q-29 0 -39.5 19t-10.5 40q0 27 12 63t31 76.5t42.5 82t45.5 79t41.5 68.5t29.5 50q-14 -2 -27.5 -2h-24.5q-39 0 -64.5 5t-40 12.5t-20.5 16.5t-6 17q0 11 4 16t7 5q6 0 10 -6q7 -11 24 -20 q14 -8 39 -14t65 -6q23 0 51 3q18 29 34.5 54t30.5 42q3 5 9 9q5 3 14.5 5.5t23.5 2.5q10 0 12.5 -2.5t2.5 -4.5v-3q0 -1 -1 -2q-15 -21 -30.5 -44t-31.5 -47q15 3 35 6.5t41.5 6.5t42 5t36.5 2q6 0 16.5 -1t20.5 -5t17 -12.5t7 -23.5z" />
<glyph unicode="u" horiz-adv-x="391" d="M433 173q0 -5 -2.5 -12t-9.5 -17q-16 -23 -39 -49.5t-50 -49.5t-55 -38t-54 -15q-29 0 -38 16.5t-9 36.5q0 10 1.5 18.5t3.5 16.5q2 9 4 16q0 4 -2 4q-1 0 -3 -2q-22 -30 -48 -54q-22 -20 -50.5 -37.5t-58.5 -17.5q-29 0 -39 15.5t-10 35.5q0 33 18 76t40 81q26 45 58 92 q4 5 14.5 11.5t38.5 6.5q8 0 8 -7q0 -3 -1 -4t-1 -2q-11 -16 -38 -59.5t-55 -99.5q-7 -14 -13 -28q-5 -12 -9 -25.5t-4 -24.5q0 -6 3.5 -16.5t19.5 -10.5q9 0 24 7t37.5 27.5t52 59t67.5 101.5q14 23 29.5 46t22.5 32q3 5 10 9q6 4 16 6.5t27 2.5q8 0 8 -7q0 -4 -1 -5t-1 -2 q-11 -14 -35.5 -52t-48.5 -84q-10 -21 -18 -41q-7 -17 -13 -36.5t-6 -36.5q0 -8 3 -17.5t17 -9.5q16 0 36.5 14t44 36t48 50t48.5 56q0 1 1 2t3 1q1 0 4.5 -4t3.5 -12z" />
<glyph unicode="v" horiz-adv-x="366" d="M423 189q0 -8 -7.5 -20t-18.5 -26q-26 -34 -58.5 -53t-66.5 -19q-30 0 -58 16q-28 -36 -59 -65q-26 -25 -58.5 -45t-64.5 -20q-25 0 -34 19t-9 39q0 42 8 79t20.5 70t27 61.5t27.5 51.5q5 10 14 15.5t17.5 8t16 3t9.5 0.5q11 0 11 -5q0 -3 -1 -5t-2 -3q-26 -43 -46 -88 q-17 -38 -31.5 -83t-14.5 -84q0 -14 4 -23t12 -11q20 0 43 16t43 36q23 23 45 52q-11 14 -15 29t-4 30q0 34 12.5 64t30.5 52.5t39 35.5t38 13q14 0 19 -6.5t5 -20.5q0 -25 -12 -56.5t-27 -59.5q-18 -33 -40 -66q22 -13 44 -13q24 0 50.5 17.5t58.5 55.5q4 5 8.5 10.5 t9.5 10.5q0 1 1 1h4q6 0 8 -7q1 -4 1 -7zM281 277q0 19 -9 19q-6 0 -16.5 -10t-21 -26t-18 -35.5t-7.5 -39.5t5 -32q3 -6 5 -11q17 26 31 51q12 21 21.5 44.5t9.5 39.5z" />
<glyph unicode="w" horiz-adv-x="529" d="M586 189q0 -8 -7.5 -20t-18.5 -26q-52 -67 -121 -67q-30 0 -58 16q-26 -36 -55 -65q-25 -25 -55 -45.5t-61 -20.5q-26 0 -36 18.5t-10 46.5q0 15 2 31t6 35v1q0 1 -2 1q-1 0 -5 -4q-22 -30 -46 -55q-20 -21 -45 -38t-49 -17q-12 0 -19 6.5t-10.5 17t-5 23t-1.5 25.5 q0 28 11 67.5t25.5 77t28 66.5t18.5 35q5 8 14 14q8 5 18.5 9t26.5 4q8 0 8 -6q0 -4 -1 -5t-1 -2q-27 -50 -48 -97q-9 -20 -18 -41t-15.5 -41.5t-11 -39t-4.5 -33.5q0 -14 2 -20.5t13 -6.5t33 17.5t47 47t49.5 66.5t40.5 76q11 17 26.5 20.5t29.5 3.5q8 0 8 -6q0 -4 -1 -5 t-1 -2q-5 -9 -11.5 -22.5t-12.5 -26.5q-7 -15 -14 -31q-9 -23 -16 -47q-6 -20 -11 -43t-5 -41q0 -31 18 -34q20 0 42 16.5t40 36.5q21 23 42 52q-11 14 -15 29t-4 30q0 34 12.5 64t30.5 52.5t39 35.5t38 13q14 0 19 -6.5t5 -20.5q0 -25 -12 -56.5t-27 -59.5q-18 -33 -40 -66 q22 -13 44 -13q24 0 48.5 15t56.5 53q4 5 8.5 10.5t9.5 10.5q0 1 1 1h4q6 0 8 -7q1 -4 1 -7zM448 282q0 19 -9 19q-6 0 -16.5 -10t-21 -26t-18 -35.5t-7.5 -39.5t5 -32q3 -6 5 -11q17 26 31 51q12 21 21.5 44.5t9.5 39.5z" />
<glyph unicode="x" horiz-adv-x="415" d="M457 173q0 -5 -2 -12t-10 -17q-48 -63 -87 -99t-67.5 -54.5t-46 -23t-21.5 -4.5q-10 0 -22 2t-22 10.5t-16.5 24.5t-6.5 43v17.5t2 32.5q-60 -59 -107.5 -85t-73.5 -26q-12 0 -19 3t-11 8t-5 11q0 1 1 3q1 3 8 3t22.5 3t41 15t61.5 36.5t84 67.5q2 36 4.5 62t2.5 44 q0 9 -2.5 19t-11.5 10q-6 0 -18 -9t-25.5 -23t-28 -30t-26.5 -30t-20 -24t-9 -11q-3 -3 -6 -3t-5 3q-1 2 -2 3v2q0 1 -0.5 2.5t-0.5 3.5q0 4 0.5 8.5t3.5 10.5q30 39 59 71q25 27 53 49t51 22q22 0 29 -18t7 -46q0 -20 -2 -37.5t-3 -31.5q2 1 13 12.5t27 27.5t36.5 34 t41 33.5t40 26t34.5 10.5q8 0 20.5 -6t12.5 -17q0 -6 -9 -6q-23 0 -53.5 -17.5t-61.5 -42t-58.5 -51t-45.5 -43.5q-1 -15 -1 -27.5v-22.5q0 -16 0.5 -31.5t4.5 -27t11.5 -18.5t21.5 -7q11 0 27 7.5t39.5 27.5t56.5 55t78 90q0 1 1 2t3 1q1 0 4.5 -4t3.5 -12z" />
<glyph unicode="y" horiz-adv-x="371" d="M391 295q-1 -25 -20.5 -56t-48.5 -62t-64.5 -59.5t-67.5 -50.5l-7 -16q-6 -13 -12 -28q-5 -13 -12.5 -29.5t-15.5 -34.5h10q23 -1 41 -8q15 -6 27.5 -18t12.5 -35q0 -6 -1.5 -15t-4.5 -17t-8.5 -14t-13.5 -6q-4 0 -6 4q-1 2 -1 4l1 12q0 5 -1 15t-7.5 20.5t-19.5 18.5 t-36 8h-6q-37 -93 -82 -166q-19 -31 -42 -60.5t-48.5 -53t-53 -37.5t-57.5 -14q-19 0 -32.5 10.5t-13.5 36.5q0 37 21.5 80.5t60 86t91 79t113.5 59.5q9 20 18.5 39.5t17.5 38.5q-20 -9 -38 -17q-16 -7 -33.5 -12.5t-31.5 -5.5q-26 0 -34.5 15.5t-8.5 34.5q0 33 15 69.5 t35 71t40.5 63t31.5 44.5q3 5 8 9q11 9 32 9q13 0 15.5 -3.5t2.5 -5.5v-4q0 -1 -1 -1q-3 -4 -13.5 -18.5t-24 -35t-28.5 -45t-27.5 -49t-21 -47.5t-8.5 -41q0 -9 2 -13q1 -2 5 -5q7 -5 18 -5t25 5t28 12q16 8 32 17q23 56 49 103t53.5 81.5t55.5 54t56 19.5q13 0 20 -5 t10 -11q4 -7 4 -16zM349 283q0 9 -8 9q-9 0 -19 -7.5t-21 -20t-21.5 -28t-20.5 -32.5q-23 -39 -46 -89q13 8 35.5 29t45 46t39 50.5t16.5 42.5zM71 -87q-56 -23 -98 -60t-70 -75t-41.5 -72t-13.5 -51t8 -21.5t16 -4.5q15 0 31 12t33 32t33.5 45.5t31.5 52.5q35 62 70 142z " />
<glyph unicode="z" horiz-adv-x="339" d="M466 -126q0 -3 -1 -4q-2 -2 -4 -2t-6 2q-2 1 -3 3q-18 14 -38 21.5t-37 11.5q-19 4 -38 6q-8 1 -15.5 1.5t-15.5 0.5q-22 0 -42 -2t-40 -6q-9 -45 -33.5 -97t-57.5 -96.5t-71.5 -73.5t-77.5 -29q-24 0 -32.5 18t-8.5 38q0 22 14.5 58t44.5 74.5t75 73t105 54.5 q2 8 2 14.5v14.5q0 52 -19 68.5t-57 16.5q-32 0 -53 -6.5t-26 -6.5q-4 0 -6 4q-1 2 -1 3q2 9 10 18q4 4 7 8q3 2 8.5 4.5t11.5 4.5q7 3 15 4q24 6 54.5 24t57.5 43t45.5 54t18.5 59q0 34 -33 34q-18 0 -43 -12.5t-51 -33t-50.5 -45.5t-41.5 -50q-5 -5 -9 -5q-8 0 -8 15 q0 5 2 11t8 14q20 25 44 49q20 20 47.5 41t58.5 32q8 4 19 7q9 2 20 4t23 2q25 0 45 -11.5t20 -45.5q0 -36 -24.5 -69t-54.5 -59q-35 -30 -80 -56q-1 0 -2 -1q-3 -3 -3 -4q0 -4 6 -5q25 -6 44 -20q17 -12 30 -34t13 -60v-6.5t-1 -6.5q18 3 37.5 5t40.5 2q7 0 27.5 -1 t44.5 -7t47 -18t35 -34l2 -4q1 -2 1 -7zM178 -109q-47 -18 -82.5 -45t-59.5 -56.5t-36 -58.5t-12 -50q0 -26 18 -26q15 0 39.5 20t50 53t48.5 75.5t34 87.5z" />
<glyph unicode="{" horiz-adv-x="289" d="M435 638q0 -4 -9 -9q-12 -4 -30 -21q-15 -14 -36 -43.5t-49 -80.5q-5 -14 -21.5 -43t-40.5 -59t-54 -54.5t-63 -29.5h-1q-2 0 -2 -1t2 -3l7 -14q3 -7 5 -17t2 -24q0 -36 -19.5 -75t-43.5 -79t-43.5 -80.5t-19.5 -79.5l2 -14q0 -6 -4 -7.5t-7 -1.5q-6 0 -11 6t-8 15t-5 19 t-2 17q0 42 19.5 84.5t42.5 82.5t42.5 75t19.5 62q0 10 -2.5 16t-5.5 11q-4 5 -8 8q-5 3 -5 5q0 7 6 7q30 2 57 25.5t47 51.5q24 33 43 73q36 68 67.5 105.5t55 55.5t38.5 21.5t18 3.5q16 0 16 -8z" />
<glyph unicode="|" horiz-adv-x="336" d="M56 -67q-7 -11 -22.5 -17.5t-22.5 -6.5q-12 0 -12 8q3 5 22 37.5t48 82t64.5 110.5t72.5 124q86 148 194 333q6 7 18.5 16t29.5 9q8 0 8 -5z" />
<glyph unicode="}" horiz-adv-x="296" d="M352 589q0 -42 -18.5 -82t-40.5 -76t-40.5 -68.5t-18.5 -59.5q0 -10 2.5 -16t5.5 -11q4 -5 8 -8q5 -3 5 -5q0 -7 -6 -7q-15 -1 -29.5 -9t-28 -20t-25.5 -27t-23 -30q-25 -36 -47 -82q-36 -68 -67.5 -105.5t-55 -55.5t-38.5 -21.5t-18 -3.5q-16 0 -16 8q0 4 9 9 q12 4 30 21q15 14 36.5 43t48.5 81q8 14 24.5 45.5t40.5 64.5t54.5 60.5t65.5 33.5h2q1 0 1 1t-2 3l-7 14q-7 16 -7 41q0 36 19 72t41.5 72.5t41 74.5t18.5 77l-2 14q0 6 4 7.5t7 1.5q6 0 11 -6t8 -15t5 -19t2 -17z" />
<glyph unicode="&#xa1;" horiz-adv-x="254" d="M254 347q0 -9 -2 -19q-2 -8 -6 -16.5t-12 -16.5q-18 -15 -29.5 -17.5t-18.5 -0.5q-8 3 -13 11q-4 17 3 30t17 23q11 11 27 20q9 3 17 3q7 0 12 -3.5t5 -13.5zM162 179q-5 -7 -15.5 -24.5t-24 -41.5t-29.5 -52.5t-31 -56.5q-36 -66 -78 -145q-14 -25 -28.5 -37.5 t-27.5 -18.5q-15 -7 -29 -8q-13 -2 -17.5 0.5t-6.5 6.5t0 10q4 4 16 22t28.5 44t37 57.5t40.5 63.5q48 76 106 170q6 9 14 13.5t16 6.5q9 2 18 1q9 0 11 -5q1 -3 0 -6z" />
<glyph unicode="&#xa2;" horiz-adv-x="408" d="M364 172q0 -18 -22 -52t-59 -68t-84.5 -59.5t-97.5 -25.5q-3 0 -4 -3q-8 -14 -13.5 -24.5t-9.5 -15.5q-5 -9 -11.5 -14t-11.5 -7q-6 -3 -12 -3t-6 6q0 4 2 6q7 10 14 22.5t19 34.5q0 1 1 2q0 2 -1 2h-2q-18 5 -34 22.5t-16 59.5q0 36 19 81.5t52 85.5t77 67.5t94 27.5 q3 0 4 2l15 25t8 14q10 14 20.5 17t14.5 3q5 0 5 -5q0 -4 -1 -6q-9 -15 -16 -27q-6 -11 -11 -19t-5 -10q0 -1 0.5 -1t0.5 -1v-1q5 -4 11 -12t6 -24q0 -28 -13 -47t-30.5 -31t-36 -17.5t-29.5 -5.5q-15 0 -22 4.5t-7 6.5q0 3 4 5q2 1 3 1q37 9 59.5 33.5t22.5 47.5 q0 11 -4.5 15t-13.5 4q-24 0 -53.5 -25t-55 -61t-42.5 -76.5t-17 -70.5q0 -23 11 -36.5t37 -13.5q21 0 47 9t55.5 30t62 55.5t66.5 86.5q0 1 1 2t2 1t3 -2q1 -1 2 -4q2 -6 2 -11z" />
<glyph unicode="&#xa3;" horiz-adv-x="731" d="M669 577q0 -43 -23 -81.5t-60.5 -69t-85 -52t-95.5 -31.5q-2 -3 -3.5 -6.5t-3.5 -6.5l-10 -22t-11 -22q17 -1 30 -1h24h25.5t24.5 1q2 0 5 -0.5t3 -5.5q0 -2 -1 -5.5t-5 -7t-13 -6.5t-26 -6h-8.5t-14.5 -0.5t-23.5 -0.5h-36.5q-32 -60 -74 -120t-90 -104q14 -4 27.5 -8 t27.5 -9q26 -9 55 -16q25 -6 56.5 -10.5t63.5 -4.5q51 0 89.5 16.5t65 41.5t39.5 55t13 57q0 38 -37 38q-7 0 -18.5 -2t-25 -8t-28.5 -18t-30 -32q-9 -11 -17 -24q-7 -11 -14 -25.5t-12 -31.5q0 -2 -1 -4q-2 -3 -8 -5q-3 1 -5 4q-2 2 -3 7t-2 14q0 3 1 15t7 29.5t17.5 38 t32.5 39.5q15 13 33 23q15 8 34 15t40 7q8 0 19.5 -1.5t22.5 -8.5t19 -21t8 -40q0 -51 -26.5 -93t-65.5 -72.5t-84 -47t-82 -16.5q-39 0 -71.5 9t-61 21t-55.5 24t-55 18q-6 -4 -8 -5q-21 -18 -47 -31q-22 -11 -52 -20.5t-65 -9.5q-46 0 -68.5 14t-22.5 33q0 24 36 46 t109 22q46 0 108 -13q3 3 5 4.5t4 3.5t2 3q29 29 63.5 82.5t70.5 122.5h-20h-29q-6 0 -10 -1q-6 0 -6 4q0 2 1 3l1 1q4 6 10 11q5 5 12.5 8.5t17.5 3.5q4 1 10 1h29q5 8 10 18.5t14 28.5q-11 0 -21 -1q-8 -1 -16.5 -1.5t-13.5 -0.5q-49 0 -84.5 9.5t-58.5 25t-33.5 36 t-10.5 42.5q0 28 15.5 55.5t43.5 50t67.5 36.5t87.5 14q21 0 41.5 -2t37.5 -6.5t27.5 -10t10.5 -13.5q0 -4 -4 -5q-11 0 -28.5 4t-50.5 4q-46 0 -83.5 -12t-63 -30.5t-39.5 -41.5t-14 -45q0 -33 33 -58t105 -25q14 0 26 1t21 2q11 1 20 2q27 54 60 101t68.5 81.5t71.5 54 t70 19.5q16 0 24.5 -5t12.5 -12t5 -14.5t1 -11.5zM623 565q0 19 -20 19q-15 0 -30.5 -9t-31 -23.5t-30 -33t-28.5 -38.5q-32 -46 -61 -104q26 2 60.5 20.5t66 45.5t53 59.5t21.5 63.5zM126 14q-45 9 -75 9q-47 0 -71.5 -12.5t-24.5 -24.5q0 -19 46 -19q38 0 70 15t55 32z " />
<glyph unicode="&#xa5;" horiz-adv-x="694" d="M787 570q0 -33 -21 -68.5t-52 -70t-67 -64.5t-65 -51q-9 -20 -22 -50.5t-29 -65.5q30 0 55 0.5t42 1.5q2 0 5 -1t3 -4q0 -5 -6 -13t-38 -12q-11 -1 -32.5 -1h-42.5q-9 -19 -19 -38q31 0 56 0.5t42 1.5q3 0 5 -1q4 -2 4 -4t-1 -4q-1 -6 -9 -11q-7 -5 -20 -8t-37 -3h-55 q-41 -74 -91 -132q-21 -25 -46.5 -48.5t-54 -42t-59.5 -30t-65 -11.5q-9 0 -23 2.5t-27.5 9.5t-23 20.5t-9.5 36.5q0 27 15 55.5t38.5 51.5t51.5 37.5t54 15.5q3 -1 7 -2q7 -2 7 -5q0 -4 -16 -11q-23 -9 -42 -25.5t-32.5 -36t-20.5 -39.5t-7 -36q0 -26 12.5 -34t29.5 -8 q44 0 82.5 26t70.5 62.5t56.5 76.5t39.5 68q-15 1 -27.5 1h-23.5h-32q-7 0 -12 -1q-7 0 -7 4q0 2 1 3l1 1q4 6 10 10q5 4 12.5 7.5t17.5 3.5q5 1 12 1h37h27q3 6 8 15t12 22q-16 1 -29.5 1h-24.5h-35q-7 0 -12 -1q-6 0 -6 4q0 2 1 3l1 1q4 7 10 11q5 4 12.5 7t17.5 3 q5 1 16 1h63q8 15 16 33.5t18 40.5q-21 -11 -46 -21q-21 -8 -47.5 -15t-55.5 -7q-24 0 -37.5 6t-20 14t-8 15.5t-1.5 10.5q0 43 19 79t42.5 69t42.5 64t19 64q0 17 -6.5 25.5t-14.5 12.5q-10 4 -21 5q-55 -1 -105.5 -22.5t-89.5 -51t-62 -60t-23 -50.5q0 -14 11 -19.5 t28 -5.5q20 0 56.5 11.5t81.5 52.5l2 2q1 1 5 1q3 0 5 -1t2 -7q0 -15 -16.5 -33.5t-42 -35t-55.5 -27.5t-57 -11q-34 0 -51 11t-17 39q0 30 26 71t71 77.5t107 62.5t134 26q7 0 21 -2t27.5 -9.5t23.5 -22.5t10 -41q0 -34 -17.5 -67.5t-38.5 -66.5t-38.5 -64t-17.5 -59 q0 -17 9.5 -21.5t28.5 -4.5q25 0 48.5 7.5t43.5 16.5q23 11 43 24q20 46 44 96t52 91.5t60.5 68.5t68.5 27q11 0 17 -4.5t9 -10.5q4 -7 4 -16zM747 549q0 4 -2 7.5t-7 3.5q-9 0 -21.5 -9t-29 -31.5t-37.5 -59t-47 -92.5q26 19 52 44.5t46.5 51t33 48.5t12.5 37z" />
<glyph unicode="&#xa7;" horiz-adv-x="500" d="M511 525q0 -13 -8 -21.5t-10 -8.5q-4 0 -9 4t-14 8.5t-23 8.5t-35 4q-29 0 -53.5 -6.5t-42 -16t-27.5 -21.5t-10 -23q0 -14 13 -25.5t32 -21.5t42 -19.5t42 -20.5t32 -25t13 -32q0 -6 -3.5 -20t-19.5 -32.5t-48.5 -40.5t-91.5 -44l-1 -1q-2 -2 -2 -4t4 -5q11 -7 20 -16 q8 -8 14 -18t6 -21q0 -21 -16.5 -44.5t-46.5 -43t-72 -32t-94 -12.5q-26 0 -54 5.5t-46 22.5q-10 10 -10 21t7 20l8 8q3 2 7 2q3 0 7 -2q2 -1 2 -3q10 -13 23 -21t26.5 -12t26.5 -5.5t23 -1.5q21 0 46 6.5t46.5 18.5t36 28t14.5 35q0 18 -14.5 32.5t-36 27t-47 24t-47 23.5 t-36 26t-14.5 32q0 19 13.5 36t34.5 31t45 25t45 18.5t35.5 11.5t15.5 4q7 1 7 5q0 2 -2 4q-1 1 -3 1q-26 13 -35 26.5t-9 25.5q0 20 12.5 35.5t32 27t43.5 20t48 13.5t45 7t34 2q14 0 28 -1t25.5 -4t18.5 -9t7 -16zM392 299q0 13 -10 23.5t-23 18.5q-15 10 -34 17 q-2 1 -6 2q-3 1 -8 1h-11q-19 0 -47.5 -7.5t-54.5 -21t-45 -30.5t-19 -37q0 -9 14 -21t33 -22.5t39 -18t32 -7.5q14 0 37.5 8.5t46 23t39.5 33t17 38.5z" />
<glyph unicode="&#xa8;" horiz-adv-x="500" d="M372 442q0 -13 -6 -25t-15 -21t-19 -14t-18 -5q-11 0 -16.5 7t-5.5 17q0 12 5.5 23.5t14.5 20.5t19.5 14.5t19.5 5.5q21 0 21 -23zM225 442q0 -13 -6 -25t-15 -21t-19 -14t-18 -5q-11 0 -16.5 7t-5.5 17q0 12 5.5 23.5t14.5 20.5t19.5 14.5t19.5 5.5q21 0 21 -23z" />
<glyph unicode="&#xaa;" horiz-adv-x="487" d="M547 448q0 -5 -2 -11.5t-8 -14.5q-43 -57 -78.5 -89.5t-61 -48t-41 -19.5t-19.5 -4q-27 0 -36 14t-9 31q0 20 5 34t5 17q0 2 -1 2l-2 -1q-1 -1 -2 -1q-23 -25 -44 -39.5t-38 -22t-30 -9.5t-20 -2q-14 0 -22.5 5t-13.5 12.5t-6.5 16.5t-1.5 18q0 36 21 77t54 76.5t73.5 59 t78.5 23.5q14 0 27 -6t20 -23l1 -1q2 -2 3 -2q2 0 3 3q8 14 18.5 24t23.5 10q5 0 14 -2t9 -8v-3q0 -1 -1 -1q-15 -19 -30.5 -44.5t-29.5 -48.5q-16 -26 -30 -54q-10 -17 -18 -34q-7 -14 -12.5 -30t-5.5 -29q0 -9 4 -16.5t18 -7.5q9 0 22 6.5t33.5 24t50 49t69.5 81.5l1 1 q1 1 2 1t4 -3t3 -11zM369 210q0 -2 -3 -7q-13 -22 -37.5 -27t-59.5 -5q-9 0 -32.5 0.5t-48.5 0.5h-64h-51t-24.5 -1t-9 -1.5t-5.5 -0.5q-9 0 -9 7q0 1 0.5 1.5t0.5 1.5v1q0 1 3 5.5t9 10t15.5 10t22.5 4.5h232q20 0 31 0.5t19 2.5q1 1 2 1h4q5 0 5 -4zM372 520q0 15 -7 19.5 t-17 4.5q-22 0 -52 -21.5t-57.5 -52.5t-46.5 -65.5t-19 -60.5q0 -8 3.5 -16.5t17.5 -8.5q17 0 38.5 13.5t45 37t46 54.5t40.5 66q5 10 6.5 17.5t1.5 12.5z" />
<glyph unicode="&#xab;" horiz-adv-x="570" d="M519 316q0 -4 -10 -8q-9 -6 -38 -22t-64.5 -37t-68.5 -43.5t-49 -42.5v-1q0 -1 -0.5 -1.5t-0.5 -2.5q0 -5 2 -9q8 -17 32.5 -54.5t73.5 -96.5q0 -1 1 -2t1 -4q0 -4 -4 -5q-5 -1 -9.5 -1.5t-8.5 -0.5q-15 0 -24 7l-8 8q-21 21 -41 48.5t-35 52.5q-18 29 -34 59q0 1 -1 2 t-1 5q0 9 10 18q46 32 86 59q35 23 70 45t53 30l10 4t9 3t9 1t12.5 -0.5t15.5 -2.5l6 -2q6 -2 6 -6zM348 319q0 -4 -7 -7q-36 -21 -70 -43q-29 -19 -61 -40.5t-55 -41.5q-1 -1 -2 -3q-2 -4 -2 -8q0 -3 1 -5l36 -64q16 -27 36 -56.5t41 -50.5q0 -1 1 -2t1 -5q0 -3 -8 -5 q-4 -1 -9 -1q-14 0 -30 12t-31.5 30t-30 40t-26 41.5t-19 34.5l-9.5 19q-4 7 -5 12t-1 9q0 5 1 6t1 2q1 5 10 13t22.5 18t30.5 21.5t35 22.5q41 26 93 57q2 1 6 2q8 2 18 2q2 0 7 -0.5t11 -1.5t10.5 -3t4.5 -5z" />
<glyph unicode="&#xad;" horiz-adv-x="358" d="M311 179q0 -2 -3 -7q-13 -22 -37.5 -27t-59.5 -5q-9 0 -17 0.5t-14 0.5h-14q-34 1 -51 0.5t-24.5 -1t-9 -1.5t-5.5 -1q-9 0 -9 7q0 1 0.5 1.5t0.5 1.5v1q0 1 3 5.5t9 10t15.5 10t22.5 4.5h132q20 0 31 0.5t19 2.5q1 1 2 1h4q5 0 5 -4z" />
<glyph unicode="&#xaf;" d="M428 404q0 -2 -3 -7q-13 -22 -37.5 -27t-59.5 -5q-9 0 -17 0.5t-14 0.5h-14q-34 1 -51 0.5t-24.5 -1t-9 -1.5t-5.5 -1q-9 0 -9 7q0 1 0.5 1.5t0.5 1.5v1q0 1 3 5.5t9 10t15.5 10t22.5 4.5h132q20 0 31 0.5t19 2.5q1 1 2 1h4q5 0 5 -4z" />
<glyph unicode="&#xb0;" horiz-adv-x="315" d="M306 518q0 -27 -12 -49t-30 -38.5t-38.5 -25.5t-38.5 -9q-20 0 -31.5 14t-11.5 37q0 24 11 46.5t28 39.5t37.5 27t40.5 10q22 0 33.5 -14.5t11.5 -37.5zM269 506q0 25 -24 25q-10 0 -21 -6t-20.5 -15.5t-16 -22t-6.5 -25.5q0 -11 6 -18.5t17 -7.5q17 0 29 9t20 21 t12 23.5t4 16.5z" />
<glyph unicode="&#xb1;" horiz-adv-x="391" d="M440 184q0 -6 -3 -14.5t-11 -19.5q-32 -44 -68.5 -80.5t-61.5 -55.5q-40 -30 -63.5 -37t-39.5 -7q-29 0 -38.5 13.5t-9.5 29.5q0 24 14.5 55t32 62t32 57.5t14.5 40.5q0 6 -3 7q-2 1 -3 1q-24 0 -60 -25.5t-74 -63.5t-72 -82t-52 -81q-2 -5 -6 -7t-6 -2q-19 0 -22 9.5 t-3 16.5q0 4 13.5 33t37 74.5t54 103t64 117.5t69 119t67.5 108q4 5 12.5 12.5t29.5 7.5q5 0 10.5 -1.5t5.5 -7.5q0 -5 -6 -14q-13 -19 -34.5 -54.5t-46.5 -78t-50.5 -87t-46 -81t-33.5 -60.5t-13 -25q0 -3 2 -3t5 4q36 33 70 59q29 22 61.5 40t58.5 18q2 0 7.5 -1 t10.5 -4.5t9 -10t4 -18.5q0 -22 -14.5 -52.5t-32.5 -62t-32.5 -60.5t-14.5 -49q0 -17 17 -17q5 0 14 2t21 9q15 8 40 29q21 18 53.5 52.5t79.5 93.5l2 2q1 1 3 1l2 -2q1 -1 2 -3q2 -4 2 -10z" />
<glyph unicode="&#xb2;" horiz-adv-x="404" d="M514 567q0 -5 -6 -14q-6 -10 -20.5 -33t-33.5 -54t-41 -67.5t-44 -72.5q-52 -85 -113 -188q-11 -20 -20 -38q-8 -16 -14 -34t-6 -32q0 -10 4.5 -18t19.5 -8q10 0 24.5 7t37 26.5t55 54.5t77.5 90q0 1 1 2t3 1q1 0 4.5 -4t3.5 -12q0 -5 -2 -12t-10 -17q-48 -63 -87 -99 t-67.5 -53.5t-46 -22t-21.5 -4.5q-30 0 -40 15.5t-10 34.5q0 23 6 38.5t6 18.5q0 2 -2 2l-2 -1q-1 -1 -2 -1q-25 -28 -48.5 -44t-43 -24.5t-33.5 -10.5t-22 -2q-15 0 -25 5.5t-15 14t-7 18.5t-2 20q0 39 23.5 85t60 85.5t81.5 65.5t87 26q17 0 31 -7t22 -25q0 -1 1 -2 q2 -2 3 -2l13 20.5t32.5 51.5t42 67.5t41.5 67.5t32.5 52t13.5 22q4 5 12.5 12.5t29.5 7.5q5 0 10.5 -1.5t5.5 -7.5zM251 253q0 17 -8 22t-19 5q-24 0 -57.5 -23.5t-64 -58t-51.5 -73t-21 -67.5q0 -10 4.5 -19t19.5 -9q18 0 42 15t49.5 41t51 60.5t45.5 73.5q5 11 7 19t2 14 z" />
<glyph unicode="&#xb3;" horiz-adv-x="454" d="M703 453q0 -7 -9 -7q-5 0 -14 3q-19 5 -59 11.5t-98 6.5h-21.5t-21.5 -1q-3 -5 -6 -9t-5 -8q-22 -34 -46.5 -73t-48 -79.5t-45.5 -80t-38.5 -74.5t-26.5 -63.5t-10 -46.5q0 -11 3 -20t21 -9q10 0 26 8t40.5 28.5t58.5 56t79 90.5q0 1 1 2t3 1q1 0 4.5 -4t3.5 -12 q0 -5 -2 -12t-10 -17q-48 -63 -87 -99.5t-68.5 -54.5t-48.5 -23t-26 -5q-29 0 -39.5 19t-10.5 40q0 15 4 34t11 41q-40 -46 -72.5 -73t-56.5 -40.5t-40 -17t-22 -3.5q-29 0 -39.5 19t-10.5 40q0 35 19.5 86.5t49.5 109.5t66 117.5t70 110.5q-13 -1 -26 -1h-24q-39 0 -64.5 5 t-40 12.5t-20.5 16.5t-6 17q0 11 4 16t7 5q6 0 10 -6q7 -11 24 -20q14 -8 39 -14t65 -6q23 0 51 3q18 27 34 50t27 40q3 5 10 9q6 3 16 5.5t27 2.5q9 -1 9 -7v-3q0 -1 -1 -2q-7 -11 -17 -25q-8 -12 -18.5 -28t-24.5 -36q44 4 88.5 8t89.5 8q14 20 27 38.5t20 29.5q3 5 10 9 q6 3 16 5.5t27 2.5q9 -1 9 -7v-3q0 -1 -1 -2q-6 -10 -14 -21q-7 -10 -15 -22t-17 -26q14 1 29 1h30q39 0 66 -5t44 -12t24.5 -15t7.5 -15zM419 463q-44 -3 -89 -6.5t-87 -7.5q-22 -34 -46.5 -73t-48 -79.5t-45.5 -80t-38.5 -74.5t-26.5 -63.5t-10 -46.5q0 -11 3 -20t21 -9 q10 0 26 7.5t40 28t57.5 55.5t77.5 89q32 65 73.5 133.5t80.5 128.5q5 8 12 18z" />
<glyph unicode="&#xb4;" horiz-adv-x="301" d="M250 489q0 -8 -4 -25.5t-23 -34.5q-3 -3 -18 -10.5t-34 -15.5t-38.5 -14.5t-32.5 -6.5q-5 0 -5 5q0 2 0.5 2.5t0.5 1.5v2q16 15 37 32q18 14 42.5 33t56.5 39q1 0 3 1t5 1q9 0 10 -10z" />
<glyph unicode="&#xb6;" horiz-adv-x="500" d="M545 565q0 -3 -4 -7q-3 -3 -10 -5.5t-21 -4.5q-11 0 -22 -5q-10 -5 -20.5 -14t-19.5 -26q-69 -113 -130 -220q-26 -46 -52.5 -95t-51 -97t-45 -92.5t-33.5 -80.5q-1 -1 -2 -3q-1 -3 -5 -3q-6 2 -11 6t-8 10.5t-3 17.5q0 15 13.5 48t35.5 77.5t50 95.5t57 102 q69 120 156 262q2 3 2.5 5t1.5 4t0 4q-3 4 -14 4t-18 -1t-12 -3q-6 -2 -10 -5q-77 -119 -140.5 -229.5t-109.5 -197.5q-54 -101 -97 -190q-2 -5 -4.5 -6.5t-4.5 -1.5q-7 0 -11.5 4t-7 9t-3.5 9.5t-1 5.5v4q0 1 1 2q0 6 6.5 21.5t17 37t24.5 47t28 51.5q33 61 75 133q2 4 2 5 q0 3 -4 3q-59 0 -91.5 23t-32.5 71q0 55 31 100t86 77.5t131.5 50t166.5 17.5q22 0 39 -0.5t30 -1.5q15 -1 27 -3q5 0 9 -2q9 -4 9 -13zM324 540q0 3 -4 3q-29 0 -65.5 -21.5t-68.5 -55.5t-54 -75t-22 -80q0 -16 7.5 -24t30.5 -8q4 0 11.5 2t11.5 8q20 36 46.5 78.5 t49.5 80.5q27 44 55 87q0 1 1 2t1 3z" />
<glyph unicode="&#xb7;" horiz-adv-x="296" d="M212 167q0 -13 -6 -24.5t-15 -20.5t-19 -14t-19 -5q-10 0 -15 6.5t-5 16.5q0 12 5.5 23.5t14 21t19 15t19.5 5.5q10 0 15.5 -6.5t5.5 -17.5z" />
<glyph unicode="&#xb8;" horiz-adv-x="163" d="M122 -82q0 -21 -18 -32t-38 -11q-14 0 -25.5 5t-11.5 14q0 2 2 3.5t4 1.5q5 0 7.5 -2.5t14.5 -2.5t23 6.5t11 13.5q0 8 -6 11t-13 5t-13 4.5t-6 8.5q0 9 9.5 16.5t9.5 9.5q1 1 4 1q6 0 9 1q5 1 12 1q-3 -2 -6 -6q-2 -3 -4.5 -6.5t-2.5 -5.5q0 -3 6 -5.5t13 -5.5t13 -9 t6 -16z" />
<glyph unicode="&#xb9;" horiz-adv-x="349" d="M461 592q0 -9 -10.5 -18t-35.5 -26q-2 -1 -4 -3t-3.5 -4t-3.5 -5q-10 -18 -24 -43q-12 -21 -30 -50.5t-42 -66.5q-60 -94 -108 -178q-21 -36 -40.5 -72.5t-35.5 -69.5t-26 -60t-12 -44q0 -3 -2 -6q-4 -6 -8 -6q-14 0 -22 6t-12 14q-4 9 -5 20q0 10 6 27.5t16.5 39 t23.5 46t26 48.5q32 56 71 122q47 73 78 123.5t50 82.5q22 38 35 61q2 6 2 7q0 3 -3 3h-3q-1 0 -2 -1q-58 -20 -100 -45t-70 -48q-33 -26 -54 -54q-7 -11 -13 -11q-2 0 -3.5 1.5l-3.5 3.5t-3 4v2q0 2 -0.5 3.5t-0.5 3.5q0 11 8.5 30t40.5 44q25 20 67 42t87.5 41t87.5 31.5 t68 12.5q4 0 8.5 -1.5t4.5 -6.5z" />
<glyph unicode="&#xba;" horiz-adv-x="465" d="M542 459q0 -4 -2 -10t-8 -14q-23 -29 -44.5 -47t-41.5 -28.5t-37.5 -14t-31.5 -3.5h-13.5t-13.5 1q-18 -25 -41 -44q-20 -17 -47 -31t-60 -14q-11 0 -24 4t-24 13t-18 24t-7 37q0 38 19 80.5t48.5 78.5t66 59.5t71.5 23.5q13 0 28 -6.5t15 -26.5q0 -9 -7 -9 q-5 0 -9.5 4.5t-18.5 4.5q-22 0 -50.5 -20t-53 -51t-41.5 -67.5t-17 -69.5q0 -29 14 -39t29 -10q20 0 38 10.5t32 22.5q16 14 29 32q-17 10 -26.5 20t-9.5 33q0 20 10 39.5t25.5 34.5t33.5 24.5t33 9.5q9 0 15.5 -5.5t6.5 -19.5t-6 -32.5t-14 -36.5q-9 -21 -21 -43h17 q26 0 61.5 19t82.5 79l1 1q1 1 3 1q5 0 7 -7q1 -4 1 -7zM380 210q0 -2 -3 -7q-13 -22 -37.5 -27t-59.5 -5q-9 0 -32.5 0.5t-48.5 0.5h-64h-51t-24.5 -1t-9 -1.5t-5.5 -0.5q-9 0 -9 7q0 1 0.5 1.5t0.5 1.5v1q0 1 3 5.5t9 10t15.5 10t22.5 4.5h232q20 0 31 0.5t19 2.5q1 1 2 1 h4q5 0 5 -4zM377 468q0 7 -3 8q-2 1 -3 1q-6 0 -14 -4.5t-15.5 -13t-13 -21t-5.5 -28.5q0 -22 20 -30q9 17 17 33q7 14 12 29t5 26z" />
<glyph unicode="&#xbb;" horiz-adv-x="493" d="M438 139q0 -5 -1 -6t-1 -2q-1 -4 -10 -12t-22.5 -18.5t-30.5 -22t-35 -22.5q-41 -26 -93 -57q-2 -1 -6 -2q-8 -2 -18 -2q-1 0 -6.5 0.5t-11.5 1.5t-10.5 3t-4.5 5q0 4 7 7q37 21 71 43q29 19 60.5 41t54.5 41q1 1 2 3q2 4 2 8q0 3 -1 5q-17 33 -35 65q-16 27 -36.5 56 t-41.5 50q0 1 -1 2t-1 5q0 2 3 3l6 2q4 1 8 1q14 0 30 -12t31.5 -30t30 -40t26 -41.5t19 -34.5l9.5 -19q4 -7 5 -12t1 -9zM304 157q0 -9 -10 -18q-46 -32 -86 -59q-35 -23 -69.5 -45t-53.5 -30q-4 -2 -9 -4t-9.5 -3t-9.5 -1t-12.5 0.5t-15.5 2.5l-6 2q-6 2 -6 6t10 8 q9 6 38 22t64.5 37t68.5 43.5t49 42.5q1 0 1 1v4q0 5 -2 9q-8 17 -32.5 54.5t-73.5 96.5q0 1 -1 2t-1 4q0 4 4 5q5 1 9.5 1.5t8.5 0.5q15 0 24 -7l8 -8q22 -21 41.5 -48.5t34.5 -52.5q18 -29 34 -59q0 -1 1 -2t1 -5z" />
<glyph unicode="&#xbc;" horiz-adv-x="311" d="M359 205q6 0 7 -5t-0.5 -12.5t-5 -15.5t-6.5 -13q-26 -40 -61 -63.5t-67 -23.5q-27 0 -49 19t-31 62q-16 -10 -36.5 -22.5t-41.5 -28t-40.5 -33t-32.5 -37.5q-6 -7 -12 -16q-5 -8 -11.5 -17t-11.5 -19t-15.5 -12.5t-19.5 -2.5q-8 0 -14.5 1t-6.5 6q0 3 1 4t1 2 q8 16 23 41.5t30 49.5q18 28 36 59q26 44 44 75t29 51q13 24 21 38q2 5 3.5 6.5l3.5 3.5t4 2q13 4 23 4q8 0 12 -2t6 -4q3 -3 2 -7q-2 -11 -17.5 -37.5t-32.5 -55.5q-20 -33 -44 -72q-1 -1 -1 -3t5 -2q17 13 43.5 29.5t49.5 29.5q2 23 15.5 52t34 55t47 43.5t54.5 17.5 q16 0 23 -7.5t7 -25.5q0 -38 -37 -70t-102 -73q0 -2 0.5 -4.5t0.5 -4.5v-3q5 -23 16.5 -36t31.5 -13q32 0 72 37q21 21 45 51q1 0 2 1t3 1zM286 301q0 8 -4 10.5t-9 2.5t-9.5 -2t-9.5 -4q-5 -3 -10 -7q-25 -23 -36.5 -47t-16.5 -44q27 16 48 32q18 14 32.5 29.5t14.5 29.5z " />
<glyph unicode="&#xbd;" horiz-adv-x="502" d="M522 297q0 -28 -20.5 -59.5t-51 -63t-67 -60t-68.5 -51.5q-1 -3 -9.5 -18.5t-18 -33.5t-18 -33.5t-9.5 -17.5q16 0 31.5 -3t28 -9.5t20 -17.5t7.5 -28q0 -8 -3 -24t-17 -28q-7 -6 -11 -6t-6 4q-1 2 -1 4q1 5 1 8.5v7.5q0 19 -6.5 30.5t-15.5 17.5t-19 7.5t-18 1.5h-8 q-11 -22 -22.5 -44.5t-22.5 -45.5q-32 -66 -71 -119q-16 -23 -36 -44t-42.5 -38t-47 -27t-51.5 -10q-16 0 -30 6.5t-14 29.5q0 39 23 84.5t63 89t93 81t114 60.5l36 69q-16 -7 -31 -13q-13 -5 -27 -9.5t-25 -4.5q-28 0 -37 16.5t-9 35.5q0 31 14.5 63.5t31.5 63t31.5 57 t14.5 45.5q0 4 -1.5 8.5t-9.5 4.5q-16 0 -34.5 -12.5t-39.5 -33t-42.5 -46.5t-43.5 -53q-2 -2 -4.5 -5.5t-4.5 -3.5q-5 0 -5.5 6.5t-0.5 11.5q0 4 0.5 8.5t3.5 10.5q12 18 35 45.5t51 53t58 44t57 18.5q23 0 29.5 -13.5t6.5 -23.5q0 -27 -13.5 -57t-30 -61t-30.5 -61 t-14 -56q0 -12 4.5 -18t19.5 -6q11 0 22.5 5t22.5 10q12 6 24 14q6 9 18 32.5t28.5 53t37.5 61.5t44.5 58.5t50 43.5t53.5 17q32 0 32 -30zM485 280q0 10 -10 10q-8 0 -18 -7.5t-21.5 -20t-22.5 -28.5t-22 -33q-25 -40 -51 -89q9 6 33 26.5t48.5 46.5t44 52t19.5 43z M180 -91q-63 -27 -106.5 -66t-70.5 -77t-39 -69.5t-12 -44.5q0 -16 8 -20.5t16 -4.5q12 0 26 9.5t28.5 24.5t29 34.5t27.5 40.5q31 48 62 109q8 16 15.5 31.5t15.5 32.5z" />
<glyph unicode="&#xbe;" horiz-adv-x="399" d="M441 173q0 -5 -2 -12t-10 -17q-48 -63 -85.5 -99t-64 -53.5t-42.5 -22t-20 -4.5q-30 0 -40 15.5t-10 33.5q0 8 1 15t3 12q2 6 3 12q0 4 -2 4q1 0 -3 -2q-25 -26 -48 -41.5t-42 -23t-32.5 -9.5t-20.5 -2q-27 0 -39.5 15t-12.5 41q0 24 10.5 55t29 62.5t44 62t56 54.5 t65 38.5t69.5 14.5q21 0 32 -7.5t16 -16.5q6 -11 7 -25q0 -19 -9 -39t-25 -36.5t-37 -27t-44 -10.5q-12 0 -16.5 2t-4.5 6q0 3 4 5q2 1 3 2q20 5 35.5 16t26.5 24t17 27t6 26q0 14 -6.5 18.5t-15.5 4.5q-20 0 -43 -13.5t-46 -35t-44 -48t-37 -54t-25.5 -52t-9.5 -41.5 q0 -26 23 -26q3 0 15 2.5t31.5 14t47 35.5t61.5 67q7 7 16 10t30 3q1 0 3 -1q3 -1 3 -5t-4 -11q-11 -19 -21 -38q-8 -17 -15 -35t-7 -33q0 -8 3 -16.5t18 -8.5q10 0 24.5 7.5t37 28t54.5 55.5t77 90q0 1 1 2t3 1q1 0 4.5 -4t3.5 -12z" />
<glyph unicode="&#xbf;" horiz-adv-x="396" d="M307 351q0 -24 -9 -38t-20 -21.5t-20.5 -9.5t-11.5 -2q-21 0 -21 23q0 9 5 20.5t14 21t20.5 16.5t23.5 7q7 0 13 -3t6 -14zM235 -43q0 -40 -24.5 -71.5t-61.5 -53t-81.5 -33t-83.5 -11.5q-41 0 -63.5 12.5t-33.5 29t-13.5 32t-2.5 21.5q0 30 22 59.5t55.5 58.5t73 58 t75.5 57.5t63 58t35 59.5q0 2 2 3q4 2 7 2q9 0 17 -8t6 -29q-1 -22 -24 -46t-56 -49.5t-71.5 -52.5t-71.5 -55.5t-55 -59t-22 -61.5q0 -2 2 -11t9.5 -20t22 -19.5t40.5 -8.5q28 0 60 10t59 27t44.5 39t17.5 46q0 12 -5.5 24t-28.5 12q-2 0 -17 -1.5t-32.5 -10t-32.5 -26 t-16 -49.5q0 -2 1 -4t1 -7q0 -8 -7 -8t-17 8.5t-10 28.5q0 23 14 42.5t35.5 33.5t47 21.5t49.5 7.5q29 0 50 -13.5t21 -42.5z" />
<glyph unicode="&#xc0;" horiz-adv-x="729" d="M897 730q0 -5 -6 -5q-17 3 -37 9q-17 5 -39 14t-47 24q-19 17 -23 34.5t-4 25.5q1 10 10 10q4 0 6 -1l2 -1q32 -20 57 -38.5t42 -32.5q20 -17 35 -31q4 -4 4 -8zM854 669q0 -25 -17 -49t-42 -47.5t-53.5 -45.5t-52.5 -43q-2 -7 -3.5 -13t-3.5 -10t-2 -8q-7 -24 -16 -53 q-8 -25 -16 -58.5t-16 -72.5q38 2 75.5 14t64.5 40q1 1 3 2t5 1q6 0 6 -7t-10 -21.5t-30.5 -29.5t-50.5 -26t-70 -11q-8 -41 -12 -83t-4 -84q0 -41 5 -77.5t18 -67.5q5 -13 11 -25q5 -11 13 -21.5t16 -18.5q3 -3 3 -6t-1 -4q-1 -2 -3 -2.5t-4 -1.5t-4 -1q-23 3 -40 18.5 t-28 32.5q-13 20 -22 45q-10 32 -14 66.5t-4 71.5q0 39 4 79t11 79q-29 2 -55 5t-48 8q-56 -73 -120 -130q-27 -24 -59 -47.5t-66.5 -42t-71 -30t-74.5 -11.5q-66 0 -95.5 32.5t-29.5 80.5t25.5 103t71.5 102t108.5 78.5t135.5 31.5q10 0 24 -3t26.5 -9t21.5 -14.5t9 -19.5 q0 -12 -8 -12q-2 0 -6 2q-2 1 -3 1q-7 5 -15.5 8t-16.5 5q-9 2 -18 3q-68 0 -126 -28t-100 -69.5t-66 -89t-24 -87.5q0 -36 22 -60t70 -24q56 0 106.5 26.5t94.5 64t80 78.5t62 69q-8 3 -19 6q-20 5 -47 5q-26 0 -47 -5t-36 -11q-18 -7 -32 -17q-1 -1 -3 -2t-3.5 -2t-3.5 -1 q-5 0 -5 8q0 3 6.5 14t22.5 23.5t43 22t68 9.5q14 0 29 -2t29 -4q16 -3 31 -6q57 71 101 114t79 75q9 27 27 65t42.5 72.5t54.5 58.5t62 24q9 0 19.5 -5t10.5 -25zM808 653q0 10 -8 10q-15 0 -30.5 -18.5t-28.5 -41.5q-15 -26 -30 -61q28 21 49 41q18 17 33 36.5t15 33.5z M615 412q-29 -29 -59.5 -62.5t-59.5 -68.5q31 -7 81 -12q8 40 18 76t20 67z" />
<glyph unicode="&#xc1;" horiz-adv-x="738" d="M989 834q0 -8 -4 -25.5t-23 -34.5q-3 -3 -18 -10.5t-34 -15.5t-38.5 -14.5t-32.5 -6.5q-5 0 -5 5q0 2 0.5 2.5t0.5 1.5v2q16 15 37 32q18 14 42.5 33t56.5 39q1 0 3 1t5 1q9 0 10 -10zM854 669q0 -25 -17 -49t-42 -47.5t-53.5 -45.5t-52.5 -43q-2 -7 -3.5 -13t-3.5 -10 t-2 -8q-7 -24 -16 -53q-8 -25 -16 -58.5t-16 -72.5q38 2 75.5 14t64.5 40q1 1 3 2t5 1q6 0 6 -7t-10 -21.5t-30.5 -29.5t-50.5 -26t-70 -11q-8 -41 -12 -83t-4 -84q0 -41 5 -77.5t18 -67.5q5 -13 11 -25q5 -11 13 -21.5t16 -18.5q3 -3 3 -6t-1 -4q-1 -2 -3 -2.5t-4 -1.5 t-4 -1q-23 3 -40 18.5t-28 32.5q-13 20 -22 45q-10 32 -14 66.5t-4 71.5q0 39 4 79t11 79q-29 2 -55 5t-48 8q-56 -73 -120 -130q-27 -24 -59 -47.5t-66.5 -42t-71 -30t-74.5 -11.5q-66 0 -95.5 32.5t-29.5 80.5t25.5 103t71.5 102t108.5 78.5t135.5 31.5q10 0 24 -3 t26.5 -9t21.5 -14.5t9 -19.5q0 -12 -8 -12q-2 0 -6 2q-2 1 -3 1q-7 5 -15.5 8t-16.5 5q-9 2 -18 3q-68 0 -126 -28t-100 -69.5t-66 -89t-24 -87.5q0 -36 22 -60t70 -24q56 0 106.5 26.5t94.5 64t80 78.5t62 69q-8 3 -19 6q-20 5 -47 5q-26 0 -47 -5t-36 -11q-18 -7 -32 -17 q-1 -1 -3 -2t-3.5 -2t-3.5 -1q-5 0 -5 8q0 3 6.5 14t22.5 23.5t43 22t68 9.5q14 0 29 -2t29 -4q16 -3 31 -6q57 71 101 114t79 75q9 27 27 65t42.5 72.5t54.5 58.5t62 24q9 0 19.5 -5t10.5 -25zM808 653q0 10 -8 10q-15 0 -30.5 -18.5t-28.5 -41.5q-15 -26 -30 -61 q28 21 49 41q18 17 33 36.5t15 33.5zM615 412q-29 -29 -59.5 -62.5t-59.5 -68.5q31 -7 81 -12q8 40 18 76t20 67z" />
<glyph unicode="&#xc2;" horiz-adv-x="728" d="M937 705q-1 -1 -2 -3q-2 -4 -6 -4q-7 0 -18.5 10t-23 23t-21 27t-13.5 21q-17 -14 -38 -25.5t-40.5 -20t-34 -13t-18.5 -4.5q-11 0 -11 7q0 2 1 3q16 15 37 33q18 15 44 34.5t58 39.5q2 1 5 2q6 2 11 2t10 -2t9 -8q20 -29 30 -51.5t15 -38.5q5 -18 6 -32zM854 669 q0 -25 -17 -49t-42 -47.5t-53.5 -45.5t-52.5 -43q-2 -7 -3.5 -13t-3.5 -10t-2 -8q-7 -24 -16 -53q-8 -25 -16 -58.5t-16 -72.5q38 2 75.5 14t64.5 40q1 1 3 2t5 1q6 0 6 -7t-10 -21.5t-30.5 -29.5t-50.5 -26t-70 -11q-8 -41 -12 -83t-4 -84q0 -41 5 -77.5t18 -67.5 q5 -13 11 -25q5 -11 13 -21.5t16 -18.5q3 -3 3 -6t-1 -4q-1 -2 -3 -2.5t-4 -1.5t-4 -1q-23 3 -40 18.5t-28 32.5q-13 20 -22 45q-10 32 -14 66.5t-4 71.5q0 39 4 79t11 79q-29 2 -55 5t-48 8q-56 -73 -120 -130q-27 -24 -59 -47.5t-66.5 -42t-71 -30t-74.5 -11.5 q-66 0 -95.5 32.5t-29.5 80.5t25.5 103t71.5 102t108.5 78.5t135.5 31.5q10 0 24 -3t26.5 -9t21.5 -14.5t9 -19.5q0 -12 -8 -12q-2 0 -6 2q-2 1 -3 1q-7 5 -15.5 8t-16.5 5q-9 2 -18 3q-68 0 -126 -28t-100 -69.5t-66 -89t-24 -87.5q0 -36 22 -60t70 -24q56 0 106.5 26.5 t94.5 64t80 78.5t62 69q-8 3 -19 6q-20 5 -47 5q-26 0 -47 -5t-36 -11q-18 -7 -32 -17q-1 -1 -3 -2t-3.5 -2t-3.5 -1q-5 0 -5 8q0 3 6.5 14t22.5 23.5t43 22t68 9.5q14 0 29 -2t29 -4q16 -3 31 -6q57 71 101 114t79 75q9 27 27 65t42.5 72.5t54.5 58.5t62 24q9 0 19.5 -5 t10.5 -25zM808 653q0 10 -8 10q-15 0 -30.5 -18.5t-28.5 -41.5q-15 -26 -30 -61q28 21 49 41q18 17 33 36.5t15 33.5zM615 412q-29 -29 -59.5 -62.5t-59.5 -68.5q31 -7 81 -12q8 40 18 76t20 67z" />
<glyph unicode="&#xc3;" horiz-adv-x="729" d="M939 775q0 -15 -5.5 -25t-13.5 -15.5t-16.5 -8t-14.5 -2.5q-15 0 -26 4.5t-21.5 10t-21.5 10t-27 4.5q-19 0 -25.5 -5t-12.5 -5t-6 7q0 14 17.5 24.5t40.5 10.5q14 0 23.5 -3t18 -6.5t17.5 -6.5t21 -3q11 0 18 3t11.5 7t8 7t7.5 3q7 0 7 -11zM854 669q0 -25 -17 -49 t-42 -47.5t-53.5 -45.5t-52.5 -43q-2 -7 -3.5 -13t-3.5 -10t-2 -8q-7 -24 -16 -53q-8 -25 -16 -58.5t-16 -72.5q38 2 75.5 14t64.5 40q1 1 3 2t5 1q6 0 6 -7t-10 -21.5t-30.5 -29.5t-50.5 -26t-70 -11q-8 -41 -12 -83t-4 -84q0 -41 5 -77.5t18 -67.5q5 -13 11 -25 q5 -11 13 -21.5t16 -18.5q3 -3 3 -6t-1 -4q-1 -2 -3 -2.5t-4 -1.5t-4 -1q-23 3 -40 18.5t-28 32.5q-13 20 -22 45q-10 32 -14 66.5t-4 71.5q0 39 4 79t11 79q-29 2 -55 5t-48 8q-56 -73 -120 -130q-27 -24 -59 -47.5t-66.5 -42t-71 -30t-74.5 -11.5q-66 0 -95.5 32.5 t-29.5 80.5t25.5 103t71.5 102t108.5 78.5t135.5 31.5q10 0 24 -3t26.5 -9t21.5 -14.5t9 -19.5q0 -12 -8 -12q-2 0 -6 2q-2 1 -3 1q-7 5 -15.5 8t-16.5 5q-9 2 -18 3q-68 0 -126 -28t-100 -69.5t-66 -89t-24 -87.5q0 -36 22 -60t70 -24q56 0 106.5 26.5t94.5 64t80 78.5 t62 69q-8 3 -19 6q-20 5 -47 5q-26 0 -47 -5t-36 -11q-18 -7 -32 -17q-1 -1 -3 -2t-3.5 -2t-3.5 -1q-5 0 -5 8q0 3 6.5 14t22.5 23.5t43 22t68 9.5q14 0 29 -2t29 -4q16 -3 31 -6q57 71 101 114t79 75q9 27 27 65t42.5 72.5t54.5 58.5t62 24q9 0 19.5 -5t10.5 -25zM808 653 q0 10 -8 10q-15 0 -30.5 -18.5t-28.5 -41.5q-15 -26 -30 -61q28 21 49 41q18 17 33 36.5t15 33.5zM615 412q-29 -29 -59.5 -62.5t-59.5 -68.5q31 -7 81 -12q8 40 18 76t20 67z" />
<glyph unicode="&#xc4;" horiz-adv-x="722" d="M961 781q0 -13 -6 -25t-15 -21t-19 -14t-18 -5q-11 0 -16.5 7t-5.5 17q0 12 5.5 23.5t14.5 20.5t19.5 14.5t19.5 5.5q21 0 21 -23zM814 781q0 -13 -6 -25t-15 -21t-19 -14t-18 -5q-11 0 -16.5 7t-5.5 17q0 12 5.5 23.5t14.5 20.5t19.5 14.5t19.5 5.5q21 0 21 -23z M854 669q0 -25 -17 -49t-42 -47.5t-53.5 -45.5t-52.5 -43q-2 -7 -3.5 -13t-3.5 -10t-2 -8q-7 -24 -16 -53q-8 -25 -16 -58.5t-16 -72.5q38 2 75.5 14t64.5 40q1 1 3 2t5 1q6 0 6 -7t-10 -21.5t-30.5 -29.5t-50.5 -26t-70 -11q-8 -41 -12 -83t-4 -84q0 -41 5 -77.5t18 -67.5 q5 -13 11 -25q5 -11 13 -21.5t16 -18.5q3 -3 3 -6t-1 -4q-1 -2 -3 -2.5t-4 -1.5t-4 -1q-23 3 -40 18.5t-28 32.5q-13 20 -22 45q-10 32 -14 66.5t-4 71.5q0 39 4 79t11 79q-29 2 -55 5t-48 8q-56 -73 -120 -130q-27 -24 -59 -47.5t-66.5 -42t-71 -30t-74.5 -11.5 q-66 0 -95.5 32.5t-29.5 80.5t25.5 103t71.5 102t108.5 78.5t135.5 31.5q10 0 24 -3t26.5 -9t21.5 -14.5t9 -19.5q0 -12 -8 -12q-2 0 -6 2q-2 1 -3 1q-7 5 -15.5 8t-16.5 5q-9 2 -18 3q-68 0 -126 -28t-100 -69.5t-66 -89t-24 -87.5q0 -36 22 -60t70 -24q56 0 106.5 26.5 t94.5 64t80 78.5t62 69q-8 3 -19 6q-20 5 -47 5q-26 0 -47 -5t-36 -11q-18 -7 -32 -17q-1 -1 -3 -2t-3.5 -2t-3.5 -1q-5 0 -5 8q0 3 6.5 14t22.5 23.5t43 22t68 9.5q14 0 29 -2t29 -4q16 -3 31 -6q57 71 101 114t79 75q9 27 27 65t42.5 72.5t54.5 58.5t62 24q9 0 19.5 -5 t10.5 -25zM808 653q0 10 -8 10q-15 0 -30.5 -18.5t-28.5 -41.5q-15 -26 -30 -61q28 21 49 41q18 17 33 36.5t15 33.5zM615 412q-29 -29 -59.5 -62.5t-59.5 -68.5q31 -7 81 -12q8 40 18 76t20 67z" />
<glyph unicode="&#xc5;" horiz-adv-x="711" d="M941 796q0 -18 -8 -32.5t-20 -25.5t-25.5 -17t-25.5 -6q-14 0 -21.5 9.5t-7.5 24.5q0 16 7.5 31t18.5 26t25 18t27 7q14 0 22 -10t8 -25zM854 669q0 -25 -17 -49t-42 -47.5t-53.5 -45.5t-52.5 -43q-2 -7 -3.5 -13t-3.5 -10t-2 -8q-7 -24 -16 -53q-8 -25 -16 -58.5 t-16 -72.5q38 2 75.5 14t64.5 40q1 1 3 2t5 1q6 0 6 -7t-10 -21.5t-30.5 -29.5t-50.5 -26t-70 -11q-8 -41 -12 -83t-4 -84q0 -41 5 -77.5t18 -67.5q5 -13 11 -25q5 -11 13 -21.5t16 -18.5q3 -3 3 -6t-1 -4q-1 -2 -3 -2.5t-4 -1.5t-4 -1q-23 3 -40 18.5t-28 32.5 q-13 20 -22 45q-10 32 -14 66.5t-4 71.5q0 39 4 79t11 79q-29 2 -55 5t-48 8q-56 -73 -120 -130q-27 -24 -59 -47.5t-66.5 -42t-71 -30t-74.5 -11.5q-66 0 -95.5 32.5t-29.5 80.5t25.5 103t71.5 102t108.5 78.5t135.5 31.5q10 0 24 -3t26.5 -9t21.5 -14.5t9 -19.5 q0 -12 -8 -12q-2 0 -6 2q-2 1 -3 1q-7 5 -15.5 8t-16.5 5q-9 2 -18 3q-68 0 -126 -28t-100 -69.5t-66 -89t-24 -87.5q0 -36 22 -60t70 -24q56 0 106.5 26.5t94.5 64t80 78.5t62 69q-8 3 -19 6q-20 5 -47 5q-26 0 -47 -5t-36 -11q-18 -7 -32 -17q-1 -1 -3 -2t-3.5 -2t-3.5 -1 q-5 0 -5 8q0 3 6.5 14t22.5 23.5t43 22t68 9.5q14 0 29 -2t29 -4q16 -3 31 -6q57 71 101 114t79 75q9 27 27 65t42.5 72.5t54.5 58.5t62 24q9 0 19.5 -5t10.5 -25zM916 788q0 17 -16 17q-6 0 -13.5 -4t-14 -10.5t-10.5 -14.5t-4 -17q0 -17 15 -17q11 0 19 6t13.5 13.5 t8 15.5t2.5 11zM808 653q0 10 -8 10q-15 0 -30.5 -18.5t-28.5 -41.5q-15 -26 -30 -61q28 21 49 41q18 17 33 36.5t15 33.5zM615 412q-29 -29 -59.5 -62.5t-59.5 -68.5q31 -7 81 -12q8 40 18 76t20 67z" />
<glyph unicode="&#xc6;" horiz-adv-x="1173" d="M1289 581q0 -11 -14 -23t-38 -22.5t-55 -17t-65 -6.5q-45 0 -80 9t-66 19.5t-62 19t-68 8.5q-18 0 -29 -4t-25 -14.5t-35.5 -30t-61.5 -51.5q-11 -25 -22.5 -67t-21 -83t-15.5 -71t-6 -31q-5 -33 -9 -67t-6 -67q0 -2 1 -3l2 -2q20 17 43 55.5t48.5 86t53.5 98.5t59 94.5 t64.5 73.5t69.5 35q2 0 5.5 -0.5t3.5 -3.5q0 -2 -6 -8q-18 -14 -39 -40q-18 -22 -42.5 -58t-51.5 -92q0 -5 4 -5q8 0 17 -1q8 -1 18 -1.5t22 -0.5q29 0 61.5 5t49.5 20l1 1q1 1 4 1q5 0 5 -8q0 -1 -3.5 -11t-14 -21.5t-31 -21t-54.5 -9.5h-14t-15 2q-15 3 -28 5 q-11 2 -21 3.5t-15 1.5q-6 0 -7 -1l-2 -2q-1 -3 -11 -21t-26 -43.5t-36 -55t-40 -56.5t-39 -47.5t-33 -28.5v-2q0 -1 -0.5 -1.5t-0.5 -1.5t23 -9.5t56.5 -18.5t73 -18t72.5 -8q55 0 96.5 18.5t69.5 45.5t42 58t14 56q0 20 -9.5 33.5t-29.5 13.5q-13 0 -32 -6t-40.5 -23 t-43 -46.5t-38.5 -76.5q0 -2 -2 -5q-3 -5 -8 -5q-3 0 -6 4q-2 3 -4 9.5t-2 17.5q0 24 13.5 54t37.5 56.5t57 45t72 18.5q38 0 55.5 -20t17.5 -51q0 -35 -20 -77.5t-55 -79t-82.5 -61.5t-103.5 -25q-36 0 -71.5 8.5t-65.5 19t-51.5 19t-27.5 8.5q-2 0 -4 -2q-1 -1 -1 -2 q4 -32 13.5 -55.5t19.5 -40.5q11 -19 25 -34q3 -3 3 -7q0 -3 -1 -4q-2 -2 -3.5 -2.5t-3.5 -1.5t-4 0q-10 0 -28.5 11t-36.5 38t-31 73t-13 116q0 38 4 77t11 77q-28 2 -54 5t-48 7q-55 -73 -118 -130q-27 -24 -58.5 -47.5t-66.5 -42t-72 -30t-76 -11.5q-66 0 -96 34t-30 85 q0 48 24.5 102.5t69.5 101t108 77t139 30.5q16 0 30 -4q12 -3 25 -9.5t21 -18.5q2 -4 4 -7.5t2 -8.5q0 -11 -9 -11q-4 0 -6 1t-3 1q-7 5 -15 8.5t-16 5.5q-9 3 -18 3q-73 0 -131 -27t-99 -67.5t-63 -87.5t-22 -87q0 -39 21.5 -64.5t69.5 -25.5q31 0 62 10.5t61 27t58 38.5 t52 44q57 53 110 119q-10 2 -21 5q-20 5 -45 5q-26 0 -47 -5t-36 -11q-18 -7 -32 -16l-4 -2q-2 -1 -3.5 -2t-3.5 -1q-5 0 -5 6q0 2 6 13t22 24t43 23.5t70 10.5q37 0 88 -12q51 58 98 107.5t83 81.5q10 26 26 63.5t38.5 72.5t52.5 59.5t69 24.5q9 0 19 -5t10 -25 q0 -11 -2.5 -20t-6.5 -17q-4 -9 -10 -16v-2q0 -2 3 -2q11 5 22.5 7t25.5 2q35 0 60.5 -7t53.5 -16t64.5 -16t93.5 -7q32 0 62 5.5t54 20.5q1 1 3 2t5 1t4 -1l2 -2q1 -1 1 -5zM808 644q-3 3 -7 3q-18 0 -31.5 -14t-24 -33t-18.5 -39.5t-15 -33.5q27 20 48 40q18 17 33 38 t15 39zM616 396q-29 -29 -59.5 -62.5t-59.5 -68.5q16 -3 36.5 -6t44.5 -5q8 39 18 75t20 67z" />
<glyph unicode="&#xc7;" horiz-adv-x="593" d="M650 560q0 -23 -14.5 -52t-42 -58.5t-67 -58t-88.5 -50.5t-106.5 -35.5t-122.5 -13.5q-21 -42 -39 -83q-15 -35 -27 -75t-12 -72q0 -18 5 -41t18.5 -44t38 -35.5t64.5 -14.5q53 0 98 26.5t78 65.5t51.5 82.5t18.5 77.5q0 26 -12 42.5t-39 16.5q-28 0 -54.5 -17t-47.5 -43 t-35 -58.5t-18 -62.5q0 -4 -1 -8q-2 -8 -9 -8q-16 0 -16 31q0 24 11.5 57.5t35.5 65t60.5 53.5t86.5 22q45 0 64.5 -23.5t19.5 -60.5q0 -40 -21 -88t-58.5 -90.5t-88 -73.5t-110.5 -37l-4 -4l-7 -7q-3 -3 -5.5 -6.5t-2.5 -6.5t7 -5.5t16 -6.5t16 -11t7 -20q0 -14 -6 -23.5 t-16 -15.5t-22 -8.5t-23 -2.5q-18 0 -29.5 7t-11.5 16q0 3 3 4t5 1q8 0 12 -2t11 -2q14 0 26 6.5t12 18.5q0 9 -7 13t-16 6t-16 4.5t-7 7.5q0 7 10 18t15 15q0 2 2 2q-46 1 -78 17t-51.5 40.5t-28.5 55t-9 60.5q0 38 11 78t24 72q15 38 34 74q-49 0 -85.5 11t-59.5 29.5 t-34.5 42.5t-11.5 50q0 32 16.5 64t47.5 57.5t76 41.5t103 16q11 0 27.5 -1t33 -4t31.5 -9t23 -16l2 -4q0 -4 -7 -6q-4 -1 -8 -1q-15 5 -37.5 6.5t-32.5 1.5q-56 0 -99 -13t-72 -34t-44 -46.5t-15 -51.5q0 -21 10 -39.5t30 -33t51 -23t73 -8.5q32 48 78 99.5t101 94.5 t116.5 70.5t122.5 27.5q38 0 55 -15t17 -39zM593 557q0 23 -18 23q-51 0 -100.5 -23.5t-94.5 -61t-83.5 -82.5t-67.5 -89q98 10 167 39.5t112.5 65t64 71t20.5 57.5z" />
<glyph unicode="&#xc8;" horiz-adv-x="699" d="M601 646q0 -5 -6 -5q-17 3 -37 9q-17 5 -39 14t-47 24q-19 17 -23 34.5t-4 25.5q1 10 10 10q4 0 6 -1l2 -1q32 -20 57 -38.5t42 -32.5q20 -17 35 -31q4 -4 4 -8zM815 598q0 -12 -16 -24.5t-41 -22t-55.5 -16t-59.5 -6.5q-49 0 -86.5 8t-71 18t-66.5 18t-72 8 q-55 0 -99 -15t-75.5 -37.5t-48.5 -47.5t-17 -45q0 -34 46 -34q14 0 33.5 5t41 14.5t42 23.5t36.5 31l4 4q3 3 7 3q2 0 3 -1l2 -2q1 -1 1 -6q0 -8 -12 -27t-35.5 -39t-57 -35.5t-75.5 -15.5q-47 0 -63.5 17.5t-16.5 39.5q0 23 16 58t52 67t95 55t145 23q47 0 82 -6t68.5 -13 t71.5 -13t89 -6q35 0 65.5 5t52.5 19q1 1 3 2t5 1t4 -1l2 -2q1 -1 1 -5zM651 163q0 -35 -20 -77.5t-55 -79t-83 -61.5t-105 -25q-33 0 -70 9.5t-72 22t-66 25t-51 17.5q-25 -17 -46.5 -30.5t-44 -22.5t-48 -13.5t-58.5 -4.5q-41 0 -60 11.5t-19 28.5q0 13 11 26.5t32 24.5 t51.5 18t69.5 7q21 0 47 -2t57 -8q36 34 67.5 77.5t54.5 83.5q27 47 50 94q-22 -1 -37 -4t-24 -6q-11 -4 -16 -8q-1 -1 -3 -1q-4 0 -4 5q0 3 4 10.5t15 15t31 14t52 9.5q42 75 76 115.5t58 60.5q28 23 51 28q1 1 3 1h5q6 0 7 -3v-1q0 -2 -2 -5.5t-12 -11.5q-14 -10 -32 -34 q-16 -20 -39 -56t-54 -96q8 -1 19.5 -2.5t40.5 -1.5t62 5t52 20q1 0 2 1t5 1q5 0 5 -5q0 -4 -4.5 -14.5t-16 -22t-31.5 -20t-50 -8.5q-35 0 -61.5 6t-40.5 6q-11 -19 -29.5 -51t-36.5 -60q-15 -23 -34 -49q-17 -22 -40 -49t-53 -53q14 -3 41 -11.5t60.5 -17.5t70 -16.5 t68.5 -7.5q50 0 89 19.5t66.5 47.5t42 59.5t14.5 55.5q0 19 -9 31t-29 12q-15 0 -36.5 -7.5t-43 -24.5t-41.5 -46t-34 -73q0 -2 -1 -5q-2 -5 -8 -5h-1q-2 1 -5 5q-2 3 -3.5 8.5t-1.5 16.5q0 25 13 55t36 56.5t55.5 44.5t71.5 18t57 -20t18 -52zM90 3q-38 7 -69 7 q-54 0 -81.5 -13.5t-27.5 -26.5q0 -7 8.5 -12t27.5 -5q31 0 57 7.5t45 17.5q22 11 40 25z" />
<glyph unicode="&#xc9;" horiz-adv-x="699" d="M703 745q0 -8 -4 -25.5t-23 -34.5q-3 -3 -18 -10.5t-34 -15.5t-38.5 -14.5t-32.5 -6.5q-5 0 -5 5q0 2 0.5 2.5t0.5 1.5v2q16 15 37 32q18 14 42.5 33t56.5 39q1 0 3 1t5 1q9 0 10 -10zM815 598q0 -12 -16 -24.5t-41 -22t-55.5 -16t-59.5 -6.5q-49 0 -86.5 8t-71 18 t-66.5 18t-72 8q-55 0 -99 -15t-75.5 -37.5t-48.5 -47.5t-17 -45q0 -34 46 -34q14 0 33.5 5t41 14.5t42 23.5t36.5 31l4 4q3 3 7 3q2 0 3 -1l2 -2q1 -1 1 -6q0 -8 -12 -27t-35.5 -39t-57 -35.5t-75.5 -15.5q-47 0 -63.5 17.5t-16.5 39.5q0 23 16 58t52 67t95 55t145 23 q47 0 82 -6t68.5 -13t71.5 -13t89 -6q35 0 65.5 5t52.5 19q1 1 3 2t5 1t4 -1l2 -2q1 -1 1 -5zM651 163q0 -35 -20 -77.5t-55 -79t-83 -61.5t-105 -25q-33 0 -70 9.5t-72 22t-66 25t-51 17.5q-25 -17 -46.5 -30.5t-44 -22.5t-48 -13.5t-58.5 -4.5q-41 0 -60 11.5t-19 28.5 q0 13 11 26.5t32 24.5t51.5 18t69.5 7q21 0 47 -2t57 -8q36 34 67.5 77.5t54.5 83.5q27 47 50 94q-22 -1 -37 -4t-24 -6q-11 -4 -16 -8q-1 -1 -3 -1q-4 0 -4 5q0 3 4 10.5t15 15t31 14t52 9.5q42 75 76 115.5t58 60.5q28 23 51 28q1 1 3 1h5q6 0 7 -3v-1q0 -2 -2 -5.5 t-12 -11.5q-14 -10 -32 -34q-16 -20 -39 -56t-54 -96q8 -1 19.5 -2.5t40.5 -1.5t62 5t52 20q1 0 2 1t5 1q5 0 5 -5q0 -4 -4.5 -14.5t-16 -22t-31.5 -20t-50 -8.5q-35 0 -61.5 6t-40.5 6q-11 -19 -29.5 -51t-36.5 -60q-15 -23 -34 -49q-17 -22 -40 -49t-53 -53 q14 -3 41 -11.5t60.5 -17.5t70 -16.5t68.5 -7.5q50 0 89 19.5t66.5 47.5t42 59.5t14.5 55.5q0 19 -9 31t-29 12q-15 0 -36.5 -7.5t-43 -24.5t-41.5 -46t-34 -73q0 -2 -1 -5q-2 -5 -8 -5h-1q-2 1 -5 5q-2 3 -3.5 8.5t-1.5 16.5q0 25 13 55t36 56.5t55.5 44.5t71.5 18t57 -20 t18 -52zM90 3q-38 7 -69 7q-54 0 -81.5 -13.5t-27.5 -26.5q0 -7 8.5 -12t27.5 -5q31 0 57 7.5t45 17.5q22 11 40 25z" />
<glyph unicode="&#xca;" horiz-adv-x="699" d="M651 636q-1 -1 -2 -3q-2 -4 -6 -4q-7 0 -18.5 10t-23 23t-21 27t-13.5 21q-17 -14 -38 -25.5t-40.5 -20t-34 -13t-18.5 -4.5q-11 0 -11 7q0 2 1 3q16 15 37 33q18 15 44 34.5t58 39.5q2 1 5 2q6 2 11 2t10 -2t9 -8q20 -29 30 -51.5t15 -38.5q5 -18 6 -32zM815 598 q0 -12 -16 -24.5t-41 -22t-55.5 -16t-59.5 -6.5q-49 0 -86.5 8t-71 18t-66.5 18t-72 8q-55 0 -99 -15t-75.5 -37.5t-48.5 -47.5t-17 -45q0 -34 46 -34q14 0 33.5 5t41 14.5t42 23.5t36.5 31l4 4q3 3 7 3q2 0 3 -1l2 -2q1 -1 1 -6q0 -8 -12 -27t-35.5 -39t-57 -35.5 t-75.5 -15.5q-47 0 -63.5 17.5t-16.5 39.5q0 23 16 58t52 67t95 55t145 23q47 0 82 -6t68.5 -13t71.5 -13t89 -6q35 0 65.5 5t52.5 19q1 1 3 2t5 1t4 -1l2 -2q1 -1 1 -5zM651 163q0 -35 -20 -77.5t-55 -79t-83 -61.5t-105 -25q-33 0 -70 9.5t-72 22t-66 25t-51 17.5 q-25 -17 -46.5 -30.5t-44 -22.5t-48 -13.5t-58.5 -4.5q-41 0 -60 11.5t-19 28.5q0 13 11 26.5t32 24.5t51.5 18t69.5 7q21 0 47 -2t57 -8q36 34 67.5 77.5t54.5 83.5q27 47 50 94q-22 -1 -37 -4t-24 -6q-11 -4 -16 -8q-1 -1 -3 -1q-4 0 -4 5q0 3 4 10.5t15 15t31 14t52 9.5 q42 75 76 115.5t58 60.5q28 23 51 28q1 1 3 1h5q6 0 7 -3v-1q0 -2 -2 -5.5t-12 -11.5q-14 -10 -32 -34q-16 -20 -39 -56t-54 -96q8 -1 19.5 -2.5t40.5 -1.5t62 5t52 20q1 0 2 1t5 1q5 0 5 -5q0 -4 -4.5 -14.5t-16 -22t-31.5 -20t-50 -8.5q-35 0 -61.5 6t-40.5 6 q-11 -19 -29.5 -51t-36.5 -60q-15 -23 -34 -49q-17 -22 -40 -49t-53 -53q14 -3 41 -11.5t60.5 -17.5t70 -16.5t68.5 -7.5q50 0 89 19.5t66.5 47.5t42 59.5t14.5 55.5q0 19 -9 31t-29 12q-15 0 -36.5 -7.5t-43 -24.5t-41.5 -46t-34 -73q0 -2 -1 -5q-2 -5 -8 -5h-1q-2 1 -5 5 q-2 3 -3.5 8.5t-1.5 16.5q0 25 13 55t36 56.5t55.5 44.5t71.5 18t57 -20t18 -52zM90 3q-38 7 -69 7q-54 0 -81.5 -13.5t-27.5 -26.5q0 -7 8.5 -12t27.5 -5q31 0 57 7.5t45 17.5q22 11 40 25z" />
<glyph unicode="&#xcb;" horiz-adv-x="699" d="M675 707q0 -13 -6 -25t-15 -21t-19 -14t-18 -5q-11 0 -16.5 7t-5.5 17q0 12 5.5 23.5t14.5 20.5t19.5 14.5t19.5 5.5q21 0 21 -23zM528 707q0 -13 -6 -25t-15 -21t-19 -14t-18 -5q-11 0 -16.5 7t-5.5 17q0 12 5.5 23.5t14.5 20.5t19.5 14.5t19.5 5.5q21 0 21 -23z M815 598q0 -12 -16 -24.5t-41 -22t-55.5 -16t-59.5 -6.5q-49 0 -86.5 8t-71 18t-66.5 18t-72 8q-55 0 -99 -15t-75.5 -37.5t-48.5 -47.5t-17 -45q0 -34 46 -34q14 0 33.5 5t41 14.5t42 23.5t36.5 31l4 4q3 3 7 3q2 0 3 -1l2 -2q1 -1 1 -6q0 -8 -12 -27t-35.5 -39t-57 -35.5 t-75.5 -15.5q-47 0 -63.5 17.5t-16.5 39.5q0 23 16 58t52 67t95 55t145 23q47 0 82 -6t68.5 -13t71.5 -13t89 -6q35 0 65.5 5t52.5 19q1 1 3 2t5 1t4 -1l2 -2q1 -1 1 -5zM651 163q0 -35 -20 -77.5t-55 -79t-83 -61.5t-105 -25q-33 0 -70 9.5t-72 22t-66 25t-51 17.5 q-25 -17 -46.5 -30.5t-44 -22.5t-48 -13.5t-58.5 -4.5q-41 0 -60 11.5t-19 28.5q0 13 11 26.5t32 24.5t51.5 18t69.5 7q21 0 47 -2t57 -8q36 34 67.5 77.5t54.5 83.5q27 47 50 94q-22 -1 -37 -4t-24 -6q-11 -4 -16 -8q-1 -1 -3 -1q-4 0 -4 5q0 3 4 10.5t15 15t31 14t52 9.5 q42 75 76 115.5t58 60.5q28 23 51 28q1 1 3 1h5q6 0 7 -3v-1q0 -2 -2 -5.5t-12 -11.5q-14 -10 -32 -34q-16 -20 -39 -56t-54 -96q8 -1 19.5 -2.5t40.5 -1.5t62 5t52 20q1 0 2 1t5 1q5 0 5 -5q0 -4 -4.5 -14.5t-16 -22t-31.5 -20t-50 -8.5q-35 0 -61.5 6t-40.5 6 q-11 -19 -29.5 -51t-36.5 -60q-15 -23 -34 -49q-17 -22 -40 -49t-53 -53q14 -3 41 -11.5t60.5 -17.5t70 -16.5t68.5 -7.5q50 0 89 19.5t66.5 47.5t42 59.5t14.5 55.5q0 19 -9 31t-29 12q-15 0 -36.5 -7.5t-43 -24.5t-41.5 -46t-34 -73q0 -2 -1 -5q-2 -5 -8 -5h-1q-2 1 -5 5 q-2 3 -3.5 8.5t-1.5 16.5q0 25 13 55t36 56.5t55.5 44.5t71.5 18t57 -20t18 -52zM90 3q-38 7 -69 7q-54 0 -81.5 -13.5t-27.5 -26.5q0 -7 8.5 -12t27.5 -5q31 0 57 7.5t45 17.5q22 11 40 25z" />
<glyph unicode="&#xcc;" horiz-adv-x="419" d="M769 736q0 -5 -6 -5q-17 3 -37 9q-17 5 -39 14t-47 24q-19 17 -23 34.5t-4 25.5q1 10 10 10q4 0 6 -1l2 -1q32 -20 57 -38.5t42 -32.5q20 -17 35 -31q4 -4 4 -8zM708 669q0 -22 -8 -41t-21 -34t-29.5 -27t-34.5 -21q-41 -21 -93 -34q-6 -10 -14.5 -24t-20 -35t-26 -51 t-32.5 -72q-29 -69 -72 -136.5t-97 -121.5t-117 -87t-132 -33q-17 0 -32.5 3t-27 10.5t-18 19.5t-6.5 31q0 48 29 87t70 67t85.5 43.5t75.5 15.5q20 0 23 -4.5t3 -6.5q0 -4 -4 -6q-2 -1 -4 -1q-43 -6 -82.5 -26t-69.5 -47.5t-47.5 -58.5t-17.5 -57q0 -20 12.5 -27.5 t29.5 -7.5q85 0 158 67.5t136 193.5q23 47 45.5 90.5t40.5 78t30 57t15 28.5q-63 -7 -104 -24t-66 -37t-35 -40t-10 -33q0 -7 1 -9q0 -11 -9 -11q-2 0 -7 2t-10.5 7.5t-9.5 14.5t-4 23q0 38 27 62.5t67.5 40t89 24t91.5 14.5q28 46 61 82q14 15 30 30t33.5 26.5t36.5 18.5 t38 7q11 0 22 -5.5t11 -25.5zM663 650q0 5 -2.5 8t-11.5 3q-12 -1 -28 -13q-14 -11 -33.5 -33t-45.5 -65q35 10 61 25q23 13 41.5 31t18.5 44z" />
<glyph unicode="&#xcd;" horiz-adv-x="432" d="M803 852q0 -8 -4 -25.5t-23 -34.5q-3 -3 -18 -10.5t-34 -15.5t-38.5 -14.5t-32.5 -6.5q-5 0 -5 5q0 2 0.5 2.5t0.5 1.5v2q16 15 37 32q18 14 42.5 33t56.5 39q1 0 3 1t5 1q9 0 10 -10zM708 669q0 -22 -8 -41t-21 -34t-29.5 -27t-34.5 -21q-41 -21 -93 -34 q-6 -10 -14.5 -24t-20 -35t-26 -51t-32.5 -72q-29 -69 -72 -136.5t-97 -121.5t-117 -87t-132 -33q-17 0 -32.5 3t-27 10.5t-18 19.5t-6.5 31q0 48 29 87t70 67t85.5 43.5t75.5 15.5q20 0 23 -4.5t3 -6.5q0 -4 -4 -6q-2 -1 -4 -1q-43 -6 -82.5 -26t-69.5 -47.5t-47.5 -58.5 t-17.5 -57q0 -20 12.5 -27.5t29.5 -7.5q85 0 158 67.5t136 193.5q23 47 45.5 90.5t40.5 78t30 57t15 28.5q-63 -7 -104 -24t-66 -37t-35 -40t-10 -33q0 -7 1 -9q0 -11 -9 -11q-2 0 -7 2t-10.5 7.5t-9.5 14.5t-4 23q0 38 27 62.5t67.5 40t89 24t91.5 14.5q28 46 61 82 q14 15 30 30t33.5 26.5t36.5 18.5t38 7q11 0 22 -5.5t11 -25.5zM663 650q0 5 -2.5 8t-11.5 3q-12 -1 -28 -13q-14 -11 -33.5 -33t-45.5 -65q35 10 61 25q23 13 41.5 31t18.5 44z" />
<glyph unicode="&#xce;" horiz-adv-x="419" d="M777 717q-1 -1 -2 -3q-2 -4 -6 -4q-7 0 -18.5 10t-23 23t-21 27t-13.5 21q-17 -14 -38 -25.5t-40.5 -20t-34 -13t-18.5 -4.5q-11 0 -11 7q0 2 1 3q16 15 37 33q18 15 44 34.5t58 39.5q2 1 5 2q6 2 11 2t10 -2t9 -8q20 -29 30 -51.5t15 -38.5q5 -18 6 -32zM708 669 q0 -22 -8 -41t-21 -34t-29.5 -27t-34.5 -21q-41 -21 -93 -34q-6 -10 -14.5 -24t-20 -35t-26 -51t-32.5 -72q-29 -69 -72 -136.5t-97 -121.5t-117 -87t-132 -33q-17 0 -32.5 3t-27 10.5t-18 19.5t-6.5 31q0 48 29 87t70 67t85.5 43.5t75.5 15.5q20 0 23 -4.5t3 -6.5 q0 -4 -4 -6q-2 -1 -4 -1q-43 -6 -82.5 -26t-69.5 -47.5t-47.5 -58.5t-17.5 -57q0 -20 12.5 -27.5t29.5 -7.5q85 0 158 67.5t136 193.5q23 47 45.5 90.5t40.5 78t30 57t15 28.5q-63 -7 -104 -24t-66 -37t-35 -40t-10 -33q0 -7 1 -9q0 -11 -9 -11q-2 0 -7 2t-10.5 7.5 t-9.5 14.5t-4 23q0 38 27 62.5t67.5 40t89 24t91.5 14.5q28 46 61 82q14 15 30 30t33.5 26.5t36.5 18.5t38 7q11 0 22 -5.5t11 -25.5zM663 650q0 5 -2.5 8t-11.5 3q-12 -1 -28 -13q-14 -11 -33.5 -33t-45.5 -65q35 10 61 25q23 13 41.5 31t18.5 44z" />
<glyph unicode="&#xcf;" horiz-adv-x="438" d="M802 802q0 -13 -6 -25t-15 -21t-19 -14t-18 -5q-11 0 -16.5 7t-5.5 17q0 12 5.5 23.5t14.5 20.5t19.5 14.5t19.5 5.5q21 0 21 -23zM655 802q0 -13 -6 -25t-15 -21t-19 -14t-18 -5q-11 0 -16.5 7t-5.5 17q0 12 5.5 23.5t14.5 20.5t19.5 14.5t19.5 5.5q21 0 21 -23z M708 669q0 -22 -8 -41t-21 -34t-29.5 -27t-34.5 -21q-41 -21 -93 -34q-6 -10 -14.5 -24t-20 -35t-26 -51t-32.5 -72q-29 -69 -72 -136.5t-97 -121.5t-117 -87t-132 -33q-17 0 -32.5 3t-27 10.5t-18 19.5t-6.5 31q0 48 29 87t70 67t85.5 43.5t75.5 15.5q20 0 23 -4.5t3 -6.5 q0 -4 -4 -6q-2 -1 -4 -1q-43 -6 -82.5 -26t-69.5 -47.5t-47.5 -58.5t-17.5 -57q0 -20 12.5 -27.5t29.5 -7.5q85 0 158 67.5t136 193.5q23 47 45.5 90.5t40.5 78t30 57t15 28.5q-63 -7 -104 -24t-66 -37t-35 -40t-10 -33q0 -7 1 -9q0 -11 -9 -11q-2 0 -7 2t-10.5 7.5 t-9.5 14.5t-4 23q0 38 27 62.5t67.5 40t89 24t91.5 14.5q28 46 61 82q14 15 30 30t33.5 26.5t36.5 18.5t38 7q11 0 22 -5.5t11 -25.5zM663 650q0 5 -2.5 8t-11.5 3q-12 -1 -28 -13q-14 -11 -33.5 -33t-45.5 -65q35 10 61 25q23 13 41.5 31t18.5 44z" />
<glyph unicode="&#xd0;" horiz-adv-x="633" d="M610 658q0 -1 -2 -4.5t-14 -10.5q-14 -8 -32 -21q-15 -11 -34.5 -29.5t-42.5 -47.5q62 -49 90 -108.5t28 -122.5q0 -64 -28 -125.5t-78 -109.5t-119 -77.5t-152 -29.5q-41 0 -74.5 4t-48.5 7q-14 -11 -33.5 -23t-43 -22t-50.5 -16t-55 -6q-52 0 -75.5 13t-23.5 30 q0 12 10.5 25t29.5 23.5t46.5 17t60.5 6.5q22 0 52 -2.5t70 -10.5q46 48 81 101t64 108q-19 0 -31 -0.5t-19 -1t-10.5 -1t-6.5 -0.5q-9 0 -9 7q0 1 0.5 1.5t0.5 1.5v1q0 1 3 5.5t9 10t15.5 10t22.5 4.5h46q39 76 77.5 148t91.5 131q-25 14 -51 25q-23 9 -50.5 16.5 t-53.5 7.5q-23 0 -46 -5t-41 -18t-29.5 -35.5t-11.5 -57.5q0 -15 3.5 -33t13 -37t26.5 -38.5t43 -38.5q2 -1 4 -3q3 -3 3 -6q0 -2 -2 -4.5t-10 -2.5q-7 0 -22 3q-32 13 -58 37q-22 20 -40 54t-18 85q0 20 9 42.5t30 42.5t54.5 33t81.5 13q39 0 72 -8t57.5 -18t39.5 -18.5 t19 -9.5q33 34 60 52.5t47 28.5q23 11 42 14q12 0 12 -7zM541 331q0 57 -19.5 106t-58.5 78q-27 -35 -46.5 -67.5t-35.5 -63t-30.5 -60t-29.5 -59.5h42q20 0 31 0.5t19 2.5q1 1 2 1h4q5 0 5 -4q0 -2 -3 -7q-13 -22 -37.5 -27t-59.5 -5h-24q-27 -48 -65.5 -100.5 t-100.5 -115.5q11 -2 31 -4.5t47 -2.5q84 0 146 30t102.5 77t60.5 105.5t20 115.5zM59 -8q-26 5 -46 6.5t-37 1.5q-43 0 -68 -10.5t-25 -21.5q0 -8 13.5 -13.5t42.5 -5.5q35 0 65 13t55 30z" />
<glyph unicode="&#xd1;" horiz-adv-x="683" d="M827 680q0 -6 -5.5 -15t-14.5 -17.5t-21.5 -14.5t-26.5 -6q-16 0 -26.5 3.5t-19.5 7.5t-18 7.5t-24 3.5q-16 0 -24.5 -3.5t-13.5 -7t-9 -7t-10 -3.5q-5 0 -5.5 3t-1.5 7q0 6 5 15.5t14.5 18.5t25 15.5t36.5 6.5q14 0 23 -3l18 -6t19.5 -6t26.5 -3q8 0 18 1.5t19 5.5 q1 0 3 1t6 1q6 0 6 -5zM973 614q0 -32 -22 -72t-59.5 -75.5t-87.5 -60t-105 -24.5q-36 -63 -71 -132t-63 -128q-33 -69 -61 -136q-5 -14 -9 -22.5t-7 -13.5q-4 -6 -7 -9q-2 -1 -6 -1q-10 0 -18.5 12t-14.5 27q-7 18 -13 40q-17 71 -25.5 133.5t-11.5 116.5 q-57 -92 -111.5 -154t-104.5 -99t-95 -52.5t-82 -15.5q-44 0 -68 18t-35 39q-13 25 -15 56q0 69 27.5 122t67.5 89.5t85.5 55.5t81.5 19q20 0 40.5 -6.5t38.5 -23.5q2 -2 5 -6q5 -7 5 -14t-7 -11q-2 1 -5 2t-13 5q-15 7 -29 9.5t-28 2.5q-40 0 -80.5 -22t-72 -57 t-51.5 -77.5t-20 -84.5q0 -34 18.5 -59t65.5 -25q34 0 75 17t88.5 57.5t102 107.5t114.5 167q0 38 2 67.5t4 50.5q3 25 5 42q13 63 30.5 99t34 54t30 22t18.5 4q12 0 18.5 -6t9.5 -15t3.5 -20t0.5 -22q0 -24 -9 -54.5t-23.5 -64t-33 -68t-37.5 -67.5q1 -5 1 -10.5v-10.5 q3 -53 7 -104q4 -44 11 -91.5t19 -82.5q1 -1 2 -3q2 -4 5 -4q4 0 8 8q6 16 16 39q8 20 21.5 48.5t33.5 66.5q12 25 27 54q13 25 30.5 58t37.5 68q-6 0 -16.5 5t-21 13.5t-18.5 20t-8 24.5q0 14 5.5 21.5t9.5 7.5q5 0 9 -4q2 -2 2 -5q11 -23 26.5 -33t32.5 -15q22 38 51 79 t62 75t68 56.5t68 22.5q16 0 24 -6t12 -14q4 -9 5 -21zM920 586q-2 12 -5.5 14.5t-12.5 2.5q-10 0 -22 -6t-25 -16t-25.5 -22.5t-24.5 -25.5q-27 -31 -56 -71q-8 -11 -14.5 -22t-14.5 -23q33 0 68.5 19.5t65 47t48 56t18.5 46.5zM513 596q0 7 -2 14.5t-8 7.5 q-13 0 -24.5 -22t-19 -53.5t-12 -66t-4.5 -59.5l9 17q18 30 31 59q11 25 20.5 53t9.5 50z" />
<glyph unicode="&#xd2;" horiz-adv-x="523" d="M518 673q0 -5 -6 -5q-17 3 -37 9q-17 5 -39 14t-47 24q-19 17 -23 34.5t-4 25.5q1 10 10 10q4 0 6 -1l2 -1q32 -20 57 -38.5t42 -32.5q20 -17 35 -31q4 -4 4 -8zM558 487q0 -65 -17 -132t-47 -130t-70.5 -118.5t-89 -96.5t-102 -65t-108.5 -24q-37 0 -62.5 12t-41 32 t-22.5 46.5t-7 56.5q0 45 10 82.5t21 66.5q13 33 30 61l-1 16q-3 56 23.5 118t75 114t114 86t139.5 34q22 0 49 -5.5t50.5 -22t39.5 -48t16 -83.5zM505 484q0 58 -25.5 91.5t-94.5 33.5q-34 0 -68.5 -12t-66 -32.5t-58.5 -47.5t-47.5 -55.5t-32 -57.5t-11.5 -54 q32 38 61.5 59.5t52.5 31.5t38 12t17 2q4 0 7.5 -1t3.5 -5q0 -7 -8 -11.5t-19 -10.5q-24 -13 -50 -35q-22 -19 -48 -48t-50 -74q4 -10 14 -21.5t30 -11.5q8 0 12 1q1 1 3 1h5q7 0 7 -6q0 -7 -13.5 -20.5t-39.5 -13.5q-28 0 -43 17q-9 -22 -17 -48q-7 -22 -12.5 -49t-5.5 -56 q0 -22 5 -41t16.5 -33.5t30 -22.5t45.5 -8q45 0 90 26t85 69.5t74.5 98.5t59.5 113.5t39 115.5t14 103z" />
<glyph unicode="&#xd3;" horiz-adv-x="523" d="M580 779q0 -8 -4 -25.5t-23 -34.5q-3 -3 -18 -10.5t-34 -15.5t-38.5 -14.5t-32.5 -6.5q-5 0 -5 5q0 2 0.5 2.5t0.5 1.5v2q16 15 37 32q18 14 42.5 33t56.5 39q1 0 3 1t5 1q9 0 10 -10zM558 487q0 -65 -17 -132t-47 -130t-70.5 -118.5t-89 -96.5t-102 -65t-108.5 -24 q-37 0 -62.5 12t-41 32t-22.5 46.5t-7 56.5q0 45 10 82.5t21 66.5q13 33 30 61l-1 16q-3 56 23.5 118t75 114t114 86t139.5 34q22 0 49 -5.5t50.5 -22t39.5 -48t16 -83.5zM505 484q0 58 -25.5 91.5t-94.5 33.5q-34 0 -68.5 -12t-66 -32.5t-58.5 -47.5t-47.5 -55.5t-32 -57.5 t-11.5 -54q32 38 61.5 59.5t52.5 31.5t38 12t17 2q4 0 7.5 -1t3.5 -5q0 -7 -8 -11.5t-19 -10.5q-24 -13 -50 -35q-22 -19 -48 -48t-50 -74q4 -10 14 -21.5t30 -11.5q8 0 12 1q1 1 3 1h5q7 0 7 -6q0 -7 -13.5 -20.5t-39.5 -13.5q-28 0 -43 17q-9 -22 -17 -48 q-7 -22 -12.5 -49t-5.5 -56q0 -22 5 -41t16.5 -33.5t30 -22.5t45.5 -8q45 0 90 26t85 69.5t74.5 98.5t59.5 113.5t39 115.5t14 103z" />
<glyph unicode="&#xd4;" horiz-adv-x="523" d="M559 669q-1 -1 -2 -3q-2 -4 -6 -4q-7 0 -18.5 10t-23 23t-21 27t-13.5 21q-17 -14 -38 -25.5t-40.5 -20t-34 -13t-18.5 -4.5q-11 0 -11 7q0 2 1 3q16 15 37 33q18 15 44 34.5t58 39.5q2 1 5 2q6 2 11 2t10 -2t9 -8q20 -29 30 -51.5t15 -38.5q5 -18 6 -32zM558 487 q0 -65 -17 -132t-47 -130t-70.5 -118.5t-89 -96.5t-102 -65t-108.5 -24q-37 0 -62.5 12t-41 32t-22.5 46.5t-7 56.5q0 45 10 82.5t21 66.5q13 33 30 61l-1 16q-3 56 23.5 118t75 114t114 86t139.5 34q22 0 49 -5.5t50.5 -22t39.5 -48t16 -83.5zM505 484q0 58 -25.5 91.5 t-94.5 33.5q-34 0 -68.5 -12t-66 -32.5t-58.5 -47.5t-47.5 -55.5t-32 -57.5t-11.5 -54q32 38 61.5 59.5t52.5 31.5t38 12t17 2q4 0 7.5 -1t3.5 -5q0 -7 -8 -11.5t-19 -10.5q-24 -13 -50 -35q-22 -19 -48 -48t-50 -74q4 -10 14 -21.5t30 -11.5q8 0 12 1q1 1 3 1h5q7 0 7 -6 q0 -7 -13.5 -20.5t-39.5 -13.5q-28 0 -43 17q-9 -22 -17 -48q-7 -22 -12.5 -49t-5.5 -56q0 -22 5 -41t16.5 -33.5t30 -22.5t45.5 -8q45 0 90 26t85 69.5t74.5 98.5t59.5 113.5t39 115.5t14 103z" />
<glyph unicode="&#xd5;" horiz-adv-x="523" d="M561 739q0 -15 -5.5 -25t-13.5 -15.5t-16.5 -8t-14.5 -2.5q-15 0 -26 4.5t-21.5 10t-21.5 10t-27 4.5q-19 0 -25.5 -5t-12.5 -5t-6 7q0 14 17.5 24.5t40.5 10.5q14 0 23.5 -3t18 -6.5t17.5 -6.5t21 -3q11 0 18 3t11.5 7t8 7t7.5 3q7 0 7 -11zM558 487q0 -65 -17 -132 t-47 -130t-70.5 -118.5t-89 -96.5t-102 -65t-108.5 -24q-37 0 -62.5 12t-41 32t-22.5 46.5t-7 56.5q0 45 10 82.5t21 66.5q13 33 30 61l-1 16q-3 56 23.5 118t75 114t114 86t139.5 34q22 0 49 -5.5t50.5 -22t39.5 -48t16 -83.5zM505 484q0 58 -25.5 91.5t-94.5 33.5 q-34 0 -68.5 -12t-66 -32.5t-58.5 -47.5t-47.5 -55.5t-32 -57.5t-11.5 -54q32 38 61.5 59.5t52.5 31.5t38 12t17 2q4 0 7.5 -1t3.5 -5q0 -7 -8 -11.5t-19 -10.5q-24 -13 -50 -35q-22 -19 -48 -48t-50 -74q4 -10 14 -21.5t30 -11.5q8 0 12 1q1 1 3 1h5q7 0 7 -6 q0 -7 -13.5 -20.5t-39.5 -13.5q-28 0 -43 17q-9 -22 -17 -48q-7 -22 -12.5 -49t-5.5 -56q0 -22 5 -41t16.5 -33.5t30 -22.5t45.5 -8q45 0 90 26t85 69.5t74.5 98.5t59.5 113.5t39 115.5t14 103z" />
<glyph unicode="&#xd6;" horiz-adv-x="524" d="M570 742q0 -13 -6 -25t-15 -21t-19 -14t-18 -5q-11 0 -16.5 7t-5.5 17q0 12 5.5 23.5t14.5 20.5t19.5 14.5t19.5 5.5q21 0 21 -23zM423 742q0 -13 -6 -25t-15 -21t-19 -14t-18 -5q-11 0 -16.5 7t-5.5 17q0 12 5.5 23.5t14.5 20.5t19.5 14.5t19.5 5.5q21 0 21 -23z M558 487q0 -65 -17 -132t-47 -130t-70.5 -118.5t-89 -96.5t-102 -65t-108.5 -24q-37 0 -62.5 12t-41 32t-22.5 46.5t-7 56.5q0 45 10 82.5t21 66.5q13 33 30 61l-1 16q-3 56 23.5 118t75 114t114 86t139.5 34q22 0 49 -5.5t50.5 -22t39.5 -48t16 -83.5zM505 484 q0 58 -25.5 91.5t-94.5 33.5q-34 0 -68.5 -12t-66 -32.5t-58.5 -47.5t-47.5 -55.5t-32 -57.5t-11.5 -54q32 38 61.5 59.5t52.5 31.5t38 12t17 2q4 0 7.5 -1t3.5 -5q0 -7 -8 -11.5t-19 -10.5q-24 -13 -50 -35q-22 -19 -48 -48t-50 -74q4 -10 14 -21.5t30 -11.5q8 0 12 1 q1 1 3 1h5q7 0 7 -6q0 -7 -13.5 -20.5t-39.5 -13.5q-28 0 -43 17q-9 -22 -17 -48q-7 -22 -12.5 -49t-5.5 -56q0 -22 5 -41t16.5 -33.5t30 -22.5t45.5 -8q45 0 90 26t85 69.5t74.5 98.5t59.5 113.5t39 115.5t14 103z" />
<glyph unicode="&#xd7;" d="M409 403q0 -3 -1 -4l-1 -1q-7 -4 -26 -17t-43.5 -30t-53.5 -37.5t-56 -40.5q1 -3 7 -19t14.5 -36t18 -41t16.5 -34q2 -3 2 -7q0 -5 -13 -7q-6 -1 -14 -1q-7 0 -12.5 3.5t-8.5 8.5q-4 5 -6 11q-17 51 -37 96q-17 -12 -32 -23t-26 -19q-13 -10 -24 -18t-19.5 -13.5 t-15.5 -10.5q-8 -5 -14 -9q-8 -5 -16.5 -6.5t-16.5 -1.5q-10 0 -16.5 1t-6.5 5q0 2 6.5 7.5t14.5 11.5q10 7 21 15q19 13 41 29q19 14 42.5 31t49.5 36q-22 52 -39 86.5t-17 36.5t1.5 4t6.5 2q2 1 5 1h10q8 0 15 -2t10 -9q6 -14 13 -29q6 -13 13 -29.5t15 -34.5q24 17 47 33 t42.5 28.5t33.5 22t20 12.5q7 4 13.5 5t11.5 1q18 0 22 -3q3 -2 3 -4z" />
<glyph unicode="&#xd8;" horiz-adv-x="533" d="M632 618q0 -3 -3.5 -7.5t-9 -9.5t-10.5 -10l-8 -8l-13.5 -13.5t-30.5 -31.5q8 -27 8 -61q0 -65 -17 -132t-47 -130t-70.5 -118.5t-89 -96.5t-102 -65t-108.5 -24q-46 0 -74.5 18t-42.5 47q-14 -14 -24 -24.5t-18 -17.5q-7 -6 -16 -10t-20 -4q-3 0 -11.5 1.5t-8.5 6.5 q0 3 2 5l26.5 26.5t56.5 58.5q-3 20 -3 40q0 45 10 82.5t21 66.5q13 33 30 61l-1 16q-3 56 23.5 118t75 114t114 86t139.5 34q15 0 32.5 -2.5t35.5 -9t34 -18.5t28 -31l2 2q22 23 37.5 36t33.5 13q2 0 10.5 -1.5t8.5 -6.5zM503 536q-11 30 -37 46.5t-74 16.5 q-34 0 -68.5 -12t-66 -32.5t-58.5 -47.5t-47.5 -55.5t-32 -57.5t-11.5 -54q32 38 61.5 59.5t52.5 31.5t38 12t17 2q4 0 7.5 -1t3.5 -5q0 -7 -8 -11.5t-19 -10.5q-24 -13 -50 -35q-22 -19 -48 -48t-50 -74q4 -10 14 -21.5t30 -11.5q8 0 12 1q1 1 3 1h5q7 0 7 -6 q0 -7 -13.5 -20.5t-39.5 -13.5q-28 0 -43 17q-9 -19 -16 -41q-6 -19 -11.5 -43t-7.5 -50q36 37 77 79.5t83.5 86t84.5 87t80 82.5t70.5 72.5t54.5 56.5zM512 474v8.5t-1 8.5q-32 -33 -71.5 -74t-82 -85.5t-86 -89.5t-83.5 -86.5t-74 -77t-58 -60.5q7 -30 29 -50t65 -20 q45 0 90 26t85 69.5t74.5 98.5t59.5 113.5t39 115.5t14 103z" />
<glyph unicode="&#xd9;" horiz-adv-x="538" d="M517 656q0 -5 -6 -5q-17 3 -37 9q-17 5 -39 14t-47 24q-19 17 -23 34.5t-4 25.5q1 10 10 10q4 0 6 -1l2 -1q32 -20 57 -38.5t42 -32.5q20 -17 35 -31q4 -4 4 -8zM737 627q0 -24 -15 -56t-39.5 -67.5t-56 -72t-63 -71.5t-61.5 -65.5t-52 -52.5q-9 -28 -16 -60 q-6 -27 -11.5 -59.5t-5.5 -64.5q0 -18 2.5 -37.5t8.5 -38t17.5 -35t29.5 -26.5q2 -1 4 -3q3 -3 3 -6q0 -2 -1 -3q-2 -1 -5 -3q-4 -3 -14 -3q-25 0 -43.5 15.5t-31 39t-18.5 52.5t-6 56q0 21 2.5 40t4.5 33q3 17 6 31q-52 -52 -104 -92q-22 -17 -46.5 -33.5t-49.5 -29.5 t-49.5 -21t-46.5 -8q-13 0 -21.5 5.5t-13.5 14.5t-7.5 19.5t-2.5 20.5q0 41 19.5 89t48.5 98t63 99t63 92.5t48.5 78t19.5 55.5q0 20 -16 26.5t-33 6.5q-32 0 -66.5 -10t-68 -26.5t-63.5 -38t-53 -44.5t-36.5 -46.5t-13.5 -43.5t14 -30t39 -10q23 0 62 13.5t85 59.5q1 2 3 3 q4 2 6 2q5 0 5 -6q0 -19 -19.5 -41t-47.5 -41t-59.5 -31t-55.5 -12q-44 0 -64 18.5t-20 47.5q0 27 15.5 58t42.5 61.5t63.5 58t78.5 48.5t87.5 33.5t90.5 12.5q12 0 27 -2t28 -8t22 -17t9 -29q0 -25 -19.5 -63.5t-48.5 -84t-62.5 -95.5t-62.5 -97.5t-48.5 -90t-19.5 -74.5 q0 -11 5.5 -20t23.5 -9t49 17.5t67.5 44.5t74.5 60t71 64q23 80 53.5 143t58.5 108q33 52 66 92q25 32 46.5 50.5t38.5 29t30 13.5t21 3q17 0 25.5 -9.5t8.5 -25.5zM698 607q0 10 -11 10q-2 0 -15 -7t-42 -42q-27 -34 -54 -74q-23 -35 -50 -81.5t-50 -102.5q33 34 71.5 78 t72 86.5t56 78.5t22.5 54z" />
<glyph unicode="&#xda;" horiz-adv-x="538" d="M602 754q0 -8 -4 -25.5t-23 -34.5q-3 -3 -18 -10.5t-34 -15.5t-38.5 -14.5t-32.5 -6.5q-5 0 -5 5q0 2 0.5 2.5t0.5 1.5v2q16 15 37 32q18 14 42.5 33t56.5 39q1 0 3 1t5 1q9 0 10 -10zM737 627q0 -24 -15 -56t-39.5 -67.5t-56 -72t-63 -71.5t-61.5 -65.5t-52 -52.5 q-9 -28 -16 -60q-6 -27 -11.5 -59.5t-5.5 -64.5q0 -18 2.5 -37.5t8.5 -38t17.5 -35t29.5 -26.5q2 -1 4 -3q3 -3 3 -6q0 -2 -1 -3q-2 -1 -5 -3q-4 -3 -14 -3q-25 0 -43.5 15.5t-31 39t-18.5 52.5t-6 56q0 21 2.5 40t4.5 33q3 17 6 31q-52 -52 -104 -92q-22 -17 -46.5 -33.5 t-49.5 -29.5t-49.5 -21t-46.5 -8q-13 0 -21.5 5.5t-13.5 14.5t-7.5 19.5t-2.5 20.5q0 41 19.5 89t48.5 98t63 99t63 92.5t48.5 78t19.5 55.5q0 20 -16 26.5t-33 6.5q-32 0 -66.5 -10t-68 -26.5t-63.5 -38t-53 -44.5t-36.5 -46.5t-13.5 -43.5t14 -30t39 -10q23 0 62 13.5 t85 59.5q1 2 3 3q4 2 6 2q5 0 5 -6q0 -19 -19.5 -41t-47.5 -41t-59.5 -31t-55.5 -12q-44 0 -64 18.5t-20 47.5q0 27 15.5 58t42.5 61.5t63.5 58t78.5 48.5t87.5 33.5t90.5 12.5q12 0 27 -2t28 -8t22 -17t9 -29q0 -25 -19.5 -63.5t-48.5 -84t-62.5 -95.5t-62.5 -97.5 t-48.5 -90t-19.5 -74.5q0 -11 5.5 -20t23.5 -9t49 17.5t67.5 44.5t74.5 60t71 64q23 80 53.5 143t58.5 108q33 52 66 92q25 32 46.5 50.5t38.5 29t30 13.5t21 3q17 0 25.5 -9.5t8.5 -25.5zM698 607q0 10 -11 10q-2 0 -15 -7t-42 -42q-27 -34 -54 -74q-23 -35 -50 -81.5 t-50 -102.5q33 34 71.5 78t72 86.5t56 78.5t22.5 54z" />
<glyph unicode="&#xdb;" horiz-adv-x="538" d="M602 660q-1 -1 -2 -3q-2 -4 -6 -4q-7 0 -18.5 10t-23 23t-21 27t-13.5 21q-17 -14 -38 -25.5t-40.5 -20t-34 -13t-18.5 -4.5q-11 0 -11 7q0 2 1 3q16 15 37 33q18 15 44 34.5t58 39.5q2 1 5 2q6 2 11 2t10 -2t9 -8q20 -29 30 -51.5t15 -38.5q5 -18 6 -32zM737 627 q0 -24 -15 -56t-39.5 -67.5t-56 -72t-63 -71.5t-61.5 -65.5t-52 -52.5q-9 -28 -16 -60q-6 -27 -11.5 -59.5t-5.5 -64.5q0 -18 2.5 -37.5t8.5 -38t17.5 -35t29.5 -26.5q2 -1 4 -3q3 -3 3 -6q0 -2 -1 -3q-2 -1 -5 -3q-4 -3 -14 -3q-25 0 -43.5 15.5t-31 39t-18.5 52.5t-6 56 q0 21 2.5 40t4.5 33q3 17 6 31q-52 -52 -104 -92q-22 -17 -46.5 -33.5t-49.5 -29.5t-49.5 -21t-46.5 -8q-13 0 -21.5 5.5t-13.5 14.5t-7.5 19.5t-2.5 20.5q0 41 19.5 89t48.5 98t63 99t63 92.5t48.5 78t19.5 55.5q0 20 -16 26.5t-33 6.5q-32 0 -66.5 -10t-68 -26.5 t-63.5 -38t-53 -44.5t-36.5 -46.5t-13.5 -43.5t14 -30t39 -10q23 0 62 13.5t85 59.5q1 2 3 3q4 2 6 2q5 0 5 -6q0 -19 -19.5 -41t-47.5 -41t-59.5 -31t-55.5 -12q-44 0 -64 18.5t-20 47.5q0 27 15.5 58t42.5 61.5t63.5 58t78.5 48.5t87.5 33.5t90.5 12.5q12 0 27 -2t28 -8 t22 -17t9 -29q0 -25 -19.5 -63.5t-48.5 -84t-62.5 -95.5t-62.5 -97.5t-48.5 -90t-19.5 -74.5q0 -11 5.5 -20t23.5 -9t49 17.5t67.5 44.5t74.5 60t71 64q23 80 53.5 143t58.5 108q33 52 66 92q25 32 46.5 50.5t38.5 29t30 13.5t21 3q17 0 25.5 -9.5t8.5 -25.5zM698 607 q0 10 -11 10q-2 0 -15 -7t-42 -42q-27 -34 -54 -74q-23 -35 -50 -81.5t-50 -102.5q33 34 71.5 78t72 86.5t56 78.5t22.5 54z" />
<glyph unicode="&#xdc;" horiz-adv-x="538" d="M618 713q0 -13 -6 -25t-15 -21t-19 -14t-18 -5q-11 0 -16.5 7t-5.5 17q0 12 5.5 23.5t14.5 20.5t19.5 14.5t19.5 5.5q21 0 21 -23zM471 713q0 -13 -6 -25t-15 -21t-19 -14t-18 -5q-11 0 -16.5 7t-5.5 17q0 12 5.5 23.5t14.5 20.5t19.5 14.5t19.5 5.5q21 0 21 -23z M737 627q0 -24 -15 -56t-39.5 -67.5t-56 -72t-63 -71.5t-61.5 -65.5t-52 -52.5q-9 -28 -16 -60q-6 -27 -11.5 -59.5t-5.5 -64.5q0 -18 2.5 -37.5t8.5 -38t17.5 -35t29.5 -26.5q2 -1 4 -3q3 -3 3 -6q0 -2 -1 -3q-2 -1 -5 -3q-4 -3 -14 -3q-25 0 -43.5 15.5t-31 39t-18.5 52.5 t-6 56q0 21 2.5 40t4.5 33q3 17 6 31q-52 -52 -104 -92q-22 -17 -46.5 -33.5t-49.5 -29.5t-49.5 -21t-46.5 -8q-13 0 -21.5 5.5t-13.5 14.5t-7.5 19.5t-2.5 20.5q0 41 19.5 89t48.5 98t63 99t63 92.5t48.5 78t19.5 55.5q0 20 -16 26.5t-33 6.5q-32 0 -66.5 -10t-68 -26.5 t-63.5 -38t-53 -44.5t-36.5 -46.5t-13.5 -43.5t14 -30t39 -10q23 0 62 13.5t85 59.5q1 2 3 3q4 2 6 2q5 0 5 -6q0 -19 -19.5 -41t-47.5 -41t-59.5 -31t-55.5 -12q-44 0 -64 18.5t-20 47.5q0 27 15.5 58t42.5 61.5t63.5 58t78.5 48.5t87.5 33.5t90.5 12.5q12 0 27 -2t28 -8 t22 -17t9 -29q0 -25 -19.5 -63.5t-48.5 -84t-62.5 -95.5t-62.5 -97.5t-48.5 -90t-19.5 -74.5q0 -11 5.5 -20t23.5 -9t49 17.5t67.5 44.5t74.5 60t71 64q23 80 53.5 143t58.5 108q33 52 66 92q25 32 46.5 50.5t38.5 29t30 13.5t21 3q17 0 25.5 -9.5t8.5 -25.5zM698 607 q0 10 -11 10q-2 0 -15 -7t-42 -42q-27 -34 -54 -74q-23 -35 -50 -81.5t-50 -102.5q33 34 71.5 78t72 86.5t56 78.5t22.5 54z" />
<glyph unicode="&#xdd;" horiz-adv-x="585" d="M622 716q0 -8 -4 -25.5t-23 -34.5q-3 -3 -18 -10.5t-34 -15.5t-38.5 -14.5t-32.5 -6.5q-5 0 -5 5q0 2 0.5 2.5t0.5 1.5v2q16 15 37 32q18 14 42.5 33t56.5 39q1 0 3 1t5 1q9 0 10 -10zM716 570q0 -29 -24 -70t-59 -82.5t-73.5 -78.5t-67.5 -58q-6 -12 -10.5 -23 t-10.5 -26t-15.5 -35.5t-24.5 -52.5q23 -2 41 -9q16 -6 29 -17t12 -31q0 -9 -2 -11.5t-4 -2.5q-6 0 -11.5 5t-15 11t-25.5 11.5t-43 6.5q-45 -87 -100 -156q-24 -29 -52 -57t-60.5 -50t-68 -35.5t-73.5 -13.5q-34 0 -60.5 15.5t-26.5 54.5q0 30 17.5 62.5t47 63.5t69.5 59.5 t84.5 49.5t92 33.5t92.5 12.5q14 26 21 43t17 41q-25 -14 -53 -25q-24 -10 -54 -17.5t-60 -7.5q-38 0 -55 16t-17 41q0 21 11.5 47t28.5 54.5t37 58.5t37 58.5t28.5 54t11.5 45.5q0 16 -9.5 31t-35.5 15q-63 0 -117.5 -23.5t-94.5 -55.5t-63 -65t-23 -52q0 -15 12.5 -21 t29.5 -6q11 0 26 2.5t34 9.5t41 20.5t46 35.5l2 2q2 2 5 2q8 0 8 -9q0 -13 -16 -32.5t-42 -37.5t-58.5 -31t-64.5 -13q-36 0 -55 12.5t-19 41.5q0 22 13.5 49.5t37.5 55.5t57 54.5t72.5 47t83.5 33t90 12.5q49 0 71.5 -22.5t22.5 -58.5q0 -39 -22 -80t-49 -80.5t-49 -76.5 t-22 -69q0 -9 5.5 -18.5t25.5 -9.5q32 0 61 9t52 20q26 13 50 29q7 15 19 44.5t29 66t38.5 75t47 70t55 51.5t61.5 20q17 0 25 -9.5t8 -23.5zM674 548q0 4 -2 7.5t-8 3.5q-14 0 -29.5 -13.5t-31 -34.5t-30 -46t-26 -48.5t-19.5 -42t-10 -26.5v-1q0 -2 2 -2q3 0 16 12 t30 30.5t36 42t35 46t26.5 42t10.5 30.5zM355 110q-52 0 -110 -20.5t-106.5 -53.5t-80 -75.5t-31.5 -87.5q0 -16 3.5 -25t9 -13.5t13.5 -5.5t17 -1q27 0 53 12t51 32t48.5 45t43.5 52q48 62 89 141z" />
<glyph unicode="&#xde;" horiz-adv-x="663" d="M749 368q0 -52 -27.5 -95t-72.5 -73t-101.5 -46.5t-114.5 -16.5q-20 0 -40 1.5t-38 6.5q-18 -30 -36 -57q21 -8 33.5 -20.5t12.5 -26.5q0 -7 -5 -7q-2 0 -6 2q-2 1 -4 1q-24 17 -51 23q-33 -45 -68.5 -76.5t-70 -51t-66.5 -28t-59 -8.5q-82 0 -82 50q0 34 29 62.5 t71.5 49t91 31.5t88.5 11h16.5t14.5 -1q8 14 18 32.5t21 38.5q-16 14 -19 35q0 4 2 8q4 7 9 7q6 0 12 -6q3 -3 5 -7l2 -2l5 -5q5 8 9.5 16t7.5 15q16 32 36 67t42.5 70t47 68t49.5 61q-12 1 -22 1.5t-18 0.5q-77 0 -144 -16.5t-116 -43t-77 -58.5t-28 -63q0 -20 13.5 -28 t47.5 -8q18 0 42.5 5.5t50.5 17.5t53 30t49 42q2 1 4 3q3 3 7 3q2 0 3 -1.5t1 -8.5q-4 -24 -27.5 -48t-57 -44t-72.5 -32.5t-73 -12.5q-49 0 -70.5 17.5t-21.5 46.5q0 43 32.5 83.5t90 72t137.5 51t174 19.5q12 0 23.5 -0.5t22.5 -1.5q29 30 56 49t50 22q2 0 5.5 -0.5 t3.5 -4.5q0 -3 -6 -9q-3 -3 -7 -5q-33 -28 -61 -58q38 -7 69.5 -21t54.5 -33t36 -43t13 -53zM690 373q0 29 -12 49.5t-31.5 34.5t-44 22.5t-48.5 12.5q-32 -39 -57.5 -79.5t-47 -81t-40.5 -80.5t-38 -76q14 -4 30 -6t37 -2q48 0 93 14t80.5 40.5t57 65t21.5 86.5zM246 69 q-69 0 -113.5 -14.5t-70.5 -33.5t-36 -38t-10 -27q0 -15 12 -20t26 -5q42 0 76.5 21.5t60.5 47.5q30 31 55 69z" />
<glyph unicode="&#xdf;" horiz-adv-x="484" d="M505 523q0 -14 -9 -37t-28.5 -47.5t-49.5 -48t-72 -38.5q-1 -1 -3 -2q-3 -1 -3 -4q0 -2 6 -4q24 -6 42 -20q16 -12 28.5 -32t12.5 -52q0 -14 -3.5 -32t-11.5 -36q13 -4 24 -12q9 -7 16 -16.5t7 -23.5t-5.5 -20t-8.5 -6q-4 0 -8 6q-2 3 -2 6q-6 12 -16 20t-22 14 q-25 -43 -60 -76q-30 -29 -73.5 -53t-101.5 -24q-41 0 -59 13.5t-18 34.5q0 22 19 48.5t52 49.5t78.5 38.5t98.5 15.5q9 0 17 -0.5t16 -1.5q5 20 6.5 36t1.5 26q0 26 -11 41.5t-27 23.5t-34 10.5t-32 2.5t-19 -1q-4 -1 -8 -1q-2 0 -3.5 -0.5t-3.5 -0.5q-14 0 -14 9q0 7 3 11 q2 3 3 5q5 5 14 7t19 3q11 1 24 1q27 5 55 21.5t51.5 38t38.5 46t15 45.5q0 24 -11.5 29.5t-28.5 5.5q-37 0 -75 -23.5t-75.5 -63t-73 -90.5t-67.5 -105t-59 -108t-48 -99t-34 -77.5t-17 -43.5q-3 -9 -6.5 -11.5t-6.5 -2.5q-5 0 -14 9t-9 34v6.5t1 7.5q8 37 32.5 96.5 t61.5 126.5t84.5 134.5t101.5 122t112.5 89t117.5 34.5q10 0 22.5 -1.5t23.5 -6.5t18.5 -16t7.5 -31zM356 149q-11 2 -20 2h-15q-39 0 -70.5 -11.5t-53.5 -28.5t-34 -35.5t-12 -33.5q0 -25 30 -25q43 0 75 20.5t55 45.5q26 29 45 66z" />
<glyph unicode="&#xe0;" d="M351 361q0 -5 -6 -5q-17 3 -37 9q-17 5 -39 14t-47 24q-19 17 -23 34.5t-4 25.5q1 10 10 10q4 0 6 -1l2 -1q32 -20 57 -38.5t42 -32.5q20 -17 35 -31q4 -4 4 -8zM448 173q0 -5 -2 -12t-10 -17q-48 -63 -87 -99t-67.5 -53.5t-46 -22t-21.5 -4.5q-30 0 -40 15.5t-10 34.5 q0 23 6 38.5t6 18.5q0 2 -2 2l-2 -1q-1 -1 -2 -1q-25 -28 -48.5 -44t-43 -24.5t-33.5 -10.5t-22 -2q-15 0 -25 5.5t-15 14t-7 18.5t-2 20q0 39 23.5 85t60 85.5t81.5 65.5t87 26q17 0 31 -7t22 -25q0 -1 1 -2q2 -2 3 -2t4 4q8 16 20 26.5t26 10.5q6 0 16 -2t10 -9v-3 q0 -1 -1 -1q-17 -21 -35 -49t-32 -54q-17 -30 -33 -60q-11 -20 -20 -38q-8 -16 -14 -34t-6 -32q0 -10 4.5 -18t19.5 -8q10 0 24.5 7t37 26.5t55 54.5t77.5 90q0 1 1 2t3 1q1 0 4.5 -4t3.5 -12zM253 253q0 17 -8 22t-19 5q-24 0 -57.5 -23.5t-64 -58t-51.5 -73t-21 -67.5 q0 -10 4.5 -19t19.5 -9q18 0 42 15t49.5 41t51 60.5t45.5 73.5q5 11 7 19t2 14z" />
<glyph unicode="&#xe1;" d="M403 459q0 -8 -4 -25.5t-23 -34.5q-3 -3 -18 -10.5t-34 -15.5t-38.5 -14.5t-32.5 -6.5q-5 0 -5 5q0 2 0.5 2.5t0.5 1.5v2q16 15 37 32q18 14 42.5 33t56.5 39q1 0 3 1t5 1q9 0 10 -10zM448 173q0 -5 -2 -12t-10 -17q-48 -63 -87 -99t-67.5 -53.5t-46 -22t-21.5 -4.5 q-30 0 -40 15.5t-10 34.5q0 23 6 38.5t6 18.5q0 2 -2 2l-2 -1q-1 -1 -2 -1q-25 -28 -48.5 -44t-43 -24.5t-33.5 -10.5t-22 -2q-15 0 -25 5.5t-15 14t-7 18.5t-2 20q0 39 23.5 85t60 85.5t81.5 65.5t87 26q17 0 31 -7t22 -25q0 -1 1 -2q2 -2 3 -2t4 4q8 16 20 26.5t26 10.5 q6 0 16 -2t10 -9v-3q0 -1 -1 -1q-17 -21 -35 -49t-32 -54q-17 -30 -33 -60q-11 -20 -20 -38q-8 -16 -14 -34t-6 -32q0 -10 4.5 -18t19.5 -8q10 0 24.5 7t37 26.5t55 54.5t77.5 90q0 1 1 2t3 1q1 0 4.5 -4t3.5 -12zM253 253q0 17 -8 22t-19 5q-24 0 -57.5 -23.5t-64 -58 t-51.5 -73t-21 -67.5q0 -10 4.5 -19t19.5 -9q18 0 42 15t49.5 41t51 60.5t45.5 73.5q5 11 7 19t2 14z" />
<glyph unicode="&#xe2;" d="M366 347q-1 -1 -2 -3q-2 -4 -6 -4q-7 0 -18.5 10t-23 23t-21 27t-13.5 21q-17 -14 -38 -25.5t-40.5 -20t-34 -13t-18.5 -4.5q-11 0 -11 7q0 2 1 3q16 15 37 33q18 15 44 34.5t58 39.5q2 1 5 2q6 2 11 2t10 -2t9 -8q20 -29 30 -51.5t15 -38.5q5 -18 6 -32zM448 173 q0 -5 -2 -12t-10 -17q-48 -63 -87 -99t-67.5 -53.5t-46 -22t-21.5 -4.5q-30 0 -40 15.5t-10 34.5q0 23 6 38.5t6 18.5q0 2 -2 2l-2 -1q-1 -1 -2 -1q-25 -28 -48.5 -44t-43 -24.5t-33.5 -10.5t-22 -2q-15 0 -25 5.5t-15 14t-7 18.5t-2 20q0 39 23.5 85t60 85.5t81.5 65.5 t87 26q17 0 31 -7t22 -25q0 -1 1 -2q2 -2 3 -2t4 4q8 16 20 26.5t26 10.5q6 0 16 -2t10 -9v-3q0 -1 -1 -1q-17 -21 -35 -49t-32 -54q-17 -30 -33 -60q-11 -20 -20 -38q-8 -16 -14 -34t-6 -32q0 -10 4.5 -18t19.5 -8q10 0 24.5 7t37 26.5t55 54.5t77.5 90q0 1 1 2t3 1 q1 0 4.5 -4t3.5 -12zM253 253q0 17 -8 22t-19 5q-24 0 -57.5 -23.5t-64 -58t-51.5 -73t-21 -67.5q0 -10 4.5 -19t19.5 -9q18 0 42 15t49.5 41t51 60.5t45.5 73.5q5 11 7 19t2 14z" />
<glyph unicode="&#xe3;" d="M371 420q0 -15 -5.5 -25t-13.5 -15.5t-16.5 -8t-14.5 -2.5q-15 0 -26 4.5t-21.5 10t-21.5 10t-27 4.5q-19 0 -25.5 -5t-12.5 -5t-6 7q0 14 17.5 24.5t40.5 10.5q14 0 23.5 -3t18 -6.5t17.5 -6.5t21 -3q11 0 18 3t11.5 7t8 7t7.5 3q7 0 7 -11zM448 173q0 -5 -2 -12 t-10 -17q-48 -63 -87 -99t-67.5 -53.5t-46 -22t-21.5 -4.5q-30 0 -40 15.5t-10 34.5q0 23 6 38.5t6 18.5q0 2 -2 2l-2 -1q-1 -1 -2 -1q-25 -28 -48.5 -44t-43 -24.5t-33.5 -10.5t-22 -2q-15 0 -25 5.5t-15 14t-7 18.5t-2 20q0 39 23.5 85t60 85.5t81.5 65.5t87 26 q17 0 31 -7t22 -25q0 -1 1 -2q2 -2 3 -2t4 4q8 16 20 26.5t26 10.5q6 0 16 -2t10 -9v-3q0 -1 -1 -1q-17 -21 -35 -49t-32 -54q-17 -30 -33 -60q-11 -20 -20 -38q-8 -16 -14 -34t-6 -32q0 -10 4.5 -18t19.5 -8q10 0 24.5 7t37 26.5t55 54.5t77.5 90q0 1 1 2t3 1q1 0 4.5 -4 t3.5 -12zM253 253q0 17 -8 22t-19 5q-24 0 -57.5 -23.5t-64 -58t-51.5 -73t-21 -67.5q0 -10 4.5 -19t19.5 -9q18 0 42 15t49.5 41t51 60.5t45.5 73.5q5 11 7 19t2 14z" />
<glyph unicode="&#xe4;" d="M399 442q0 -13 -6 -25t-15 -21t-19 -14t-18 -5q-11 0 -16.5 7t-5.5 17q0 12 5.5 23.5t14.5 20.5t19.5 14.5t19.5 5.5q21 0 21 -23zM252 442q0 -13 -6 -25t-15 -21t-19 -14t-18 -5q-11 0 -16.5 7t-5.5 17q0 12 5.5 23.5t14.5 20.5t19.5 14.5t19.5 5.5q21 0 21 -23z M448 173q0 -5 -2 -12t-10 -17q-48 -63 -87 -99t-67.5 -53.5t-46 -22t-21.5 -4.5q-30 0 -40 15.5t-10 34.5q0 23 6 38.5t6 18.5q0 2 -2 2l-2 -1q-1 -1 -2 -1q-25 -28 -48.5 -44t-43 -24.5t-33.5 -10.5t-22 -2q-15 0 -25 5.5t-15 14t-7 18.5t-2 20q0 39 23.5 85t60 85.5 t81.5 65.5t87 26q17 0 31 -7t22 -25q0 -1 1 -2q2 -2 3 -2t4 4q8 16 20 26.5t26 10.5q6 0 16 -2t10 -9v-3q0 -1 -1 -1q-17 -21 -35 -49t-32 -54q-17 -30 -33 -60q-11 -20 -20 -38q-8 -16 -14 -34t-6 -32q0 -10 4.5 -18t19.5 -8q10 0 24.5 7t37 26.5t55 54.5t77.5 90q0 1 1 2 t3 1q1 0 4.5 -4t3.5 -12zM253 253q0 17 -8 22t-19 5q-24 0 -57.5 -23.5t-64 -58t-51.5 -73t-21 -67.5q0 -10 4.5 -19t19.5 -9q18 0 42 15t49.5 41t51 60.5t45.5 73.5q5 11 7 19t2 14z" />
<glyph unicode="&#xe5;" d="M356 444q0 -18 -8 -32.5t-20 -25.5t-25.5 -17t-25.5 -6q-14 0 -21.5 9.5t-7.5 24.5q0 16 7.5 31t18.5 26t25 18t27 7q14 0 22 -10t8 -25zM448 173q0 -5 -2 -12t-10 -17q-48 -63 -87 -99t-67.5 -53.5t-46 -22t-21.5 -4.5q-30 0 -40 15.5t-10 34.5q0 23 6 38.5t6 18.5 q0 2 -2 2l-2 -1q-1 -1 -2 -1q-25 -28 -48.5 -44t-43 -24.5t-33.5 -10.5t-22 -2q-15 0 -25 5.5t-15 14t-7 18.5t-2 20q0 39 23.5 85t60 85.5t81.5 65.5t87 26q17 0 31 -7t22 -25q0 -1 1 -2q2 -2 3 -2t4 4q8 16 20 26.5t26 10.5q6 0 16 -2t10 -9v-3q0 -1 -1 -1 q-17 -21 -35 -49t-32 -54q-17 -30 -33 -60q-11 -20 -20 -38q-8 -16 -14 -34t-6 -32q0 -10 4.5 -18t19.5 -8q10 0 24.5 7t37 26.5t55 54.5t77.5 90q0 1 1 2t3 1q1 0 4.5 -4t3.5 -12zM331 436q0 17 -16 17q-6 0 -13.5 -4t-14 -10.5t-10.5 -14.5t-4 -17q0 -17 15 -17q11 0 19 6 t13.5 13.5t8 15.5t2.5 11zM253 253q0 17 -8 22t-19 5q-24 0 -57.5 -23.5t-64 -58t-51.5 -73t-21 -67.5q0 -10 4.5 -19t19.5 -9q18 0 42 15t49.5 41t51 60.5t45.5 73.5q5 11 7 19t2 14z" />
<glyph unicode="&#xe6;" horiz-adv-x="501" d="M543 173q0 -5 -4.5 -15.5t-11.5 -20.5q-16 -24 -44 -53.5t-62.5 -55.5t-73 -44t-76.5 -18q-12 0 -28 2.5t-30 11.5t-24 27t-10 50v10.5t1 10.5v1q0 1 -2 1l-8 -8q-27 -27 -50.5 -43t-42.5 -24.5t-32.5 -11t-21.5 -2.5q-15 0 -25 5.5t-15 14t-7 18.5t-2 20q0 39 23.5 85 t60 85.5t81.5 65.5t87 26q17 0 31 -7t22 -25q0 -1 1 -2q2 -2 3 -2t4 4q12 23 26.5 34.5t36.5 11.5q10 0 10 -6q0 -3 -8 -11l-8 -8q8 5 19 9q9 3 20 5.5t23 2.5q21 0 35.5 -10t14.5 -37q0 -24 -15.5 -52.5t-43.5 -53.5t-65.5 -42.5t-81.5 -19.5q-1 1 -2 0l-2 -4 q-8 -23 -8 -43q0 -16 4.5 -26.5t12 -16t16.5 -7.5t17 -2q18 0 41 6.5t53 26t66.5 54.5t80.5 93q1 2 2 3q2 2 4 2t5 -3.5t3 -11.5zM415 272q0 6 -4.5 10.5t-12.5 4.5q-14 0 -30.5 -11t-33 -27.5t-31.5 -36.5t-26 -38q-7 -13 -12 -21l-4 -10t-3 -9q0 -2 1 -3l1 -1 q27 3 54.5 18t50 35t36.5 44t14 45zM253 253q0 17 -8 22t-19 5q-24 0 -57.5 -23.5t-64 -58t-51.5 -73t-21 -67.5q0 -10 4.5 -19t19.5 -9q18 0 42 15t49.5 41t51 60.5t45.5 73.5q5 11 7 19t2 14z" />
<glyph unicode="&#xe7;" horiz-adv-x="291" d="M334 176q0 -5 -2 -12.5t-9 -17.5q-19 -27 -44.5 -54.5t-55 -51t-60.5 -41t-61 -24.5q-1 -1 -2 -1t-2 -1l-1 -1q-3 -2 -6 -6q-2 -3 -4.5 -6.5t-2.5 -5.5q0 -3 6 -5.5t13 -5.5t13 -9t6 -16q0 -21 -18 -32t-38 -11q-14 0 -25.5 5t-11.5 14q0 2 2 3.5t4 1.5q5 0 7.5 -2.5 t14.5 -2.5t23 6.5t11 13.5q0 8 -6 11t-13 5t-13 4.5t-6 8.5q0 9 9.5 16.5t9.5 9.5t-2 2h-1q-14 0 -30 2t-29.5 10.5t-22.5 25.5t-9 47q0 37 20 83t53.5 86t76 67.5t87.5 27.5q18 0 29 -4t17 -11t7.5 -14.5t1.5 -15.5q0 -25 -11 -44t-27.5 -31.5t-35 -18.5t-33.5 -6 q-17 0 -24 3.5t-7 7.5q0 2 4 4q2 1 3 1q19 2 34.5 11t27 21.5t17.5 26t6 24.5t-3.5 14t-13.5 3q-28 0 -58.5 -25.5t-56 -62t-41.5 -76t-16 -67.5q0 -32 14 -42t35 -10q54 0 110 43t130 138q0 1 1 2t2 1q2 0 4.5 -4t2.5 -12z" />
<glyph unicode="&#xe8;" horiz-adv-x="312" d="M324 351q0 -5 -6 -5q-17 3 -37 9q-17 5 -39 14t-47 24q-19 17 -23 34.5t-4 25.5q1 10 10 10q4 0 6 -1l2 -1q32 -20 57 -38.5t42 -32.5q20 -17 35 -31q4 -4 4 -8zM353 173q0 -5 -4.5 -15.5t-11.5 -20.5q-16 -24 -44 -53.5t-62.5 -55.5t-73 -44t-76.5 -18q-12 0 -28 2.5 t-30 11.5t-24 27t-10 50q0 48 21.5 94.5t55 83.5t73.5 59.5t77 22.5q21 0 35.5 -10t14.5 -37q0 -24 -15.5 -52.5t-43.5 -53.5t-65.5 -42.5t-81.5 -19.5q-1 1 -2 0l-2 -4q-8 -23 -8 -43q0 -16 4.5 -26.5t12 -16t16.5 -7.5t17 -2q18 0 41 6.5t53 26t66.5 54.5t80.5 93q1 2 2 3 q2 2 4 2t5 -3.5t3 -11.5zM225 272q0 6 -4.5 10.5t-12.5 4.5q-19 0 -41.5 -18t-43 -42.5t-35.5 -50.5t-20 -42q0 -2 1 -3l1 -1q27 3 54.5 18t50 35t36.5 44t14 45z" />
<glyph unicode="&#xe9;" horiz-adv-x="312" d="M338 456q0 -8 -4 -25.5t-23 -34.5q-3 -3 -18 -10.5t-34 -15.5t-38.5 -14.5t-32.5 -6.5q-5 0 -5 5q0 2 0.5 2.5t0.5 1.5v2q16 15 37 32q18 14 42.5 33t56.5 39q1 0 3 1t5 1q9 0 10 -10zM353 173q0 -5 -4.5 -15.5t-11.5 -20.5q-16 -24 -44 -53.5t-62.5 -55.5t-73 -44 t-76.5 -18q-12 0 -28 2.5t-30 11.5t-24 27t-10 50q0 48 21.5 94.5t55 83.5t73.5 59.5t77 22.5q21 0 35.5 -10t14.5 -37q0 -24 -15.5 -52.5t-43.5 -53.5t-65.5 -42.5t-81.5 -19.5q-1 1 -2 0l-2 -4q-8 -23 -8 -43q0 -16 4.5 -26.5t12 -16t16.5 -7.5t17 -2q18 0 41 6.5t53 26 t66.5 54.5t80.5 93q1 2 2 3q2 2 4 2t5 -3.5t3 -11.5zM225 272q0 6 -4.5 10.5t-12.5 4.5q-19 0 -41.5 -18t-43 -42.5t-35.5 -50.5t-20 -42q0 -2 1 -3l1 -1q27 3 54.5 18t50 35t36.5 44t14 45z" />
<glyph unicode="&#xea;" horiz-adv-x="313" d="M330 356q-1 -1 -2 -3q-2 -4 -6 -4q-7 0 -18.5 10t-23 23t-21 27t-13.5 21q-17 -14 -38 -25.5t-40.5 -20t-34 -13t-18.5 -4.5q-11 0 -11 7q0 2 1 3q16 15 37 33q18 15 44 34.5t58 39.5q2 1 5 2q6 2 11 2t10 -2t9 -8q20 -29 30 -51.5t15 -38.5q5 -18 6 -32zM353 173 q0 -5 -4.5 -15.5t-11.5 -20.5q-16 -24 -44 -53.5t-62.5 -55.5t-73 -44t-76.5 -18q-12 0 -28 2.5t-30 11.5t-24 27t-10 50q0 48 21.5 94.5t55 83.5t73.5 59.5t77 22.5q21 0 35.5 -10t14.5 -37q0 -24 -15.5 -52.5t-43.5 -53.5t-65.5 -42.5t-81.5 -19.5q-1 1 -2 0l-2 -4 q-8 -23 -8 -43q0 -16 4.5 -26.5t12 -16t16.5 -7.5t17 -2q18 0 41 6.5t53 26t66.5 54.5t80.5 93q1 2 2 3q2 2 4 2t5 -3.5t3 -11.5zM225 272q0 6 -4.5 10.5t-12.5 4.5q-19 0 -41.5 -18t-43 -42.5t-35.5 -50.5t-20 -42q0 -2 1 -3l1 -1q27 3 54.5 18t50 35t36.5 44t14 45z" />
<glyph unicode="&#xeb;" horiz-adv-x="312" d="M362 442q0 -13 -6 -25t-15 -21t-19 -14t-18 -5q-11 0 -16.5 7t-5.5 17q0 12 5.5 23.5t14.5 20.5t19.5 14.5t19.5 5.5q21 0 21 -23zM215 442q0 -13 -6 -25t-15 -21t-19 -14t-18 -5q-11 0 -16.5 7t-5.5 17q0 12 5.5 23.5t14.5 20.5t19.5 14.5t19.5 5.5q21 0 21 -23z M353 173q0 -5 -4.5 -15.5t-11.5 -20.5q-16 -24 -44 -53.5t-62.5 -55.5t-73 -44t-76.5 -18q-12 0 -28 2.5t-30 11.5t-24 27t-10 50q0 48 21.5 94.5t55 83.5t73.5 59.5t77 22.5q21 0 35.5 -10t14.5 -37q0 -24 -15.5 -52.5t-43.5 -53.5t-65.5 -42.5t-81.5 -19.5q-1 1 -2 0 l-2 -4q-8 -23 -8 -43q0 -16 4.5 -26.5t12 -16t16.5 -7.5t17 -2q18 0 41 6.5t53 26t66.5 54.5t80.5 93q1 2 2 3q2 2 4 2t5 -3.5t3 -11.5zM225 272q0 6 -4.5 10.5t-12.5 4.5q-19 0 -41.5 -18t-43 -42.5t-35.5 -50.5t-20 -42q0 -2 1 -3l1 -1q27 3 54.5 18t50 35t36.5 44t14 45z " />
<glyph unicode="&#xec;" horiz-adv-x="212" d="M228 345q0 -5 -6 -5q-17 3 -37 9q-17 5 -39 14t-47 24q-19 17 -23 34.5t-4 25.5q1 10 10 10q4 0 6 -1l2 -1q32 -20 57 -38.5t42 -32.5q20 -17 35 -31q4 -4 4 -8zM259 182q0 -5 -2 -12.5t-10 -18.5q-12 -18 -27 -36t-30.5 -34.5t-30.5 -30.5t-27 -24q-26 -22 -47 -35 t-36.5 -20t-27 -8.5t-19.5 -1.5q-26 0 -35 15.5t-9 34.5q0 35 20 79.5t44 84.5q28 47 63 95q3 5 10 9q6 3 15.5 5.5t26.5 2.5q9 -1 9 -7q0 -2 -2 -6q-12 -19 -34.5 -52.5t-44.5 -70t-38.5 -71t-16.5 -56.5q0 -7 3 -15t17 -8q5 0 12.5 1t20 7t29.5 18t39 34q23 23 51 54 t66 79l2 2q1 1 3 1l2 -2q1 -1 2 -3q2 -4 2 -10z" />
<glyph unicode="&#xed;" horiz-adv-x="212" d="M294 465q0 -8 -4 -25.5t-23 -34.5q-3 -3 -18 -10.5t-34 -15.5t-38.5 -14.5t-32.5 -6.5q-5 0 -5 5q0 2 0.5 2.5t0.5 1.5v2q16 15 37 32q18 14 42.5 33t56.5 39q1 0 3 1t5 1q9 0 10 -10zM259 182q0 -5 -2 -12.5t-10 -18.5q-12 -18 -27 -36t-30.5 -34.5t-30.5 -30.5t-27 -24 q-26 -22 -47 -35t-36.5 -20t-27 -8.5t-19.5 -1.5q-26 0 -35 15.5t-9 34.5q0 35 20 79.5t44 84.5q28 47 63 95q3 5 10 9q6 3 15.5 5.5t26.5 2.5q9 -1 9 -7q0 -2 -2 -6q-12 -19 -34.5 -52.5t-44.5 -70t-38.5 -71t-16.5 -56.5q0 -7 3 -15t17 -8q5 0 12.5 1t20 7t29.5 18t39 34 q23 23 51 54t66 79l2 2q1 1 3 1l2 -2q1 -1 2 -3q2 -4 2 -10z" />
<glyph unicode="&#xee;" horiz-adv-x="212" d="M263 330q-1 -1 -2 -3q-2 -4 -6 -4q-7 0 -18.5 10t-23 23t-21 27t-13.5 21q-17 -14 -38 -25.5t-40.5 -20t-34 -13t-18.5 -4.5q-11 0 -11 7q0 2 1 3q16 15 37 33q18 15 44 34.5t58 39.5q2 1 5 2q6 2 11 2t10 -2t9 -8q20 -29 30 -51.5t15 -38.5q5 -18 6 -32zM259 182 q0 -5 -2 -12.5t-10 -18.5q-12 -18 -27 -36t-30.5 -34.5t-30.5 -30.5t-27 -24q-26 -22 -47 -35t-36.5 -20t-27 -8.5t-19.5 -1.5q-26 0 -35 15.5t-9 34.5q0 35 20 79.5t44 84.5q28 47 63 95q3 5 10 9q6 3 15.5 5.5t26.5 2.5q9 -1 9 -7q0 -2 -2 -6q-12 -19 -34.5 -52.5 t-44.5 -70t-38.5 -71t-16.5 -56.5q0 -7 3 -15t17 -8q5 0 12.5 1t20 7t29.5 18t39 34q23 23 51 54t66 79l2 2q1 1 3 1l2 -2q1 -1 2 -3q2 -4 2 -10z" />
<glyph unicode="&#xef;" horiz-adv-x="212" d="M297 424q0 -13 -6 -25t-15 -21t-19 -14t-18 -5q-11 0 -16.5 7t-5.5 17q0 12 5.5 23.5t14.5 20.5t19.5 14.5t19.5 5.5q21 0 21 -23zM150 424q0 -13 -6 -25t-15 -21t-19 -14t-18 -5q-11 0 -16.5 7t-5.5 17q0 12 5.5 23.5t14.5 20.5t19.5 14.5t19.5 5.5q21 0 21 -23z M259 182q0 -5 -2 -12.5t-10 -18.5q-12 -18 -27 -36t-30.5 -34.5t-30.5 -30.5t-27 -24q-26 -22 -47 -35t-36.5 -20t-27 -8.5t-19.5 -1.5q-26 0 -35 15.5t-9 34.5q0 35 20 79.5t44 84.5q28 47 63 95q3 5 10 9q6 3 15.5 5.5t26.5 2.5q9 -1 9 -7q0 -2 -2 -6q-12 -19 -34.5 -52.5 t-44.5 -70t-38.5 -71t-16.5 -56.5q0 -7 3 -15t17 -8q5 0 12.5 1t20 7t29.5 18t39 34q23 23 51 54t66 79l2 2q1 1 3 1l2 -2q1 -1 2 -3q2 -4 2 -10z" />
<glyph unicode="&#xf0;" horiz-adv-x="398" d="M491 392q0 -2 -3 -7q-13 -22 -37.5 -27t-59.5 -5h-8q-16 -30 -35 -60.5t-37.5 -58.5t-34 -53.5t-26.5 -46.5q-10 -19 -19 -37q-8 -16 -14 -33.5t-6 -32.5q0 -9 4 -18t18 -9q28 0 74 44t122 138l1 1q1 1 2 1q2 0 4 -4.5t2 -12.5q0 -6 -2.5 -14t-10.5 -19q-50 -65 -88 -100 t-64.5 -51.5t-42 -19.5t-20.5 -3q-29 0 -39 18t-10 38q0 19 4 33.5t5 16.5q0 3 -2 3q-1 0 -3 -2q-25 -29 -49.5 -45.5t-44 -25t-33 -10.5t-15.5 -2q-16 0 -26 5.5t-15.5 14t-7.5 19t-2 20.5q0 38 21 83t55 84t78 65.5t90 26.5q17 0 32 -6.5t23 -24.5l1 -1q2 -2 3 -2q3 0 4 3 q13 14 26.5 34.5t27.5 44.5q-30 0 -47.5 -0.5t-27.5 -1t-14.5 -1t-7.5 -0.5q-9 0 -9 7q0 1 0.5 1.5t0.5 1.5v1q0 1 3 5.5t9 10t15.5 10t22.5 4.5h74q17 37 29 71.5t12 54.5q0 21 -7.5 34.5t-19.5 21t-26.5 10t-28.5 2.5q-32 0 -60 -10t-49 -25t-33 -32.5t-12 -31.5 q0 -13 11 -21t34 -8q12 0 28.5 3.5t32.5 9t29.5 13t20.5 15.5q5 4 9 4t4 -5q0 -11 -12.5 -24.5t-33 -25.5t-45.5 -20t-51 -8q-37 0 -53.5 14t-16.5 35t15.5 46.5t42.5 47t64.5 36t81.5 14.5q57 0 87.5 -28.5t30.5 -75.5q0 -26 -9.5 -56t-23.5 -61h27q20 0 31 0.5t19 2.5 q1 1 2 1h4q5 0 5 -4zM245 247q-2 18 -10 24t-22 6q-22 0 -53.5 -23t-61 -57t-50.5 -72.5t-21 -70.5q0 -8 3.5 -16t16.5 -8q21 0 44 13.5t45 34t41.5 46t34.5 49.5t24 44t9 30z" />
<glyph unicode="&#xf1;" horiz-adv-x="393" d="M389 420q0 -15 -5.5 -25t-13.5 -15.5t-16.5 -8t-14.5 -2.5q-15 0 -26 4.5t-21.5 10t-21.5 10t-27 4.5q-19 0 -25.5 -5t-12.5 -5t-6 7q0 14 17.5 24.5t40.5 10.5q14 0 23.5 -3t18 -6.5t17.5 -6.5t21 -3q11 0 18 3t11.5 7t8 7t7.5 3q7 0 7 -11zM444 184q0 -5 -3 -13.5 t-11 -19.5q-9 -11 -17.5 -21.5t-16.5 -20.5q-29 -34 -54.5 -55.5t-46.5 -33.5t-38 -16.5t-31 -4.5q-15 0 -23 5.5t-12 13t-4.5 14.5t-0.5 10q0 22 11.5 48.5t25 52.5t25 49.5t11.5 38.5q0 8 -3 10t-8 2q-14 0 -36.5 -14t-48.5 -36.5t-53.5 -50t-51.5 -54t-42 -48.5t-25 -35 q-10 -18 -24.5 -22t-22.5 -4q-9 0 -12 5q-2 3 -2 5q9 22 29.5 63.5t45 89t51 93.5t47.5 76q4 3 10 7q12 7 38 7q2 0 5 -1q5 -2 5 -7q0 -3 -5 -13l-94 -162q0 -2 1 -2q4 0 7 4l14 14t30 28t41 34.5t46 34t45.5 25.5t40.5 10q11 0 21.5 -6.5t10.5 -25.5q0 -20 -11.5 -47 t-25.5 -54.5t-25.5 -53t-11.5 -42.5q0 -6 3 -12.5t15 -6.5q6 0 16.5 4.5t28 18t42 39t59.5 67.5q8 9 15 17.5t10 9.5l2 1q3 0 4 -3q1 -1 2 -3q2 -4 2 -9z" />
<glyph unicode="&#xf2;" horiz-adv-x="381" d="M312 349q0 -5 -6 -5q-17 3 -37 9q-17 5 -39 14t-47 24q-19 17 -23 34.5t-4 25.5q1 10 10 10q4 0 6 -1l2 -1q32 -20 57 -38.5t42 -32.5q20 -17 35 -31q4 -4 4 -8zM438 190q0 -5 -2 -11.5t-9 -15.5q-25 -32 -49.5 -52t-46.5 -31.5t-41.5 -15.5t-35.5 -4h-15t-15 1 q-19 -27 -45 -49q-22 -19 -52 -34.5t-67 -15.5q-12 0 -26.5 4t-26.5 14t-20 27t-8 42q0 42 21 89t54 87t73.5 66.5t79.5 26.5q7 0 15.5 -1.5t15.5 -5.5t12 -11.5t5 -18.5q0 -6 -3 -8t-5 -2q-6 0 -11 5t-20 5q-25 0 -56.5 -22.5t-59 -56.5t-46 -74.5t-18.5 -77.5 q0 -32 15 -43t32 -11q23 0 43 11t35 25q18 16 33 36q-19 11 -29.5 22t-10.5 37q0 23 11 44.5t28 38t37 27t37 10.5q10 0 17 -6t7 -22q0 -15 -7 -36t-15 -41q-10 -23 -23 -48h18q15 0 32 4.5t37 16.5t42.5 33.5t48.5 54.5q1 0 2 1t3 1q6 0 8 -7q1 -4 1 -8zM254 200q0 8 -3 9 q-2 1 -3 1q-6 0 -15.5 -5t-17.5 -14.5t-14 -23.5t-6 -31q0 -14 6 -21.5t16 -12.5q11 19 19 37q7 16 12.5 32.5t5.5 28.5z" />
<glyph unicode="&#xf3;" horiz-adv-x="381" d="M393 456q0 -8 -4 -25.5t-23 -34.5q-3 -3 -18 -10.5t-34 -15.5t-38.5 -14.5t-32.5 -6.5q-5 0 -5 5q0 2 0.5 2.5t0.5 1.5v2q16 15 37 32q18 14 42.5 33t56.5 39q1 0 3 1t5 1q9 0 10 -10zM438 190q0 -5 -2 -11.5t-9 -15.5q-25 -32 -49.5 -52t-46.5 -31.5t-41.5 -15.5 t-35.5 -4h-15t-15 1q-19 -27 -45 -49q-22 -19 -52 -34.5t-67 -15.5q-12 0 -26.5 4t-26.5 14t-20 27t-8 42q0 42 21 89t54 87t73.5 66.5t79.5 26.5q7 0 15.5 -1.5t15.5 -5.5t12 -11.5t5 -18.5q0 -6 -3 -8t-5 -2q-6 0 -11 5t-20 5q-25 0 -56.5 -22.5t-59 -56.5t-46 -74.5 t-18.5 -77.5q0 -32 15 -43t32 -11q23 0 43 11t35 25q18 16 33 36q-19 11 -29.5 22t-10.5 37q0 23 11 44.5t28 38t37 27t37 10.5q10 0 17 -6t7 -22q0 -15 -7 -36t-15 -41q-10 -23 -23 -48h18q15 0 32 4.5t37 16.5t42.5 33.5t48.5 54.5q1 0 2 1t3 1q6 0 8 -7q1 -4 1 -8z M254 200q0 8 -3 9q-2 1 -3 1q-6 0 -15.5 -5t-17.5 -14.5t-14 -23.5t-6 -31q0 -14 6 -21.5t16 -12.5q11 19 19 37q7 16 12.5 32.5t5.5 28.5z" />
<glyph unicode="&#xf4;" horiz-adv-x="381" d="M343 339q-1 -1 -2 -3q-2 -4 -6 -4q-7 0 -18.5 10t-23 23t-21 27t-13.5 21q-17 -14 -38 -25.5t-40.5 -20t-34 -13t-18.5 -4.5q-11 0 -11 7q0 2 1 3q16 15 37 33q18 15 44 34.5t58 39.5q2 1 5 2q6 2 11 2t10 -2t9 -8q20 -29 30 -51.5t15 -38.5q5 -18 6 -32zM438 190 q0 -5 -2 -11.5t-9 -15.5q-25 -32 -49.5 -52t-46.5 -31.5t-41.5 -15.5t-35.5 -4h-15t-15 1q-19 -27 -45 -49q-22 -19 -52 -34.5t-67 -15.5q-12 0 -26.5 4t-26.5 14t-20 27t-8 42q0 42 21 89t54 87t73.5 66.5t79.5 26.5q7 0 15.5 -1.5t15.5 -5.5t12 -11.5t5 -18.5q0 -6 -3 -8 t-5 -2q-6 0 -11 5t-20 5q-25 0 -56.5 -22.5t-59 -56.5t-46 -74.5t-18.5 -77.5q0 -32 15 -43t32 -11q23 0 43 11t35 25q18 16 33 36q-19 11 -29.5 22t-10.5 37q0 23 11 44.5t28 38t37 27t37 10.5q10 0 17 -6t7 -22q0 -15 -7 -36t-15 -41q-10 -23 -23 -48h18q15 0 32 4.5 t37 16.5t42.5 33.5t48.5 54.5q1 0 2 1t3 1q6 0 8 -7q1 -4 1 -8zM254 200q0 8 -3 9q-2 1 -3 1q-6 0 -15.5 -5t-17.5 -14.5t-14 -23.5t-6 -31q0 -14 6 -21.5t16 -12.5q11 19 19 37q7 16 12.5 32.5t5.5 28.5z" />
<glyph unicode="&#xf5;" horiz-adv-x="381" d="M357 412q0 -15 -5.5 -25t-13.5 -15.5t-16.5 -8t-14.5 -2.5q-15 0 -26 4.5t-21.5 10t-21.5 10t-27 4.5q-19 0 -25.5 -5t-12.5 -5t-6 7q0 14 17.5 24.5t40.5 10.5q14 0 23.5 -3t18 -6.5t17.5 -6.5t21 -3q11 0 18 3t11.5 7t8 7t7.5 3q7 0 7 -11zM438 190q0 -5 -2 -11.5 t-9 -15.5q-25 -32 -49.5 -52t-46.5 -31.5t-41.5 -15.5t-35.5 -4h-15t-15 1q-19 -27 -45 -49q-22 -19 -52 -34.5t-67 -15.5q-12 0 -26.5 4t-26.5 14t-20 27t-8 42q0 42 21 89t54 87t73.5 66.5t79.5 26.5q7 0 15.5 -1.5t15.5 -5.5t12 -11.5t5 -18.5q0 -6 -3 -8t-5 -2 q-6 0 -11 5t-20 5q-25 0 -56.5 -22.5t-59 -56.5t-46 -74.5t-18.5 -77.5q0 -32 15 -43t32 -11q23 0 43 11t35 25q18 16 33 36q-19 11 -29.5 22t-10.5 37q0 23 11 44.5t28 38t37 27t37 10.5q10 0 17 -6t7 -22q0 -15 -7 -36t-15 -41q-10 -23 -23 -48h18q15 0 32 4.5t37 16.5 t42.5 33.5t48.5 54.5q1 0 2 1t3 1q6 0 8 -7q1 -4 1 -8zM254 200q0 8 -3 9q-2 1 -3 1q-6 0 -15.5 -5t-17.5 -14.5t-14 -23.5t-6 -31q0 -14 6 -21.5t16 -12.5q11 19 19 37q7 16 12.5 32.5t5.5 28.5z" />
<glyph unicode="&#xf6;" horiz-adv-x="381" d="M381 439q0 -13 -6 -25t-15 -21t-19 -14t-18 -5q-11 0 -16.5 7t-5.5 17q0 12 5.5 23.5t14.5 20.5t19.5 14.5t19.5 5.5q21 0 21 -23zM234 439q0 -13 -6 -25t-15 -21t-19 -14t-18 -5q-11 0 -16.5 7t-5.5 17q0 12 5.5 23.5t14.5 20.5t19.5 14.5t19.5 5.5q21 0 21 -23z M438 190q0 -5 -2 -11.5t-9 -15.5q-25 -32 -49.5 -52t-46.5 -31.5t-41.5 -15.5t-35.5 -4h-15t-15 1q-19 -27 -45 -49q-22 -19 -52 -34.5t-67 -15.5q-12 0 -26.5 4t-26.5 14t-20 27t-8 42q0 42 21 89t54 87t73.5 66.5t79.5 26.5q7 0 15.5 -1.5t15.5 -5.5t12 -11.5t5 -18.5 q0 -6 -3 -8t-5 -2q-6 0 -11 5t-20 5q-25 0 -56.5 -22.5t-59 -56.5t-46 -74.5t-18.5 -77.5q0 -32 15 -43t32 -11q23 0 43 11t35 25q18 16 33 36q-19 11 -29.5 22t-10.5 37q0 23 11 44.5t28 38t37 27t37 10.5q10 0 17 -6t7 -22q0 -15 -7 -36t-15 -41q-10 -23 -23 -48h18 q15 0 32 4.5t37 16.5t42.5 33.5t48.5 54.5q1 0 2 1t3 1q6 0 8 -7q1 -4 1 -8zM254 200q0 8 -3 9q-2 1 -3 1q-6 0 -15.5 -5t-17.5 -14.5t-14 -23.5t-6 -31q0 -14 6 -21.5t16 -12.5q11 19 19 37q7 16 12.5 32.5t5.5 28.5z" />
<glyph unicode="&#xf7;" horiz-adv-x="329" d="M262 406q0 -13 -6 -24.5t-15 -20.5t-19 -14t-19 -5q-10 0 -15 6.5t-5 16.5q0 12 5.5 23.5t14 21t19 15t19.5 5.5q10 0 15.5 -6.5t5.5 -17.5zM317 299q0 -2 -3 -7q-13 -22 -37.5 -25.5t-59.5 -3.5q-9 0 -27.5 0.5t-38.5 0.5h-49h-51t-24.5 -1t-9 -1.5t-5.5 -0.5q-9 0 -9 7 q0 1 0.5 1.5t0.5 1.5v1q0 1 3 5t9 9t15.5 9t22.5 4h202q20 0 31 0.5t19 2.5q1 1 2 1h4q5 0 5 -4zM149 195q0 -13 -6 -24.5t-15 -20.5t-19 -14t-19 -5q-10 0 -15 6.5t-5 16.5q0 12 5.5 23.5t14 21t19 15t19.5 5.5q10 0 15.5 -6.5t5.5 -17.5z" />
<glyph unicode="&#xf8;" horiz-adv-x="381" d="M438 190q0 -5 -2 -11.5t-9 -15.5q-25 -32 -49.5 -52t-46.5 -31.5t-41.5 -15.5t-35.5 -4h-15t-15 1q-19 -27 -45 -49q-22 -19 -52 -34.5t-67 -15.5q-13 0 -28 4.5t-27 15.5q-14 -14 -27 -27.5t-28 -28.5q-8 -8 -21 -10t-19 -2q-5 1 -6 4t-1 5l84 84q-8 18 -8 42 q0 42 21 89t54 87t73.5 66.5t79.5 26.5q7 0 15.5 -1.5t15.5 -5.5t12 -11.5t5 -18.5q0 -6 -3 -8t-5 -2q-6 0 -11 5t-20 5q-25 0 -55.5 -21.5t-57.5 -54.5t-46 -73t-21 -76q49 48 102.5 101.5l98.5 98.5q53 53 105 103q2 1 11 7t31 6q7 0 7 -4q0 -3 -30.5 -33t-89.5 -88 q8 -2 14 -8t6 -20q0 -15 -7 -36t-15 -41q-10 -23 -23 -48h18q15 0 32 4.5t37 16.5t42.5 33.5t48.5 54.5q1 0 2 1t3 1q6 0 8 -7q1 -4 1 -8zM254 200q0 8 -3 9q-2 1 -3 1q-6 0 -15.5 -5t-17.5 -14.5t-14 -23.5t-6 -31q0 -14 6 -21.5t16 -12.5q11 19 19 37q7 16 12.5 32.5 t5.5 28.5zM194 68q-19 11 -29.5 22t-10.5 37v4q-26 -26 -54 -53.5t-58 -58.5q6 -14 17.5 -18.5t23.5 -4.5q23 0 43 11t35 25q18 16 33 36z" />
<glyph unicode="&#xf9;" horiz-adv-x="391" d="M311 372q0 -5 -6 -5q-17 3 -37 9q-17 5 -39 14t-47 24q-19 17 -23 34.5t-4 25.5q1 10 10 10q4 0 6 -1l2 -1q32 -20 57 -38.5t42 -32.5q20 -17 35 -31q4 -4 4 -8zM433 173q0 -5 -2.5 -12t-9.5 -17q-16 -23 -39 -49.5t-50 -49.5t-55 -38t-54 -15q-29 0 -38 16.5t-9 36.5 q0 10 1.5 18.5t3.5 16.5q2 9 4 16q0 4 -2 4q-1 0 -3 -2q-22 -30 -48 -54q-22 -20 -50.5 -37.5t-58.5 -17.5q-29 0 -39 15.5t-10 35.5q0 33 18 76t40 81q26 45 58 92q4 5 14.5 11.5t38.5 6.5q8 0 8 -7q0 -3 -1 -4t-1 -2q-11 -16 -38 -59.5t-55 -99.5q-7 -14 -13 -28 q-5 -12 -9 -25.5t-4 -24.5q0 -6 3.5 -16.5t19.5 -10.5q9 0 24 7t37.5 27.5t52 59t67.5 101.5q14 23 29.5 46t22.5 32q3 5 10 9q6 4 16 6.5t27 2.5q8 0 8 -7q0 -4 -1 -5t-1 -2q-11 -14 -35.5 -52t-48.5 -84q-10 -21 -18 -41q-7 -17 -13 -36.5t-6 -36.5q0 -8 3 -17.5t17 -9.5 q16 0 36.5 14t44 36t48 50t48.5 56q0 1 1 2t3 1q1 0 4.5 -4t3.5 -12z" />
<glyph unicode="&#xfa;" horiz-adv-x="391" d="M376 471q0 -8 -4 -25.5t-23 -34.5q-3 -3 -18 -10.5t-34 -15.5t-38.5 -14.5t-32.5 -6.5q-5 0 -5 5q0 2 0.5 2.5t0.5 1.5v2q16 15 37 32q18 14 42.5 33t56.5 39q1 0 3 1t5 1q9 0 10 -10zM433 173q0 -5 -2.5 -12t-9.5 -17q-16 -23 -39 -49.5t-50 -49.5t-55 -38t-54 -15 q-29 0 -38 16.5t-9 36.5q0 10 1.5 18.5t3.5 16.5q2 9 4 16q0 4 -2 4q-1 0 -3 -2q-22 -30 -48 -54q-22 -20 -50.5 -37.5t-58.5 -17.5q-29 0 -39 15.5t-10 35.5q0 33 18 76t40 81q26 45 58 92q4 5 14.5 11.5t38.5 6.5q8 0 8 -7q0 -3 -1 -4t-1 -2q-11 -16 -38 -59.5t-55 -99.5 q-7 -14 -13 -28q-5 -12 -9 -25.5t-4 -24.5q0 -6 3.5 -16.5t19.5 -10.5q9 0 24 7t37.5 27.5t52 59t67.5 101.5q14 23 29.5 46t22.5 32q3 5 10 9q6 4 16 6.5t27 2.5q8 0 8 -7q0 -4 -1 -5t-1 -2q-11 -14 -35.5 -52t-48.5 -84q-10 -21 -18 -41q-7 -17 -13 -36.5t-6 -36.5 q0 -8 3 -17.5t17 -9.5q16 0 36.5 14t44 36t48 50t48.5 56q0 1 1 2t3 1q1 0 4.5 -4t3.5 -12z" />
<glyph unicode="&#xfb;" horiz-adv-x="391" d="M356 356q-1 -1 -2 -3q-2 -4 -6 -4q-7 0 -18.5 10t-23 23t-21 27t-13.5 21q-17 -14 -38 -25.5t-40.5 -20t-34 -13t-18.5 -4.5q-11 0 -11 7q0 2 1 3q16 15 37 33q18 15 44 34.5t58 39.5q2 1 5 2q6 2 11 2t10 -2t9 -8q20 -29 30 -51.5t15 -38.5q5 -18 6 -32zM433 173 q0 -5 -2.5 -12t-9.5 -17q-16 -23 -39 -49.5t-50 -49.5t-55 -38t-54 -15q-29 0 -38 16.5t-9 36.5q0 10 1.5 18.5t3.5 16.5q2 9 4 16q0 4 -2 4q-1 0 -3 -2q-22 -30 -48 -54q-22 -20 -50.5 -37.5t-58.5 -17.5q-29 0 -39 15.5t-10 35.5q0 33 18 76t40 81q26 45 58 92 q4 5 14.5 11.5t38.5 6.5q8 0 8 -7q0 -3 -1 -4t-1 -2q-11 -16 -38 -59.5t-55 -99.5q-7 -14 -13 -28q-5 -12 -9 -25.5t-4 -24.5q0 -6 3.5 -16.5t19.5 -10.5q9 0 24 7t37.5 27.5t52 59t67.5 101.5q14 23 29.5 46t22.5 32q3 5 10 9q6 4 16 6.5t27 2.5q8 0 8 -7q0 -4 -1 -5t-1 -2 q-11 -14 -35.5 -52t-48.5 -84q-10 -21 -18 -41q-7 -17 -13 -36.5t-6 -36.5q0 -8 3 -17.5t17 -9.5q16 0 36.5 14t44 36t48 50t48.5 56q0 1 1 2t3 1q1 0 4.5 -4t3.5 -12z" />
<glyph unicode="&#xfc;" horiz-adv-x="391" d="M374 429q0 -13 -6 -25t-15 -21t-19 -14t-18 -5q-11 0 -16.5 7t-5.5 17q0 12 5.5 23.5t14.5 20.5t19.5 14.5t19.5 5.5q21 0 21 -23zM227 429q0 -13 -6 -25t-15 -21t-19 -14t-18 -5q-11 0 -16.5 7t-5.5 17q0 12 5.5 23.5t14.5 20.5t19.5 14.5t19.5 5.5q21 0 21 -23z M433 173q0 -5 -2.5 -12t-9.5 -17q-16 -23 -39 -49.5t-50 -49.5t-55 -38t-54 -15q-29 0 -38 16.5t-9 36.5q0 10 1.5 18.5t3.5 16.5q2 9 4 16q0 4 -2 4q-1 0 -3 -2q-22 -30 -48 -54q-22 -20 -50.5 -37.5t-58.5 -17.5q-29 0 -39 15.5t-10 35.5q0 33 18 76t40 81q26 45 58 92 q4 5 14.5 11.5t38.5 6.5q8 0 8 -7q0 -3 -1 -4t-1 -2q-11 -16 -38 -59.5t-55 -99.5q-7 -14 -13 -28q-5 -12 -9 -25.5t-4 -24.5q0 -6 3.5 -16.5t19.5 -10.5q9 0 24 7t37.5 27.5t52 59t67.5 101.5q14 23 29.5 46t22.5 32q3 5 10 9q6 4 16 6.5t27 2.5q8 0 8 -7q0 -4 -1 -5t-1 -2 q-11 -14 -35.5 -52t-48.5 -84q-10 -21 -18 -41q-7 -17 -13 -36.5t-6 -36.5q0 -8 3 -17.5t17 -9.5q16 0 36.5 14t44 36t48 50t48.5 56q0 1 1 2t3 1q1 0 4.5 -4t3.5 -12z" />
<glyph unicode="&#xfd;" horiz-adv-x="371" d="M375 457q0 -8 -4 -25.5t-23 -34.5q-3 -3 -18 -10.5t-34 -15.5t-38.5 -14.5t-32.5 -6.5q-5 0 -5 5q0 2 0.5 2.5t0.5 1.5v2q16 15 37 32q18 14 42.5 33t56.5 39q1 0 3 1t5 1q9 0 10 -10zM391 295q-1 -25 -20.5 -56t-48.5 -62t-64.5 -59.5t-67.5 -50.5l-7 -16 q-6 -13 -12 -28q-5 -13 -12.5 -29.5t-15.5 -34.5h10q23 -1 41 -8q15 -6 27.5 -18t12.5 -35q0 -6 -1.5 -15t-4.5 -17t-8.5 -14t-13.5 -6q-4 0 -6 4q-1 2 -1 4l1 12q0 5 -1 15t-7.5 20.5t-19.5 18.5t-36 8h-6q-37 -93 -82 -166q-19 -31 -42 -60.5t-48.5 -53t-53 -37.5 t-57.5 -14q-19 0 -32.5 10.5t-13.5 36.5q0 37 21.5 80.5t60 86t91 79t113.5 59.5q9 20 18.5 39.5t17.5 38.5q-20 -9 -38 -17q-16 -7 -33.5 -12.5t-31.5 -5.5q-26 0 -34.5 15.5t-8.5 34.5q0 33 15 69.5t35 71t40.5 63t31.5 44.5q3 5 8 9q11 9 32 9q13 0 15.5 -3.5t2.5 -5.5 v-4q0 -1 -1 -1q-3 -4 -13.5 -18.5t-24 -35t-28.5 -45t-27.5 -49t-21 -47.5t-8.5 -41q0 -9 2 -13q1 -2 5 -5q7 -5 18 -5t25 5t28 12q16 8 32 17q23 56 49 103t53.5 81.5t55.5 54t56 19.5q13 0 20 -5t10 -11q4 -7 4 -16zM349 283q0 9 -8 9q-9 0 -19 -7.5t-21 -20t-21.5 -28 t-20.5 -32.5q-23 -39 -46 -89q13 8 35.5 29t45 46t39 50.5t16.5 42.5zM71 -87q-56 -23 -98 -60t-70 -75t-41.5 -72t-13.5 -51t8 -21.5t16 -4.5q15 0 31 12t33 32t33.5 45.5t31.5 52.5q35 62 70 142z" />
<glyph unicode="&#xfe;" horiz-adv-x="394" d="M445 184q0 -5 -3 -13.5t-11 -19.5q-71 -90 -126 -131t-105 -41q-16 0 -25 5.5t-13 13t-4.5 14.5t-0.5 10q0 18 9.5 45t20.5 52q13 29 30 60q23 40 30 59t7 22q0 11 -5 15t-11 4q-15 0 -35.5 -13.5t-40.5 -32t-37.5 -37t-26.5 -28.5q-23 -26 -53 -66q-26 -35 -61 -89 t-79 -131q-14 -23 -23 -38.5t-15 -25.5q-7 -11 -12 -18q-14 -24 -31 -31t-27 -7q-9 0 -11.5 3t-2.5 6v4q0 1 1 1q9 12 22.5 34t30 49.5t35 58t36.5 60.5q42 70 90 152q16 26 36.5 60t42.5 71.5t45 77t45 76.5q51 87 105 179q6 10 18 14.5t23 4.5q16 0 16 -7q0 -3 -1 -4 t-1 -2q-6 -9 -19 -30t-30 -49.5t-36.5 -61.5t-39.5 -66q-47 -77 -101 -170q-3 -4 -3 -6t2 -2q3 0 4 1t2 1q18 17 37.5 35t40 33t41.5 24.5t43 9.5q14 0 27.5 -9t13.5 -32q0 -9 -7.5 -33.5t-27.5 -62.5q-16 -30 -29 -57q-11 -23 -20.5 -47t-9.5 -38q0 -6 3 -12.5t17 -6.5 q7 0 19.5 3.5t33 18.5t50.5 45t72 83q8 9 15 17.5t10 9.5l2 1q3 0 4 -3q1 -1 2 -3q2 -4 2 -9z" />
<glyph unicode="&#xff;" horiz-adv-x="387" d="M407 430q0 -13 -6 -25t-15 -21t-19 -14t-18 -5q-11 0 -16.5 7t-5.5 17q0 12 5.5 23.5t14.5 20.5t19.5 14.5t19.5 5.5q21 0 21 -23zM260 430q0 -13 -6 -25t-15 -21t-19 -14t-18 -5q-11 0 -16.5 7t-5.5 17q0 12 5.5 23.5t14.5 20.5t19.5 14.5t19.5 5.5q21 0 21 -23z M391 295q-1 -25 -20.5 -56t-48.5 -62t-64.5 -59.5t-67.5 -50.5l-7 -16q-6 -13 -12 -28q-5 -13 -12.5 -29.5t-15.5 -34.5h10q23 -1 41 -8q15 -6 27.5 -18t12.5 -35q0 -6 -1.5 -15t-4.5 -17t-8.5 -14t-13.5 -6q-4 0 -6 4q-1 2 -1 4l1 12q0 5 -1 15t-7.5 20.5t-19.5 18.5t-36 8 h-6q-37 -93 -82 -166q-19 -31 -42 -60.5t-48.5 -53t-53 -37.5t-57.5 -14q-19 0 -32.5 10.5t-13.5 36.5q0 37 21.5 80.5t60 86t91 79t113.5 59.5q9 20 18.5 39.5t17.5 38.5q-20 -9 -38 -17q-16 -7 -33.5 -12.5t-31.5 -5.5q-26 0 -34.5 15.5t-8.5 34.5q0 33 15 69.5t35 71 t40.5 63t31.5 44.5q3 5 8 9q11 9 32 9q13 0 15.5 -3.5t2.5 -5.5v-4q0 -1 -1 -1q-3 -4 -13.5 -18.5t-24 -35t-28.5 -45t-27.5 -49t-21 -47.5t-8.5 -41q0 -9 2 -13q1 -2 5 -5q7 -5 18 -5t25 5t28 12q16 8 32 17q23 56 49 103t53.5 81.5t55.5 54t56 19.5q13 0 20 -5t10 -11 q4 -7 4 -16zM349 283q0 9 -8 9q-9 0 -19 -7.5t-21 -20t-21.5 -28t-20.5 -32.5q-23 -39 -46 -89q13 8 35.5 29t45 46t39 50.5t16.5 42.5zM71 -87q-56 -23 -98 -60t-70 -75t-41.5 -72t-13.5 -51t8 -21.5t16 -4.5q15 0 31 12t33 32t33.5 45.5t31.5 52.5q35 62 70 142z" />
<glyph unicode="&#x152;" horiz-adv-x="900" d="M1016 580q0 -12 -16 -24.5t-41 -22t-55.5 -16t-59.5 -6.5q-49 0 -86.5 8t-71 18t-66.5 18t-72 8h-8q8 -14 13 -36t5 -46v-9.5t-1 -9.5q8 7 21.5 17t29.5 19t34 16t35 7q6 0 6 -3q0 -1 -3 -4l-14 -11q-14 -10 -32 -34q-16 -20 -39 -56t-54 -96q8 -1 19.5 -2.5t40.5 -1.5 t62 5t52 20q1 0 2 1t5 1q5 0 5 -5q0 -4 -4.5 -14.5t-16 -22t-31.5 -20t-50 -8.5q-35 0 -61.5 6t-40.5 6q-27 -78 -71 -147t-100 -121q19 -5 45 -13t55.5 -15.5t60 -13t57.5 -5.5q50 0 89 19.5t66.5 47.5t42 59.5t14.5 55.5q0 19 -9 31t-29 12q-15 0 -36.5 -7.5t-43 -24.5 t-41.5 -46t-34 -73q0 -2 -1 -5q-2 -5 -8 -5h-1q-2 1 -5 5q-2 3 -3.5 8.5t-1.5 16.5q0 25 13 55t36 56.5t55.5 44.5t71.5 18t57 -20t18 -52q0 -35 -20 -77.5t-55 -79t-83 -61.5t-105 -25q-28 0 -60 7.5t-63.5 18t-60.5 22t-52 19.5q-46 -36 -96 -57t-101 -21q-37 0 -62.5 12 t-41 32t-22.5 46.5t-7 56.5q0 45 10 82.5t21 66.5q13 33 30 61l-1 16q-3 56 23.5 118t75 114t114 86t139.5 34q25 0 56 -7.5t56 -30.5q27 3 57 3q47 0 82 -6t68.5 -13t71.5 -13t89 -6q35 0 65.5 5t52.5 19q1 1 3 2t5 1t4 -1l2 -2q1 -1 1 -5zM505 472q0 58 -25.5 91.5 t-94.5 33.5q-34 0 -68.5 -12t-66 -32.5t-58.5 -47.5t-47.5 -55.5t-32 -57.5t-11.5 -54q32 38 61.5 59.5t52.5 31.5t38 12t17 2q4 0 7.5 -1t3.5 -5q0 -7 -8 -11.5t-19 -10.5q-24 -13 -50 -35q-22 -19 -48 -48t-50 -74q4 -10 14 -21.5t30 -11.5q8 0 12 1q1 1 3 1h5q7 0 7 -6 q0 -7 -13.5 -20.5t-39.5 -13.5q-28 0 -43 17q-9 -22 -17 -48q-7 -22 -12.5 -49t-5.5 -56q0 -22 5 -41t16.5 -33.5t30 -22.5t45.5 -8q45 0 90 26t85 69.5t74.5 98.5t59.5 113.5t39 115.5t14 103z" />
<glyph unicode="&#x153;" horiz-adv-x="557" d="M599 173q0 -5 -4.5 -15.5t-11.5 -20.5q-16 -24 -45 -55t-64.5 -59t-75 -47.5t-77.5 -19.5q-12 0 -28 2.5t-30 11.5t-24 27t-10 50v3q-32 -40 -74.5 -69t-94.5 -29q-12 0 -26.5 4t-26.5 14t-20 27t-8 42q0 42 21 89t54 87t73.5 66.5t79.5 26.5q7 0 15.5 -1.5t15.5 -5.5 t12 -11.5t5 -18.5q0 -6 -3 -8t-5 -2q-6 0 -11 5t-20 5q-25 0 -56.5 -22.5t-59 -56.5t-46 -74.5t-18.5 -77.5q0 -32 15 -43t32 -11q19 0 39.5 10t40 26t37 36.5t31.5 41.5q-30 9 -43 25.5t-13 35.5q0 28 25.5 52t66.5 24q22 0 25 -29q35 44 78.5 71.5t85.5 27.5 q21 0 35.5 -10t14.5 -37q0 -24 -15.5 -52.5t-43.5 -53.5t-65.5 -42.5t-81.5 -19.5q-1 1 -2 0l-2 -4q-8 -23 -8 -43q0 -16 4.5 -26.5t12 -16t16.5 -7.5t17 -2q18 0 42 8t55 29t68.5 58t81.5 95q1 2 2 3q2 2 4 2t5 -3.5t3 -11.5zM465 262q0 6 -4.5 10.5t-12.5 4.5 q-19 0 -41.5 -18t-43 -42.5t-35.5 -50.5t-20 -42q0 -2 1 -3l1 -1q27 3 54.5 18t50 35t36.5 44t14 45zM265 183q0 17 -15 17q-16 0 -25 -9t-9 -21q0 -11 7 -21t23 -18l8 18t9 18q1 5 1.5 9t0.5 7z" />
<glyph unicode="&#x178;" horiz-adv-x="585" d="M635 689q0 -13 -6 -25t-15 -21t-19 -14t-18 -5q-11 0 -16.5 7t-5.5 17q0 12 5.5 23.5t14.5 20.5t19.5 14.5t19.5 5.5q21 0 21 -23zM488 689q0 -13 -6 -25t-15 -21t-19 -14t-18 -5q-11 0 -16.5 7t-5.5 17q0 12 5.5 23.5t14.5 20.5t19.5 14.5t19.5 5.5q21 0 21 -23z M716 570q0 -29 -24 -70t-59 -82.5t-73.5 -78.5t-67.5 -58q-6 -12 -10.5 -23t-10.5 -26t-15.5 -35.5t-24.5 -52.5q23 -2 41 -9q16 -6 29 -17t12 -31q0 -9 -2 -11.5t-4 -2.5q-6 0 -11.5 5t-15 11t-25.5 11.5t-43 6.5q-45 -87 -100 -156q-24 -29 -52 -57t-60.5 -50t-68 -35.5 t-73.5 -13.5q-34 0 -60.5 15.5t-26.5 54.5q0 30 17.5 62.5t47 63.5t69.5 59.5t84.5 49.5t92 33.5t92.5 12.5q14 26 21 43t17 41q-25 -14 -53 -25q-24 -10 -54 -17.5t-60 -7.5q-38 0 -55 16t-17 41q0 21 11.5 47t28.5 54.5t37 58.5t37 58.5t28.5 54t11.5 45.5q0 16 -9.5 31 t-35.5 15q-63 0 -117.5 -23.5t-94.5 -55.5t-63 -65t-23 -52q0 -15 12.5 -21t29.5 -6q11 0 26 2.5t34 9.5t41 20.5t46 35.5l2 2q2 2 5 2q8 0 8 -9q0 -13 -16 -32.5t-42 -37.5t-58.5 -31t-64.5 -13q-36 0 -55 12.5t-19 41.5q0 22 13.5 49.5t37.5 55.5t57 54.5t72.5 47t83.5 33 t90 12.5q49 0 71.5 -22.5t22.5 -58.5q0 -39 -22 -80t-49 -80.5t-49 -76.5t-22 -69q0 -9 5.5 -18.5t25.5 -9.5q32 0 61 9t52 20q26 13 50 29q7 15 19 44.5t29 66t38.5 75t47 70t55 51.5t61.5 20q17 0 25 -9.5t8 -23.5zM674 548q0 4 -2 7.5t-8 3.5q-14 0 -29.5 -13.5 t-31 -34.5t-30 -46t-26 -48.5t-19.5 -42t-10 -26.5v-1q0 -2 2 -2q3 0 16 12t30 30.5t36 42t35 46t26.5 42t10.5 30.5zM355 110q-52 0 -110 -20.5t-106.5 -53.5t-80 -75.5t-31.5 -87.5q0 -16 3.5 -25t9 -13.5t13.5 -5.5t17 -1q27 0 53 12t51 32t48.5 45t43.5 52q48 62 89 141 z" />
<glyph unicode="&#x2c6;" horiz-adv-x="500" d="M348 380q-1 -1 -2 -3q-2 -4 -6 -4q-7 0 -18.5 10t-23 23t-21 27t-13.5 21q-17 -14 -38 -25.5t-40.5 -20t-34 -13t-18.5 -4.5q-11 0 -11 7q0 2 1 3q16 15 37 33q18 15 44 34.5t58 39.5q2 1 5 2q6 2 11 2t10 -2t9 -8q20 -29 30 -51.5t15 -38.5q5 -18 6 -32z" />
<glyph unicode="&#x2dc;" horiz-adv-x="395" d="M356 420q0 -15 -5.5 -25t-13.5 -15.5t-16.5 -8t-14.5 -2.5q-15 0 -26 4.5t-21.5 10t-21.5 10t-27 4.5q-19 0 -25.5 -5t-12.5 -5t-6 7q0 14 17.5 24.5t40.5 10.5q14 0 23.5 -3t18 -6.5t17.5 -6.5t21 -3q11 0 18 3t11.5 7t8 7t7.5 3q7 0 7 -11z" />
<glyph unicode="&#x2000;" horiz-adv-x="431" />
<glyph unicode="&#x2001;" horiz-adv-x="862" />
<glyph unicode="&#x2002;" horiz-adv-x="431" />
<glyph unicode="&#x2003;" horiz-adv-x="862" />
<glyph unicode="&#x2004;" horiz-adv-x="287" />
<glyph unicode="&#x2005;" horiz-adv-x="215" />
<glyph unicode="&#x2006;" horiz-adv-x="143" />
<glyph unicode="&#x2007;" horiz-adv-x="143" />
<glyph unicode="&#x2008;" horiz-adv-x="107" />
<glyph unicode="&#x2009;" horiz-adv-x="172" />
<glyph unicode="&#x200a;" horiz-adv-x="47" />
<glyph unicode="&#x2010;" horiz-adv-x="358" d="M311 179q0 -2 -3 -7q-13 -22 -37.5 -27t-59.5 -5q-9 0 -17 0.5t-14 0.5h-14q-34 1 -51 0.5t-24.5 -1t-9 -1.5t-5.5 -1q-9 0 -9 7q0 1 0.5 1.5t0.5 1.5v1q0 1 3 5.5t9 10t15.5 10t22.5 4.5h132q20 0 31 0.5t19 2.5q1 1 2 1h4q5 0 5 -4z" />
<glyph unicode="&#x2011;" horiz-adv-x="358" d="M311 179q0 -2 -3 -7q-13 -22 -37.5 -27t-59.5 -5q-9 0 -17 0.5t-14 0.5h-14q-34 1 -51 0.5t-24.5 -1t-9 -1.5t-5.5 -1q-9 0 -9 7q0 1 0.5 1.5t0.5 1.5v1q0 1 3 5.5t9 10t15.5 10t22.5 4.5h132q20 0 31 0.5t19 2.5q1 1 2 1h4q5 0 5 -4z" />
<glyph unicode="&#x2012;" horiz-adv-x="358" d="M311 179q0 -2 -3 -7q-13 -22 -37.5 -27t-59.5 -5q-9 0 -17 0.5t-14 0.5h-14q-34 1 -51 0.5t-24.5 -1t-9 -1.5t-5.5 -1q-9 0 -9 7q0 1 0.5 1.5t0.5 1.5v1q0 1 3 5.5t9 10t15.5 10t22.5 4.5h132q20 0 31 0.5t19 2.5q1 1 2 1h4q5 0 5 -4z" />
<glyph unicode="&#x2013;" horiz-adv-x="554" d="M438 186q0 -1 -2 -7q-6 -22 -18.5 -27t-29.5 -5l-240 1q-17 0 -25.5 -0.5t-12.5 -1t-4.5 -1t-2.5 -0.5q-5 0 -5 7q0 1 0.5 1.5t0.5 1.5v1q0 1 1.5 5.5t4.5 10t7.5 10t11.5 4.5h283q11 0 16 0.5t9 2.5q0 1 1 1h2q3 0 3 -4z" />
<glyph unicode="&#x2014;" horiz-adv-x="892" d="M776 186q0 -2 -3 -7q-13 -22 -37.5 -27t-59.5 -5l-479 1q-34 0 -51 -0.5t-24.5 -1t-9 -1t-5.5 -0.5q-9 0 -9 7q0 1 0.5 1.5t0.5 1.5v1q0 1 3 5.5t9 10t15.5 10t22.5 4.5h566q20 0 31 0.5t19 2.5q1 1 2 1h4q5 0 5 -4z" />
<glyph unicode="&#x2018;" horiz-adv-x="181" d="M210 592q0 -3 -1 -4l-2 -2q-26 -33 -45 -63.5t-31.5 -54t-20.5 -38t-12 -14.5q-6 0 -6 7q2 18 6 39q4 18 12 42.5t22 52.5q7 13 17.5 21.5t21 13t19 6.5t10.5 2q6 0 8 -3t2 -5z" />
<glyph unicode="&#x2019;" horiz-adv-x="268" d="M245 553q0 -8 -2 -16t-8 -18q-17 -26 -34.5 -45.5t-31.5 -33.5q-17 -16 -33 -26q-4 -2 -8 -2q-5 0 -5 5q0 1 0.5 1.5t0.5 1.5v2q23 34 41 66q16 27 31.5 56.5t21.5 48.5q1 1 2 3q2 3 5 3q-1 0 1.5 0t7 -4t8 -13.5t3.5 -28.5z" />
<glyph unicode="&#x201a;" horiz-adv-x="268" d="M101 35q0 -8 -2 -16t-8 -18q-17 -26 -34.5 -45.5t-31.5 -33.5q-17 -16 -33 -26q-4 -2 -8 -2q-5 0 -5 5v3q0 1 1 2q23 34 41 66q16 27 31.5 56.5t21.5 48.5q1 1 2 3q2 3 5 3q-1 0 1.5 0t7 -4t8 -13.5t3.5 -28.5z" />
<glyph unicode="&#x201c;" horiz-adv-x="287" d="M316 592q0 -3 -1 -4l-2 -2q-26 -33 -45 -63.5t-31.5 -54t-20.5 -38t-12 -14.5q-6 0 -6 7q2 18 6 39q4 18 12 42.5t22 52.5q7 13 17.5 21.5t21 13t19 6.5t10.5 2q6 0 8 -3t2 -5zM210 592q0 -3 -1 -4l-2 -2q-26 -33 -45 -63.5t-31.5 -54t-20.5 -38t-12 -14.5q-6 0 -6 7 q2 18 6 39q4 18 12 42.5t22 52.5q7 13 17.5 21.5t21 13t19 6.5t10.5 2q6 0 8 -3t2 -5z" />
<glyph unicode="&#x201d;" horiz-adv-x="371" d="M348 553q0 -8 -2 -16t-8 -18q-17 -26 -34.5 -45.5t-31.5 -33.5q-17 -16 -33 -26q-4 -2 -8 -2q-5 0 -5 5q0 1 0.5 1.5t0.5 1.5v2q23 34 41 66q16 27 31.5 56.5t21.5 48.5q1 1 2 3q2 3 5 3q-1 0 1.5 0t7 -4t8 -13.5t3.5 -28.5zM245 553q0 -8 -2 -16t-8 -18 q-17 -26 -34.5 -45.5t-31.5 -33.5q-17 -16 -33 -26q-4 -2 -8 -2q-5 0 -5 5q0 1 0.5 1.5t0.5 1.5v2q23 34 41 66q16 27 31.5 56.5t21.5 48.5q1 1 2 3q2 3 5 3q-1 0 1.5 0t7 -4t8 -13.5t3.5 -28.5z" />
<glyph unicode="&#x201e;" horiz-adv-x="371" d="M227 35q0 -8 -2 -16t-8 -18q-17 -26 -34.5 -45.5t-31.5 -33.5q-17 -16 -33 -26q-4 -2 -8 -2q-5 0 -5 5q0 1 0.5 1.5t0.5 1.5v2q23 34 41 66q16 27 31.5 56.5t21.5 48.5q1 1 2 3q2 3 5 3q-1 0 1.5 0t7 -4t8 -13.5t3.5 -28.5zM124 35q0 -8 -2 -16t-8 -18 q-17 -26 -34.5 -45.5t-31.5 -33.5q-17 -16 -33 -26q-4 -2 -8 -2q-5 0 -5 5q0 1 0.5 1.5t0.5 1.5v2q23 34 41 66q16 27 31.5 56.5t21.5 48.5q1 1 2 3q2 3 5 3q-1 0 1.5 0t7 -4t8 -13.5t3.5 -28.5z" />
<glyph unicode="&#x2022;" horiz-adv-x="325" d="M261 172q0 -26 -11.5 -48.5t-29 -39.5t-38 -27t-37.5 -10q-19 0 -29.5 12.5t-10.5 32.5q0 24 11 47t28 40.5t37.5 28.5t39.5 11t29.5 -12.5t10.5 -34.5z" />
<glyph unicode="&#x2026;" horiz-adv-x="552" d="M398 42q0 -13 -6 -24.5t-15 -20.5t-19 -14t-19 -5q-10 0 -15 6.5t-5 16.5q0 12 5.5 23.5t14 21t19 15t19.5 5.5q10 0 15.5 -6.5t5.5 -17.5zM274 46q0 -13 -6 -24.5t-15 -20.5t-19 -14t-19 -5q-10 0 -15 6.5t-5 16.5q0 12 5.5 23.5t14 21t19 15t19.5 5.5q10 0 15.5 -6.5 t5.5 -17.5zM142 39q0 -13 -6 -24.5t-15 -20.5t-19 -14t-19 -5q-10 0 -15 6.5t-5 16.5q0 12 5.5 23.5t14 21t19 15t19.5 5.5q10 0 15.5 -6.5t5.5 -17.5z" />
<glyph unicode="&#x202f;" horiz-adv-x="172" />
<glyph unicode="&#x2039;" horiz-adv-x="399" d="M348 319q0 -4 -7 -7q-36 -21 -70 -43q-29 -19 -61 -40.5t-55 -41.5q-1 -1 -2 -3q-2 -4 -2 -8q0 -3 1 -5l36 -64q16 -27 36 -56.5t41 -50.5q0 -1 1 -2t1 -5q0 -3 -8 -5q-4 -1 -9 -1q-14 0 -30 12t-31.5 30t-30 40t-26 41.5t-19 34.5l-9.5 19q-4 7 -5 12t-1 9q0 5 1 6t1 2 q1 5 10 13t22.5 18t30.5 21.5t35 22.5q41 26 93 57q2 1 6 2q8 2 18 2q2 0 7 -0.5t11 -1.5t10.5 -3t4.5 -5z" />
<glyph unicode="&#x203a;" horiz-adv-x="322" d="M267 139q0 -5 -1 -6t-1 -2q-1 -4 -10 -12t-22.5 -18.5t-30.5 -22t-35 -22.5q-41 -26 -93 -57q-2 -1 -6 -2q-8 -2 -18 -2q-1 0 -6.5 0.5t-11.5 1.5t-10.5 3t-4.5 5q0 4 7 7q37 21 71 43q29 19 60.5 41t54.5 41q1 1 2 3q2 4 2 8q0 3 -1 5q-17 33 -35 65q-16 27 -36.5 56 t-41.5 50q0 1 -1 2t-1 5q0 2 3 3l6 2q4 1 8 1q14 0 30 -12t31.5 -30t30 -40t26 -41.5t19 -34.5l9.5 -19q4 -7 5 -12t1 -9z" />
<glyph unicode="&#x205f;" horiz-adv-x="215" />
<glyph unicode="&#x20ac;" horiz-adv-x="707" d="M804 568q0 -13 -15.5 -25t-38 -21t-48 -14t-45.5 -5q-48 0 -85.5 7.5t-71.5 16.5t-66.5 16.5t-68.5 7.5q-45 0 -86 -12t-72 -31.5t-49.5 -44t-18.5 -48.5q0 -16 8.5 -23.5t39.5 -8.5q11 0 28.5 5t38 14t40 22t32.5 28q1 2 3 4q3 3 7 3q2 0 3 -1q0 -1 1 -2t1 -6 q0 -9 -11.5 -27t-33 -36t-51.5 -32t-68 -14q-24 0 -39.5 4t-24.5 11.5t-12 17t-3 19.5q0 21 16 53.5t50.5 63.5t89.5 53t133 22q44 0 75.5 -5.5t62 -12.5t66 -12.5t87.5 -5.5q32 0 62 5t50 18q1 1 3 2t5 1t4 -1l1 -1q1 -1 1 -5zM647 157q0 -33 -18 -72.5t-50.5 -74.5 t-76.5 -58.5t-95 -23.5q-26 0 -52 5.5t-55.5 14.5t-64 21.5t-76.5 27.5q-24 -16 -43.5 -28t-39.5 -20.5t-44 -13t-56 -4.5q-38 0 -56.5 11t-18.5 27q0 12 10 24.5t29.5 23t47.5 17t65 6.5q20 0 44.5 -2t53.5 -8q25 24 47.5 52.5t40.5 56.5t32 51.5t21 38.5h-17h-20.5 t-15.5 -1q-7 -1 -12 -1q-6 0 -6 4q0 2 1 3l1 1q5 7 11 12q5 5 12.5 8.5t17.5 3.5h44q3 7 7.5 16.5t11.5 20.5h-24h-33q-7 0 -12 -1q-6 0 -6 4q0 2 1 3l1 1q4 6 10 11q5 5 13 8.5t18 3.5q5 1 12 1h37q38 62 68 96.5t51.5 50.5t34 19t15.5 3q5 0 6 -4q0 -2 -2 -6t-11 -11 q-11 -9 -27 -28q-14 -17 -33 -45.5t-45 -76.5h42h44t35 1q2 0 5 -0.5t3 -4.5q0 -1 -0.5 -5t-5 -8t-14 -7.5t-26.5 -5.5q-5 -1 -16.5 -1h-34.5h-48l-18 -36h44h45.5t36.5 1q6 0 6 -4q0 -2 -1 -6t-5.5 -8.5t-13.5 -8.5t-25 -5q-6 0 -16 -0.5t-23 -0.5h-35t-30 1 q-9 -15 -18 -31t-23 -32q-14 -23 -32 -47q-16 -20 -38 -45t-50 -50l16 -4t16 -5q36 -12 70 -21q29 -8 61.5 -14t56.5 -6q50 0 88 17.5t64.5 43.5t40 55.5t13.5 52.5q0 19 -9 30.5t-28 11.5q-16 0 -36.5 -8.5t-41 -26.5t-38.5 -44.5t-30 -62.5q0 -2 -1 -4q-2 -5 -7 -5h-1 q-2 0 -4 4q-2 3 -3.5 8.5t-1.5 14.5q0 19 10.5 47t31.5 54.5t52 45t72 18.5q35 0 51 -19t16 -48zM122 6q-35 7 -65 7q-51 0 -76.5 -13t-25.5 -25q0 -16 35 -16q29 0 53 7t42 16q21 11 37 24z" />
<glyph unicode="&#x2122;" horiz-adv-x="1433" d="M1549 664q0 -6 -7 -17q-59 -81 -107 -171q-21 -38 -41 -82t-37 -91.5t-29.5 -97.5t-17.5 -101q-2 -11 -4 -25q-2 -12 -3 -28t-1 -34q0 -38 8.5 -77.5t34.5 -65.5q3 -2 3 -7q0 -6 -5 -6q-22 0 -39 15t-29 39.5t-18.5 57t-6.5 66.5q0 35 8 76.5t21 85.5t29.5 88t33.5 85 q40 96 91 194q2 3 2 7q0 3 -3 3t-5 -1t-3 -2q-33 -19 -61.5 -41t-54.5 -45q-34 -29 -62.5 -57.5t-52.5 -54.5v-21q0 -80 -19 -143t-46.5 -106.5t-59 -66.5t-57.5 -23q-4 0 -10.5 1t-12.5 6t-10 15.5t-4 28.5q0 29 10 59t30 64.5t51.5 76.5t74.5 96q0 42 -3 77t-8 61 q-5 31 -12 57q-3 7 -5 7q-1 0 -3 -2q-1 -1 -1 -3q-39 -77 -81 -153t-86.5 -144.5t-91.5 -127t-95.5 -101.5t-99 -67t-101.5 -24q-48 0 -73.5 17.5t-37.5 40.5t-14 43.5t-2 26.5q0 59 23.5 108t61 84t83.5 54.5t91 19.5q42 0 67.5 -15t25.5 -35q0 -2 -0.5 -5.5t-5.5 -3.5 q-6 0 -11.5 3t-13 6.5t-19.5 6.5t-31 3q-31 0 -70.5 -17t-74.5 -48t-59 -74.5t-24 -96.5q0 -38 20 -62.5t68 -24.5q27 0 60 10.5t71.5 38.5t84.5 77t99.5 126t116.5 186t135 257q0 2 2 4q4 4 7 4q1 0 3 -1q3 -2 7 -8q10 -34 20 -74q8 -35 16 -79.5t12 -95.5q26 26 55 53.5 t62 56.5q42 36 82 65q17 12 36 24.5t38 23t37 17.5t33 10q1 1 2 1h4q3 0 6 -1t3 -6zM1138 312q-28 -35 -50 -69.5t-37 -64.5t-22.5 -53.5t-7.5 -38.5q0 -14 5 -17t10 -3q19 0 37.5 27.5t32.5 66t23 80.5t9 72zM816 519q0 -5 -3 -13.5t-14 -20.5q-19 -22 -42 -34.5 t-44.5 -18.5t-40 -7t-29.5 -1q-34 0 -61 4t-52.5 13.5t-51 27t-57.5 44.5q-42 -31 -93.5 -79t-98.5 -115q13 -3 26.5 -5t26.5 -2q15 0 18 2t10 2q6 0 6 -6q0 -8 -8 -13.5t-19 -9t-22.5 -5t-18.5 -1.5q-21 0 -41 5q-23 -35 -41 -73q-16 -32 -28.5 -72t-12.5 -79 q0 -20 4.5 -38.5t14.5 -33t26.5 -24t41.5 -10.5q-1 6 -1 12v12q0 78 27 139t65 102.5t79 63.5t69 22q20 0 32 -7t19 -18.5t9.5 -25t2.5 -26.5q0 -41 -13 -78t-34.5 -69t-49 -58.5t-55.5 -46.5t-54 -33t-46 -17q5 -32 19 -49t26 -25l3 -3q3 -3 3 -6q-2 -6 -15 -6 q-24 0 -39.5 12.5t-24.5 27.5q-11 18 -16 41h-13q-48 0 -76.5 18t-43.5 42t-19 49t-4 38q-1 44 12 85t30 74q19 39 44 73q-8 2 -14.5 2h-13.5q-29 0 -50.5 -5.5t-35.5 -13.5q-17 -9 -29 -20q-5 -5 -10 -5q-6 0 -6 7q0 6 1 8l2 4q12 19 31 33q17 12 42.5 22t60.5 10 q11 0 23 -1t25 -4q55 74 114 122t107 77q-28 27 -56 41.5t-52 22t-41 9t-23 1.5q-55 0 -98.5 -15.5t-72.5 -38t-44.5 -47t-15.5 -42.5q0 -13 6 -21.5t15 -12.5t20 -5.5t21 -1.5q30 0 59 11.5t52 25.5q27 16 52 36l4 4q3 3 8 3t5 -7q0 -9 -14.5 -28t-41.5 -37.5t-65.5 -33 t-86.5 -14.5q-45 0 -66 19.5t-21 45.5q0 21 18.5 53.5t56.5 63.5t96 53.5t137 22.5q9 0 28 -2t45 -10.5t57.5 -24.5t65.5 -45l39 18q8 4 15 5q7 3 12 3.5t8 0.5q6 0 8 -2l2 -2q2 -2 2 -3q0 -2 -4 -6q-2 -2 -4 -3q-6 -3 -15 -7q-8 -4 -18 -9.5t-23 -13.5q42 -39 86.5 -64 t98.5 -25q13 0 32.5 2.5t40.5 10t41 21.5t35 37q1 2 3 4q3 3 8 3q3 0 5 -6q1 -3 1 -6zM471 220q0 21 -7 36.5t-35 15.5q-31 0 -62 -24.5t-56 -63.5t-41 -88.5t-16 -99.5v-18t2 -19q32 5 69.5 29.5t69.5 61t54 81t22 89.5z" />
<glyph unicode="&#xe000;" horiz-adv-x="325" d="M0 325h325v-325h-325v325z" />
<glyph unicode="&#xfb01;" horiz-adv-x="527" d="M534 414q0 -5 -4 -15.5t-11 -21t-17.5 -18t-24.5 -7.5q-20 0 -20 23q0 11 5.5 22.5t13.5 20.5t18 14t19 5q10 0 15.5 -6.5t5.5 -16.5zM569 182q0 -5 -2 -12.5t-10 -18.5q-12 -18 -27 -36t-30.5 -34.5t-30.5 -30.5t-27 -24q-26 -22 -47 -35t-36.5 -20t-27 -8.5t-19.5 -1.5 q-26 0 -35 15.5t-9 34.5q0 28 14 64q-34 -33 -72.5 -59t-76.5 -38q-28 -61 -67 -128t-82 -123t-86 -92.5t-79 -36.5q-20 0 -28.5 15t-8.5 35q0 36 16.5 88t44 112t63 126t72.5 130t73.5 123t65.5 106q4 7 7.5 13t7.5 12q-21 4 -39 13q-15 8 -27.5 21t-12.5 33q0 11 4.5 19 t11 13t12.5 7.5t9 2.5q7 0 7 -6q0 -4 -1 -5t-1 -2q-3 -9 -3 -18q0 -14 7.5 -23t17 -14.5t20 -7.5t16.5 -2q27 40 60.5 83.5t70 79.5t73.5 59.5t70 23.5q15 0 26 -7.5t11 -27.5t-10.5 -44.5t-29 -51t-44 -51.5t-55.5 -45.5t-64 -34t-69 -16.5q-3 -5 -6.5 -9.5t-6.5 -9.5 q-20 -33 -49.5 -80.5t-62.5 -103.5q16 11 33.5 18t35.5 7q28 0 36 -16t8 -33q0 -20 -8.5 -49t-22.5 -66q40 14 83.5 52.5t97.5 105.5q12 20 24 37.5t21 31.5q11 16 20 28q3 5 10 9q6 3 15.5 5.5t26.5 2.5q9 -1 9 -7q0 -2 -2 -6q-12 -19 -34.5 -52.5t-44.5 -70t-38.5 -71 t-16.5 -56.5q0 -7 3 -15t17 -8q5 0 12.5 1t20 7t29.5 18t39 34q23 23 51 54t66 79l2 2q1 1 3 1l2 -2q1 -1 2 -3q2 -4 2 -10zM421 581q0 13 -11 13q-8 0 -20 -7t-23 -16q-12 -11 -26 -24q-16 -16 -35 -39q-17 -20 -39.5 -48.5t-49.5 -66.5q24 1 58.5 21t67 49t55.5 61t23 57z M140 111q0 15 -8 24.5t-27 9.5q-13 0 -25 -8t-21.5 -20t-15 -27t-5.5 -30q0 -21 14.5 -36.5t50.5 -15.5h6q14 32 22.5 58.5t8.5 44.5zM88 -29q-49 0 -69.5 18.5t-21.5 45.5q-31 -54 -59.5 -107.5t-50 -101.5t-34.5 -88t-13 -66q0 -20 13 -20q18 0 48 30t64 77t68 103t59 109 h-4z" />
<glyph unicode="&#xfb02;" horiz-adv-x="578" d="M773 632q0 -24 -11.5 -56t-32.5 -66.5t-49.5 -68.5t-63.5 -62.5t-74.5 -47.5t-81.5 -24q-23 -41 -44.5 -84.5t-40.5 -90.5q-6 -14 -10 -29q-4 -13 -7 -27.5t-3 -28.5q0 -18 7 -29t26 -11q10 0 25.5 5t38.5 19q17 10 42 32q21 19 51.5 51t71.5 83l1 1q1 1 3 1q1 0 3 -2 q2 -1 4 -3q3 -3 3 -11q0 -10 -12 -26q-39 -51 -76.5 -86.5t-64.5 -54.5q-47 -32 -77 -42t-47 -10q-32 0 -44.5 22t-12.5 50q0 17 3 34.5t7 31.5q-36 -42 -82 -76t-92 -48q-28 -61 -67 -128t-82 -123t-86 -92.5t-79 -36.5q-20 0 -28.5 15t-8.5 35q0 36 16.5 88t44 112t63 126 t72.5 130t73.5 123t65.5 106q4 7 7.5 13t7.5 12q-21 4 -39 13q-15 8 -27.5 21t-12.5 33q0 11 4.5 19t11 13t12.5 7.5t9 2.5q7 0 7 -6q0 -4 -1 -5t-1 -2q-3 -9 -3 -18q0 -14 7.5 -23t17 -14.5t20 -7.5t16.5 -2q27 40 60.5 83.5t70 79.5t73.5 59.5t70 23.5q15 0 26 -7.5 t11 -27.5t-10.5 -44.5t-29 -51t-44 -51.5t-55.5 -45.5t-64 -34t-69 -16.5q-3 -5 -6.5 -9.5t-6.5 -9.5q-20 -33 -49.5 -80.5t-62.5 -103.5q16 11 33.5 18t35.5 7q28 0 36 -16t8 -33q0 -20 -8.5 -49t-22.5 -66q42 14 87 55t102 113q11 23 26 54.5t36 70.5q58 103 117 185 q25 35 52.5 68t55.5 59t55.5 42t51.5 16q21 0 31 -12.5t10 -33.5zM734 615q0 19 -14 19q-13 0 -30 -12.5t-36.5 -33.5t-40 -47.5t-40.5 -54.5q-46 -65 -95 -148q35 6 67 24.5t60.5 44.5t52 56t40.5 58.5t26.5 53.5t9.5 40zM421 581q0 13 -11 13q-8 0 -20 -7t-23 -16 q-12 -11 -26 -24q-16 -16 -35 -39q-17 -20 -39.5 -48.5t-49.5 -66.5q24 1 58.5 21t67 49t55.5 61t23 57zM140 111q0 15 -8 24.5t-27 9.5q-13 0 -25 -8t-21.5 -20t-15 -27t-5.5 -30q0 -21 14.5 -36.5t50.5 -15.5h6q14 32 22.5 58.5t8.5 44.5zM88 -29q-49 0 -69.5 18.5 t-21.5 45.5q-31 -54 -59.5 -107.5t-50 -101.5t-34.5 -88t-13 -66q0 -20 13 -20q18 0 48 30t64 77t68 103t59 109h-4z" />
<glyph unicode="&#xfb03;" horiz-adv-x="832" d="M844 414q0 -5 -4 -15.5t-11 -21t-17.5 -18t-24.5 -7.5q-20 0 -20 23q0 11 5.5 22.5t13.5 20.5t18 14t19 5q10 0 15.5 -6.5t5.5 -16.5zM874 173q0 -5 -2.5 -12t-9.5 -17q-21 -28 -50.5 -60.5t-61.5 -59.5t-65.5 -45t-62.5 -18q-26 0 -35 15.5t-9 34.5q0 35 20 79.5 t44 84.5q28 47 63 95q3 5 10 9q6 3 15.5 5.5t26.5 2.5q9 -1 9 -7q0 -2 -2 -6q-12 -19 -34.5 -52.5t-44.5 -70t-38.5 -71t-16.5 -56.5q0 -7 3 -15t17 -8q5 0 12.5 1t20 7t29.5 18t39 34q12 11 23.5 23t24.5 27t28.5 33t34.5 42q0 1 1 2t2 1t3 -2l3 -3q3 -3 3 -11zM774 600 q0 -20 -10.5 -44.5t-29 -51t-44 -51.5t-55.5 -45.5t-64 -34t-69 -16.5q-3 -5 -6.5 -9.5t-6.5 -9.5q-20 -33 -49.5 -80.5t-62.5 -103.5q16 11 33.5 18t35.5 7q28 0 36 -16t8 -33q0 -20 -8.5 -49t-22.5 -66q43 14 89.5 56.5t104.5 117.5q0 1 1 2t2 1q2 0 4.5 -4t2.5 -12 q0 -5 -2 -12.5t-9 -17.5q-18 -26 -42.5 -52t-51.5 -49t-56.5 -40.5t-58.5 -26.5q-28 -61 -67 -128t-82 -123t-86 -92.5t-79 -36.5q-20 0 -28.5 15t-8.5 35q0 36 16.5 88t44 112t63 126t72.5 130t73.5 123t65.5 106q4 7 7.5 13t7.5 12q-21 4 -39 13q-15 8 -27.5 21t-12.5 33 q0 11 4.5 19t11 13t12.5 7.5t9 2.5q7 0 7 -6q0 -4 -1 -5t-1 -2q-3 -9 -3 -18q0 -14 7.5 -23t17 -14.5t20 -7.5t16.5 -2q27 40 60.5 83.5t70 79.5t73.5 59.5t70 23.5q15 0 26 -7.5t11 -27.5zM731 581q0 13 -11 13q-8 0 -20 -7t-23 -16q-12 -11 -26 -24q-16 -16 -35 -39 q-17 -20 -39.5 -48.5t-49.5 -66.5q24 1 58.5 21t67 49t55.5 61t23 57zM450 111q0 15 -8 24.5t-27 9.5q-13 0 -25 -8t-21.5 -20t-15 -27t-5.5 -30q0 -21 14.5 -36.5t50.5 -15.5h6q14 32 22.5 58.5t8.5 44.5zM398 -29q-49 0 -69.5 18.5t-21.5 45.5q-31 -54 -59.5 -107.5 t-50 -101.5t-34.5 -88t-13 -66q0 -20 13 -20q18 0 48 30t64 77t68 103t59 109h-4zM464 600q0 -20 -10.5 -44.5t-29 -51t-44 -51.5t-55.5 -45.5t-64 -34t-69 -16.5q-3 -5 -6.5 -9.5t-6.5 -9.5q-20 -33 -49.5 -80.5t-62.5 -103.5q16 11 33.5 18t35.5 7q28 0 36 -16t8 -33 q0 -20 -8.5 -49t-22.5 -66q43 14 89.5 56.5t104.5 117.5q0 1 1 2t2 1q2 0 4.5 -4t2.5 -12q0 -5 -2 -12.5t-9 -17.5q-18 -26 -42.5 -52t-51.5 -49t-56.5 -40.5t-58.5 -26.5q-28 -61 -67 -128t-82 -123t-86 -92.5t-79 -36.5q-20 0 -28.5 15t-8.5 35q0 36 16.5 88t44 112 t63 126t72.5 130t73.5 123t65.5 106q4 7 7.5 13t7.5 12q-21 4 -39 13q-15 8 -27.5 21t-12.5 33q0 11 4.5 19t11 13t12.5 7.5t9 2.5q7 0 7 -6q0 -4 -1 -5t-1 -2q-3 -9 -3 -18q0 -14 7.5 -23t17 -14.5t20 -7.5t16.5 -2q27 40 60.5 83.5t70 79.5t73.5 59.5t70 23.5 q15 0 26 -7.5t11 -27.5zM421 581q0 13 -11 13q-8 0 -20 -7t-23 -16q-12 -11 -26 -24q-16 -16 -35 -39q-17 -20 -39.5 -48.5t-49.5 -66.5q24 1 58.5 21t67 49t55.5 61t23 57zM140 111q0 15 -8 24.5t-27 9.5q-13 0 -25 -8t-21.5 -20t-15 -27t-5.5 -30q0 -21 14.5 -36.5 t50.5 -15.5h6q14 32 22.5 58.5t8.5 44.5zM88 -29q-49 0 -69.5 18.5t-21.5 45.5q-31 -54 -59.5 -107.5t-50 -101.5t-34.5 -88t-13 -66q0 -20 13 -20q18 0 48 30t64 77t68 103t59 109h-4z" />
<glyph unicode="&#xfb04;" horiz-adv-x="888" d="M1083 632q0 -24 -11.5 -56t-32.5 -66.5t-49.5 -68.5t-63.5 -62.5t-74.5 -47.5t-81.5 -24q-23 -41 -44.5 -84.5t-40.5 -90.5q-6 -14 -10 -29q-4 -13 -7 -27.5t-3 -28.5q0 -18 7 -29t26 -11q10 0 25.5 5t38.5 19q17 10 42 32q21 19 51.5 51t71.5 83l1 1q1 1 3 1q1 0 3 -2 q2 -1 4 -3q3 -3 3 -11q0 -10 -12 -26q-39 -51 -76.5 -86.5t-64.5 -54.5q-47 -32 -77 -42t-47 -10q-32 0 -44.5 22t-12.5 50q0 18 3 35.5t8 31.5q5 17 11 32q9 22 20 48q10 23 25 55t36 70q-22 4 -40 12q-15 7 -28 20t-13 34q0 14 5.5 22t12 12.5t12 6t6.5 1.5q10 0 10 -7v-3 q0 -1 -1 -1q-7 -14 -7 -25q0 -15 9.5 -23.5t20.5 -13.5q13 -5 29 -8q56 96 112 172q24 32 50.5 63t53 55t52 38.5t48.5 14.5q21 0 31 -12.5t10 -33.5zM1044 615q0 19 -14 19q-13 0 -30 -12.5t-36.5 -33.5t-40 -47.5t-40.5 -54.5q-46 -65 -95 -148q35 6 67 24.5t60.5 44.5 t52 56t40.5 58.5t26.5 53.5t9.5 40zM774 600q0 -20 -10.5 -44.5t-29 -51t-44 -51.5t-55.5 -45.5t-64 -34t-69 -16.5q-3 -5 -6.5 -9.5t-6.5 -9.5q-20 -33 -49.5 -80.5t-62.5 -103.5q16 11 33.5 18t35.5 7q28 0 36 -16t8 -33q0 -20 -8.5 -49t-22.5 -66q43 14 89.5 56.5 t104.5 117.5q0 1 1 2t2 1q2 0 4.5 -4t2.5 -12q0 -5 -2 -12.5t-9 -17.5q-18 -26 -42.5 -52t-51.5 -49t-56.5 -40.5t-58.5 -26.5q-28 -61 -67 -128t-82 -123t-86 -92.5t-79 -36.5q-20 0 -28.5 15t-8.5 35q0 36 16.5 88t44 112t63 126t72.5 130t73.5 123t65.5 106q4 7 7.5 13 t7.5 12q-21 4 -39 13q-15 8 -27.5 21t-12.5 33q0 11 4.5 19t11 13t12.5 7.5t9 2.5q7 0 7 -6q0 -4 -1 -5t-1 -2q-3 -9 -3 -18q0 -14 7.5 -23t17 -14.5t20 -7.5t16.5 -2q27 40 60.5 83.5t70 79.5t73.5 59.5t70 23.5q15 0 26 -7.5t11 -27.5zM731 581q0 13 -11 13q-8 0 -20 -7 t-23 -16q-12 -11 -26 -24q-16 -16 -35 -39q-17 -20 -39.5 -48.5t-49.5 -66.5q24 1 58.5 21t67 49t55.5 61t23 57zM450 111q0 15 -8 24.5t-27 9.5q-13 0 -25 -8t-21.5 -20t-15 -27t-5.5 -30q0 -21 14.5 -36.5t50.5 -15.5h6q14 32 22.5 58.5t8.5 44.5zM398 -29 q-49 0 -69.5 18.5t-21.5 45.5q-31 -54 -59.5 -107.5t-50 -101.5t-34.5 -88t-13 -66q0 -20 13 -20q18 0 48 30t64 77t68 103t59 109h-4zM464 600q0 -20 -10.5 -44.5t-29 -51t-44 -51.5t-55.5 -45.5t-64 -34t-69 -16.5q-3 -5 -6.5 -9.5t-6.5 -9.5q-20 -33 -49.5 -80.5 t-62.5 -103.5q16 11 33.5 18t35.5 7q28 0 36 -16t8 -33q0 -20 -8.5 -49t-22.5 -66q43 14 89.5 56.5t104.5 117.5q0 1 1 2t2 1q2 0 4.5 -4t2.5 -12q0 -5 -2 -12.5t-9 -17.5q-18 -26 -42.5 -52t-51.5 -49t-56.5 -40.5t-58.5 -26.5q-28 -61 -67 -128t-82 -123t-86 -92.5 t-79 -36.5q-20 0 -28.5 15t-8.5 35q0 36 16.5 88t44 112t63 126t72.5 130t73.5 123t65.5 106q4 7 7.5 13t7.5 12q-21 4 -39 13q-15 8 -27.5 21t-12.5 33q0 11 4.5 19t11 13t12.5 7.5t9 2.5q7 0 7 -6q0 -4 -1 -5t-1 -2q-3 -9 -3 -18q0 -14 7.5 -23t17 -14.5t20 -7.5t16.5 -2 q27 40 60.5 83.5t70 79.5t73.5 59.5t70 23.5q15 0 26 -7.5t11 -27.5zM421 581q0 13 -11 13q-8 0 -20 -7t-23 -16q-12 -11 -26 -24q-16 -16 -35 -39q-17 -20 -39.5 -48.5t-49.5 -66.5q24 1 58.5 21t67 49t55.5 61t23 57zM140 111q0 15 -8 24.5t-27 9.5q-13 0 -25 -8 t-21.5 -20t-15 -27t-5.5 -30q0 -21 14.5 -36.5t50.5 -15.5h6q14 32 22.5 58.5t8.5 44.5zM88 -29q-49 0 -69.5 18.5t-21.5 45.5q-31 -54 -59.5 -107.5t-50 -101.5t-34.5 -88t-13 -66q0 -20 13 -20q18 0 48 30t64 77t68 103t59 109h-4z" />
</font>
</defs>
</svg>
